<?xml version="1.0" encoding="utf-8"?>
<!-- Generator: Adobe Illustrator 25.4.1, SVG Export Plug-In . SVG Version: 6.00 Build 0)  -->
<svg version="1.1" id="Layer_1" xmlns="http://www.w3.org/2000/svg" xmlns:xlink="http://www.w3.org/1999/xlink" x="0px" y="0px"
	 viewBox="0 0 863.3 399.6" style="enable-background:new 0 0 863.3 399.6;" xml:space="preserve">
<style type="text/css">
	.st0{fill:#F58857;}
</style>
<path class="st0" d="M34.4,359.4c-0.4,0.8-0.2,1.7,0.5,2.2l0.9,0.2h0.4v0.4h-7.6v-0.4h0.3c0.6,0,1.3-0.2,1.8-0.5
	c0.7-0.5,1.2-1.1,1.5-1.9H34.4z M42.5,335.2l0.4,2.6l-9.5,24.3h-2.3l9.7-23l0.7-1.7c0.2-0.4,0.3-0.9,0.5-1.3
	c0.1-0.3,0.2-0.6,0.2-0.9L42.5,335.2z M47.9,351.9v1.1H36v-1.1H47.9z M42.5,335.2L53.8,362h-3.3l-8.7-23.2L42.5,335.2z M49.6,359.4
	h3.1c0.3,0.8,0.8,1.4,1.5,1.9c0.5,0.3,1.2,0.5,1.8,0.5h0.3v0.4h-8.5v-0.4h0.3c0.5,0,1-0.2,1.3-0.6C49.8,360.7,49.9,360,49.6,359.4
	L49.6,359.4z"/>
<path class="st0" d="M57.1,363H47v-2h1.1c0.3,0,0.6-0.1,0.8-0.3c0.1-0.3,0.1-0.5,0-0.8l-2.3-6.1h-9.1l-2.4,6.1
	c-0.1,0.2-0.1,0.4,0,0.6c0,0.2,0.1,0.3,0.3,0.4H37v2h-9.2v-2h1.1c0.5,0,1-0.1,1.4-0.4c0.5-0.3,0.8-0.7,1.1-1.2l8.7-20.6
	c0.2-0.6,0.4-1.1,0.7-1.7c0.2-0.4,0.3-0.8,0.4-1.2c0.1-0.2,0.2-0.5,0.2-0.7v-0.8h0.5l0.4-1.9l0.8,1.9h0.1v0.6L53.3,359
	c0.2,0.6,0.7,1.1,1.2,1.5c0.4,0.3,0.9,0.4,1.4,0.4H57L57.1,363z M32.3,361.3h0.5l0.5-1.1h-0.6L32.3,361.3z M51.1,361.2h1.5l-0.4-1
	h-1.5L51.1,361.2z M50.1,358.7h1.4l-2.8-6.8v1.9h-0.4L50.1,358.7z M33.4,358.7h0.5l1.9-4.9h-0.3L33.4,358.7z M47.3,351.1h1l-5-12.1
	l-0.3,0.7L47.3,351.1z M38.5,351.1h7.1l-3.5-9.2L38.5,351.1z M36.6,351.1h0.2l3.3-8.3L36.6,351.1z"/>
<path class="st0" d="M104.4,351.2l-0.5,5.9c-0.6,1.1-1.4,2.1-2.4,2.9c-1.1,0.9-2.3,1.5-3.6,2c-1.5,0.5-3,0.7-4.6,0.7
	c-2.4,0-4.8-0.6-7-1.7c-2.1-1.1-3.7-2.7-4.8-4.8c-2.3-4.6-2.3-9.9,0-14.5c1.1-2.1,2.7-3.7,4.8-4.8c2.2-1.2,4.7-1.8,7.2-1.7
	c1.7,0,3.4,0.2,5.1,0.7c1.4,0.4,2.7,1,3.9,1.8l0.8,5.4h-0.4c-0.5-2.1-1.7-3.9-3.4-5.1c-1.8-1.1-3.9-1.7-6-1.7c-2-0.1-4,0.5-5.7,1.6
	c-1.7,1-3,2.6-3.8,4.4c-1.9,4.2-1.9,9,0,13.2c0.8,1.8,2.1,3.3,3.7,4.4c1.6,1.1,3.6,1.7,5.6,1.7c1.7,0,3.4-0.3,5-1
	c1.5-0.7,2.9-1.9,3.8-3.3c1.2-1.8,1.9-3.9,2-6.1L104.4,351.2z"/>
<path class="st0" d="M93.3,363.5c-2.6,0-5.1-0.6-7.4-1.8c-2.2-1.2-3.9-2.9-5.1-5.1c-1.2-2.4-1.9-5-1.8-7.7c-0.1-2.6,0.6-5.3,1.8-7.6
	c1.2-2.2,2.9-3.9,5.1-5.1c2.3-1.2,5-1.9,7.6-1.8c1.8-0.1,3.6,0.2,5.3,0.8c1.5,0.4,2.8,1.1,4.1,1.9l0.3,0.2l1,6.6h-1.9v-0.6
	c-0.4-1.9-1.5-3.5-3.1-4.6c-1.7-1.1-3.6-1.7-5.6-1.6c-1.9,0-3.7,0.5-5.3,1.4c-1.5,1-2.7,2.4-3.5,4.1c-1.7,4-1.7,8.6,0,12.6
	c0.8,1.6,1.9,3,3.4,4.1c1.5,1,3.4,1.5,5.2,1.5c1.6,0,3.2-0.3,4.7-0.9c1.4-0.6,2.6-1.7,3.5-3c1-1.8,1.6-3.8,1.8-5.8v-0.7h1.9
	l-0.6,6.9v0.2c-0.7,1.2-1.6,2.2-2.6,3.1c-1.1,0.9-2.4,1.6-3.8,2.1C96.7,363.3,95,363.6,93.3,363.5z M87.2,337.3l-0.5,0.3
	c-1.9,1-3.5,2.6-4.5,4.5c-2.1,4.3-2.1,9.4,0,13.7c1,1.9,2.6,3.5,4.5,4.5l0.7,0.4h-0.1c-1.8-1.2-3.2-2.8-4.1-4.8
	c-1-2.2-1.4-4.5-1.4-6.9c0-2.4,0.4-4.8,1.4-7C84.1,340.1,85.5,338.5,87.2,337.3z M99.5,337.1l0.5,0.3c0.7,0.5,1.4,1.1,1.9,1.8v-1
	L99.5,337.1z"/>
<path class="st0" d="M128.6,335.2c2.5-0.1,4.9,0.5,7.1,1.7c2.1,1.1,3.7,2.7,4.8,4.8c2.3,4.6,2.3,9.9,0,14.5
	c-1.1,2.1-2.7,3.7-4.8,4.8c-2.2,1.2-4.6,1.8-7.1,1.7c-2.5,0.1-4.9-0.5-7.1-1.7c-2-1.1-3.7-2.8-4.8-4.8c-2.3-4.6-2.3-9.9,0-14.5
	c1.1-2,2.8-3.7,4.8-4.8C123.7,335.7,126.1,335.1,128.6,335.2z M128.6,361.6c2,0.1,3.9-0.5,5.6-1.6c1.7-1.1,3-2.6,3.8-4.4
	c0.9-2.1,1.4-4.3,1.3-6.6c0.1-2.3-0.4-4.6-1.3-6.7c-0.8-1.8-2.2-3.3-3.8-4.4c-1.7-1.1-3.6-1.7-5.6-1.6c-2-0.1-3.9,0.5-5.6,1.6
	c-1.6,1.1-2.9,2.6-3.7,4.4c-1.9,4.2-1.9,9.1,0,13.3c0.8,1.8,2.1,3.3,3.7,4.4C124.7,361.1,126.6,361.7,128.6,361.6L128.6,361.6z"/>
<path class="st0" d="M128.6,363.5c-2.6,0-5.2-0.6-7.5-1.8c-2.1-1.2-3.9-3-5.1-5.1c-2.4-4.8-2.4-10.5,0-15.3c1.2-2.1,3-3.9,5.1-5.1
	c2.3-1.2,4.9-1.8,7.5-1.8c2.6-0.1,5.2,0.6,7.5,1.8c2.2,1.2,3.9,2.9,5.1,5.1c2.4,4.8,2.4,10.5,0,15.3c-1.2,2.2-2.9,3.9-5.1,5.1
	C133.8,362.9,131.2,363.6,128.6,363.5z M128.6,337.1c-1.8-0.1-3.6,0.5-5.1,1.5c-1.6,1-2.8,2.4-3.5,4.1c-0.9,2-1.4,4.1-1.3,6.3
	c-0.1,2.1,0.4,4.3,1.3,6.2c0.7,1.7,2,3.2,3.5,4.2c1.5,0.9,3.3,1.4,5.1,1.4c1.8,0,3.6-0.5,5.2-1.4c1.5-1.1,2.7-2.5,3.5-4.2
	c0.8-2,1.3-4.1,1.2-6.2c0.1-2.2-0.4-4.3-1.2-6.3c-0.7-1.7-2-3.1-3.5-4.1C132.3,337.6,130.4,337.1,128.6,337.1z M122.6,337.2
	l-0.7,0.4c-1.9,1-3.5,2.6-4.5,4.5c-1.1,2.1-1.7,4.5-1.6,6.9c-0.1,2.4,0.5,4.7,1.6,6.8c1,1.9,2.6,3.5,4.5,4.5l0.7,0.4l0,0
	c-1.7-1.2-3.1-2.9-4-4.8c-2-4.4-2-9.5,0-13.9C119.5,340.1,120.9,338.4,122.6,337.2L122.6,337.2z M134.6,337.2h0.1
	c1.7,1.2,3.1,2.9,4,4.8c1.9,4.4,1.9,9.5,0,13.9c-0.9,1.9-2.3,3.6-4,4.8h-0.1l0.7-0.4c1.9-1,3.5-2.6,4.5-4.5c1.2-2.1,1.7-4.4,1.7-6.8
	c0-2.4-0.5-4.8-1.7-6.9c-1-1.9-2.6-3.5-4.5-4.5L134.6,337.2z"/>
<path class="st0" d="M151.7,350.3H163l0.3,0.9L163,352h-11.3l-0.2-0.8L151.7,350.3z"/>
<path class="st0" d="M163.7,352.8h-12.6l-0.5-1.7l0.5-1.6h12.5l0.5,1.6L163.7,352.8z M152.3,351.2L152.3,351.2z"/>
<path class="st0" d="M175.7,338.4h-3c-0.3-0.7-0.8-1.4-1.4-1.8c-0.6-0.3-1.2-0.5-1.9-0.5h-0.3v-0.4h8.4v0.4h-0.3
	c-0.5,0-1,0.2-1.3,0.6C175.5,337.2,175.5,337.8,175.7,338.4z M171.9,335.9h3l7.1,22.6l-0.7,4.2L171.9,335.9z M188.8,335.1l0.3,3.1
	l-6.6,20.3c-0.3,0.7-0.5,1.5-0.6,2.3c-0.1,0.6-0.2,1.3-0.2,1.9h-0.4l-0.6-3.4l7.8-24.2L188.8,335.1z M188.8,335.1l8,22.3l-0.8,5.3
	l-8.5-23.5L188.8,335.1z M204.2,335.9l-7.1,22.6c-0.2,0.9-0.4,1.7-0.6,2.3c-0.1,0.6-0.2,1.3-0.2,1.9H196l-0.5-3.8l6.6-23H204.2z
	 M201.4,338.4c0.2-0.6,0.1-1.2-0.2-1.7c-0.3-0.4-0.8-0.6-1.3-0.6h-0.3v-0.4h7.5v0.4h-0.3c-0.7,0-1.3,0.2-1.9,0.5
	c-0.7,0.4-1.2,1-1.5,1.8H201.4z"/>
<path class="st0" d="M181.6,365.9l-0.8-2.4h-0.1v-0.6l-8.6-24.2c-0.2-0.6-0.6-1.1-1.1-1.4c-0.5-0.3-1-0.4-1.5-0.4h-1.1v-2h10v2h-1.1
	c-0.3,0-0.5,0.1-0.7,0.3c-0.2,0.2-0.2,0.5,0,1l0.3,1l0,0l4.7,15l6.4-19.9h0.4l0.5-1.7l0.6,1.7h0.2v0.7l6.6,18.5l4.4-15.3
	c0.1-0.3,0.2-0.8,0-1c-0.2-0.2-0.4-0.3-0.7-0.3h-1.1v-2h9v2h-1c-0.6,0-1.1,0.1-1.6,0.4c-0.4,0.3-0.8,0.7-1,1.2l-6.3,20.2
	c-0.3,0.9-0.4,1.6-0.6,2.3c-0.1,0.6-0.2,1.1-0.2,1.7v0.8h-0.5l-0.3,2.3l-0.9-2.3h-0.1v-0.6l-7-19.4l-5,15.2
	c-0.2,0.8-0.4,1.6-0.5,2.2c-0.1,0.6-0.2,1.2-0.2,1.8v0.8h-0.4L181.6,365.9z M189,341l6,16.7l0.5-1.6l-6-16.6L189,341z M173.9,339.2
	l6.5,18.4l0.2-0.8l-5.5-17.6L173.9,339.2z M202,339.2l-4,13.8l4.4-13.8H202z M202.4,337.6h0.5l0.2-0.9h-0.4L202.4,337.6z
	 M173.3,337.6h1.3l-0.2-0.9H173L173.3,337.6z"/>
<path class="st0" d="M228,335.2c2.5-0.1,5,0.5,7.2,1.7c2,1.1,3.7,2.8,4.8,4.8c2.3,4.6,2.3,9.9,0,14.5c-1.1,2-2.8,3.7-4.8,4.8
	c-2.2,1.2-4.7,1.8-7.2,1.7c-2.4,0.1-4.9-0.5-7-1.7c-2.1-1.1-3.7-2.7-4.8-4.8c-2.4-4.5-2.4-10,0-14.5c1.1-2.1,2.7-3.7,4.8-4.8
	C223.1,335.7,225.6,335.1,228,335.2z M228,361.6c2,0.1,4-0.5,5.7-1.6c1.6-1.1,2.9-2.6,3.7-4.4c1.9-4.2,1.9-9.1,0-13.3
	c-0.8-1.8-2.1-3.3-3.7-4.4c-1.7-1.1-3.7-1.7-5.7-1.6c-2-0.1-3.9,0.5-5.5,1.6c-1.6,1.1-3,2.6-3.8,4.4c-0.9,2.1-1.4,4.4-1.3,6.7
	c-0.1,2.3,0.4,4.5,1.3,6.6c0.8,1.8,2.1,3.3,3.8,4.4C224.1,361.1,226,361.7,228,361.6L228,361.6z"/>
<path class="st0" d="M228,363.5c-2.6,0.1-5.1-0.6-7.4-1.8c-2.2-1.2-3.9-2.9-5.1-5.1c-2.4-4.8-2.4-10.5,0-15.3
	c1.2-2.2,2.9-3.9,5.1-5.1c2.3-1.2,4.8-1.9,7.4-1.8c2.6-0.1,5.3,0.6,7.6,1.8c2.1,1.2,3.9,3,5.1,5.1c2.4,4.8,2.4,10.5,0,15.3
	c-1.2,2.1-3,3.9-5.1,5.1C233.3,362.9,230.6,363.6,228,363.5z M228,337.1c-1.8,0-3.6,0.5-5.1,1.5c-1.5,1-2.8,2.4-3.5,4.1
	c-0.8,2-1.3,4.1-1.2,6.3c-0.1,2.1,0.4,4.2,1.2,6.2c0.8,1.7,2,3.1,3.5,4.2c1.5,0.9,3.3,1.4,5.1,1.4c3.8,0.2,7.3-2.1,8.7-5.6
	c0.9-1.9,1.4-4.1,1.3-6.2c0.1-2.2-0.4-4.3-1.3-6.3C235.2,339.3,231.8,337.1,228,337.1L228,337.1z M222.1,337.2l-0.8,0.4
	c-1.9,1-3.4,2.6-4.4,4.5c-1.2,2.1-1.7,4.5-1.7,6.9c0,2.4,0.5,4.7,1.7,6.8c1,1.9,2.5,3.5,4.4,4.5l0.8,0.4H222c-1.7-1.2-3.1-2.9-4-4.8
	c-1.9-4.4-1.9-9.5,0-13.9c0.9-1.9,2.3-3.6,4-4.8L222.1,337.2z M234.1,337.2L234.1,337.2c1.7,1.2,3.1,2.9,4,4.8c2,4.4,2,9.5,0,13.9
	c-0.9,1.9-2.3,3.6-4,4.8l0,0l0.7-0.4c1.9-1,3.5-2.6,4.5-4.5c1.1-2.1,1.6-4.4,1.6-6.8c0-2.4-0.5-4.8-1.6-6.9c-1-1.9-2.6-3.5-4.5-4.5
	L234.1,337.2z"/>
<path class="st0" d="M254.1,338.5H254c0-0.6-0.2-1.3-0.7-1.7c-0.4-0.5-1.1-0.7-1.7-0.7h-0.5v-0.4h3L254.1,338.5z M254.1,359.4v2.8
	h-3v-0.4h0.5c0.6,0,1.3-0.2,1.7-0.7C253.8,360.7,254,360,254.1,359.4L254.1,359.4z M256.5,335.7v26.5H254v-26.5H256.5z M261.3,335.7
	c1.1,0,2.1,0.2,3.1,0.5c1.8,0.5,3.2,1.9,3.8,3.6c0.4,1,0.5,2,0.5,3c0,1.2-0.3,2.4-0.8,3.5c-0.6,1-1.4,2-2.3,2.7
	c-1,0.7-2.1,1.1-3.3,1.1c0.5,0.2,1,0.6,1.4,1l1.3,1.6l1.8,2.5c0.5,0.8,1.1,1.4,1.6,2.1l1.4,1.7l1.5,1.4c0.5,0.5,1,0.8,1.6,1.1
	c0.6,0.2,1.3,0.3,2,0.3v0.4h-2.1c-1,0-2-0.2-3-0.5c-1.4-0.6-2.6-1.6-3.6-2.8l-0.6-0.9c-0.4-0.5-0.8-1.1-1.2-1.7
	c-0.5-0.6-1-1.3-1.4-2l-1.2-1.7c-0.2-0.3-0.4-0.6-0.6-0.8c-0.5-0.6-1-1.2-1.6-1.7c-0.5-0.5-1.2-0.8-1.9-0.8v-0.4h2.1l2.1-0.3
	c0.8-0.2,1.5-0.6,2.2-1.1c0.8-0.7,1.3-1.6,1.6-2.6c0-0.3,0.1-0.7,0.2-1v-1.2c0-1.5-0.4-2.9-1.3-4.1c-0.8-1-2.1-1.7-3.4-1.7
	c-0.7-0.1-1.5-0.1-2.2,0h-2.6c0-0.1,0-0.3-0.1-0.4c-0.2-0.2-0.3-0.5-0.3-0.8L261.3,335.7z M256.4,359.4h0.1c0,0.6,0.2,1.3,0.7,1.7
	c0.4,0.5,1.1,0.7,1.7,0.7h0.5v0.4h-3L256.4,359.4z"/>
<path class="st0" d="M275.7,363h-2.9c-1.1,0-2.3-0.2-3.3-0.6c-0.8-0.4-1.6-0.9-2.4-1.4l-1.5-1.6l-0.7-0.9l-1.2-1.8l-1.4-2l-1.1-1.6
	l-0.2-0.2c-0.2-0.4-0.3-0.6-0.4-0.6l-1.5-1.7c-0.4-0.4-0.9-0.6-1.4-0.6h-0.4v9.4c-0.1,0.5,0.1,0.9,0.5,1.2c0.3,0.3,0.7,0.4,1.1,0.4
	h1.3v2h-9.9v-2h1.3c0.4,0,0.8-0.1,1.1-0.4c0.4-0.3,0.6-0.7,0.5-1.2v-20.9c0-0.5-0.2-0.9-0.5-1.2c-0.3-0.3-0.7-0.4-1.1-0.4h-1.3v-2
	h11c1.2,0,2.3,0.2,3.4,0.5c1,0.4,1.9,0.9,2.6,1.6c0.7,0.7,1.3,1.6,1.7,2.6c0.3,1,0.5,2.1,0.5,3.2c0,1.4-0.3,2.7-0.9,3.9
	c-0.6,1.2-1.5,2.2-2.6,3c-0.5,0.4-1.1,0.7-1.8,0.9h0.1l1.4,1.6c0.5,0.9,1.1,1.8,1.8,2.6l1.5,2l1.3,1.6l1.5,1.4
	c0.4,0.4,0.9,0.7,1.4,0.9c0.5,0.2,1.1,0.3,1.7,0.3h0.8V363z M254.9,361.4h0.7v-2.7h0.1v-21h-0.1V337c0-0.1,0-0.1-0.1-0.2v-0.3H255
	v2.8h-0.1v19.4h0.1L254.9,361.4z M261.1,350.4l0.8,0.9l0,0l0.4,0.5v0.3c0.4,0.5,0.8,1,1.2,1.6l1.4,2l1.2,1.8
	c0.3,0.2,0.5,0.5,0.6,0.8c0.4,0.5,0.9,1,1.4,1.4l1.9,1.2l0.9,0.2c-0.1,0-0.2-0.1-0.2-0.2l0,0c-0.6-0.4-1.1-0.9-1.6-1.5l-1.4-1.7
	l-1.6-2.1l-1.8-2.5l-1.3-1.5c-0.3-0.4-0.7-0.7-1.1-0.9L261.1,350.4z M263.7,336.8c0.6,0.3,1.1,0.8,1.5,1.3c1.1,1.3,1.6,2.9,1.5,4.6
	c0,0.4,0,0.9-0.1,1.3c0,0.4-0.1,0.7-0.2,1.1c-0.3,1.2-0.9,2.2-1.8,3c-0.7,0.5-1.4,0.9-2.2,1.2c1-0.1,1.9-0.4,2.7-0.9
	c1.8-1.3,2.8-3.4,2.8-5.6c0-0.9-0.1-1.8-0.4-2.7c-0.3-0.7-0.7-1.4-1.3-1.9c-0.5-0.6-1.2-1.1-2-1.3L263.7,336.8z M257.3,348.1h2.4
	l2-0.3c0.7-0.2,1.3-0.5,1.9-0.9c0.6-0.6,1.1-1.4,1.3-2.2c0.1-0.3,0.2-0.6,0.2-0.9v-1.1c0.1-1.3-0.3-2.6-1.1-3.6
	c-0.7-0.8-1.7-1.4-2.8-1.4h-3.9V348.1z"/>
<path class="st0" d="M284.7,338.5h-0.1c0-0.6-0.3-1.2-0.7-1.7c-0.4-0.5-1.1-0.7-1.7-0.7h-0.5v-0.4h3V338.5z M284.7,359.4v2.8h-3
	v-0.4h0.5c0.6,0,1.3-0.2,1.7-0.7C284.3,360.6,284.6,360,284.7,359.4L284.7,359.4z M287.1,335.7v26.5h-2.5v-26.5H287.1z M287,338.5
	v-2.8h3v0.4h-0.5c-0.6,0-1.3,0.2-1.7,0.7C287.3,337.2,287.1,337.9,287,338.5L287,338.5z M287,359.4L287,359.4
	c0.1,0.6,0.3,1.3,0.8,1.7c0.4,0.5,1.1,0.7,1.7,0.7h0.5v0.4h-3V359.4z M301.3,336L290,349h-1.7l10.4-13H301.3z M290.4,347.6
	l10.7,12.7c0.5,0.4,1,0.8,1.6,1.1c0.6,0.3,1.3,0.4,2,0.4v0.4H302l-1.5-0.3c-0.6-0.1-1.1-0.4-1.6-0.7c-0.6-0.2-1.1-0.6-1.5-1.1
	l-2.4-2.9l-2.2-2.7l-2.2-2.6c-0.6-0.9-1.4-1.8-2.3-2.9L290.4,347.6z M303.9,335.7v0.3h-0.1c-0.8,0-1.6,0.2-2.4,0.5
	c-0.7,0.4-1.3,0.8-1.8,1.4h-2.4c0.3-0.3,0.4-0.8,0.2-1.2c-0.2-0.4-0.6-0.6-1.1-0.6h-0.4v-0.3h8L303.9,335.7z"/>
<path class="st0" d="M305.5,363H302l-1.7-0.2c-0.6-0.2-1.2-0.5-1.8-0.8c-0.6-0.3-1.2-0.8-1.7-1.3l-2.4-2.9l-2.2-2.7l-2.2-2.6
	l-2.1-2.6l0,0v9.6c-0.1,0.5,0.1,0.9,0.5,1.2c0.3,0.3,0.7,0.4,1.1,0.4h1.3v2h-9.9v-2h1.3c0.4,0,0.8-0.1,1.1-0.4
	c0.3-0.3,0.5-0.7,0.5-1.2v-21c0-0.4-0.2-0.9-0.5-1.2c-0.3-0.3-0.7-0.4-1.1-0.4h-1.3v-2h9.9v2h-1.3c-0.4,0-0.8,0.1-1.1,0.4
	c-0.3,0.3-0.5,0.7-0.5,1.2v9.8l8.7-11c0.2-0.2,0.1-0.3,0.1-0.3s-0.1-0.2-0.4-0.2h-1.2v-1.9h9.6v1.9h-0.9c-0.7,0-1.4,0.2-2,0.4
	c-0.5,0.2-0.9,0.5-1.3,0.9l-8.7,10l9.9,11.6c0.4,0.5,0.9,0.8,1.4,1c0.5,0.2,1.1,0.3,1.6,0.3h0.8V363z M285.5,361.4h0.7v-2.7h0.1
	v-19.4h-0.1v-2.8h-0.7v2.8h-0.1v19.4h0.1V361.4z M290,349.8l1.3,1.6l2.2,2.6c0.7,1,1.5,1.9,2.1,2.7l2.4,2.8c0.3,0.4,0.8,0.8,1.2,1.1
	l1.5,0.5h0.2l-0.3-0.3h-0.1l-9.7-11.5l-0.5,0.5L290,349.8z M297.6,338.6l-4.3,5.4l4.7-5.4H297.6z M298.8,337.1h0.6l0.2-0.2h-0.5
	L298.8,337.1z"/>
<path class="st0" d="M315.7,338.5h-0.1c0-0.6-0.3-1.3-0.8-1.7c-0.4-0.5-1.1-0.7-1.7-0.7h-0.5v-0.4h3.1V338.5z M315.7,359.4v2.8h-3.1
	v-0.4h0.5c0.6,0,1.3-0.2,1.7-0.7c0.5-0.4,0.8-1.1,0.8-1.7L315.7,359.4z M318,335.7v26.5h-2.4v-26.5H318z M317.9,338.5v-2.8h3v0.4
	h-0.5c-0.6,0-1.2,0.2-1.6,0.7c-0.5,0.4-0.8,1-0.8,1.7L317.9,338.5z M317.9,359.4h0.1c0,0.7,0.3,1.3,0.8,1.7c0.4,0.5,1,0.7,1.6,0.7
	h0.5v0.4h-3V359.4z"/>
<path class="st0" d="M321.7,363h-9.9v-2h1.3c0.4,0,0.9-0.1,1.2-0.4c0.3-0.3,0.5-0.8,0.5-1.2v-20.9c-0.1-0.4-0.2-0.8-0.5-1.2
	c-0.3-0.3-0.8-0.4-1.2-0.4h-1.3v-2h9.9v2h-1.3c-0.4,0-0.8,0.1-1.1,0.4c-0.3,0.3-0.5,0.8-0.5,1.2v20.9c0,0.5,0.2,0.9,0.5,1.2
	c0.3,0.3,0.7,0.4,1.1,0.4h1.3V363z M316.5,361.4h0.6v-2.7h0.1v-19.4h-0.1v-2.8h-0.6v2.8h-0.2v19.4h0.2V361.4z"/>
<path class="st0" d="M334.1,359.5v2.7h-3.2v-0.4h0.8c0.6,0,1.2-0.2,1.6-0.6C333.7,360.7,334,360.1,334.1,359.5L334.1,359.5z
	 M334,335.1l1.7,2.1v25H334v-22.3c0-1.6-0.1-3.2-0.4-4.8H334z M334,335.1l22,23.5l0.4,4.1l-22.1-23.4L334,335.1z M335.7,359.5
	c0,0.6,0.2,1.3,0.7,1.7c0.4,0.4,1,0.6,1.6,0.6h0.7v0.4h-3.1L335.7,359.5L335.7,359.5z M351.6,335.7h3.1v2.7h-0.1
	c0-0.6-0.2-1.3-0.7-1.7c-0.4-0.4-1-0.6-1.6-0.6h-0.7V335.7z M356.4,335.7v24.5l0.3,2.5h-0.3l-1.8-2v-25H356.4z M359.4,335.7v0.4
	h-0.7c-0.6,0-1.2,0.2-1.6,0.6c-0.5,0.4-0.7,1.1-0.7,1.7h-0.2v-2.7H359.4z"/>
<path class="st0" d="M357.3,364.9l-20.8-22.2v16.8c0,0.4,0.1,0.8,0.4,1.1c0.3,0.3,0.7,0.4,1.1,0.4h1.5v2h-9.4v-2h1.6
	c0.4,0,0.7-0.1,1-0.4c0.3-0.3,0.5-0.7,0.5-1.1v-19.6c0-1.6-0.1-3.1-0.4-4.7v-0.9h0.4v-1.4l20.9,22.3v-16.8c-0.1-0.4-0.2-0.8-0.5-1.1
	c-0.3-0.3-0.7-0.4-1.1-0.4H351v-2h9.4v2h-1.7c-0.4,0-0.8,0.1-1.1,0.4c-0.3,0.3-0.4,0.7-0.5,1.1v19.5c0,0.8,0.1,1.5,0.1,2.3
	s0.2,1.5,0.3,2.4v0.9h-0.4L357.3,364.9z M336.5,340.4l17.4,18.5v-1.4l-17.4-18.6V340.4z M334.8,358.7h0.1V341h-0.1v17.8V358.7z
	 M355.4,356.8l0.2,0.2v-17.8h-0.2V356.8z"/>
<path class="st0" d="M393.3,351.6v6.3c-0.7,0.8-1.5,1.6-2.4,2.2c-1.1,0.8-2.3,1.5-3.6,1.9c-1.6,0.5-3.3,0.7-5,0.7
	c-2.5,0-4.9-0.5-7.1-1.7c-2-1.1-3.7-2.8-4.8-4.8c-2.3-4.6-2.3-9.9,0-14.5c1.1-2.1,2.7-3.7,4.8-4.8c2.2-1.2,4.6-1.8,7.1-1.7
	c1.2,0,2.5,0.1,3.7,0.3c1,0.2,2,0.5,3,0.9l2.5,1.3l0.7,5.4h-0.3c-0.3-1.4-1-2.6-1.9-3.7c-0.9-1-2-1.8-3.3-2.3
	c-1.4-0.5-2.9-0.8-4.4-0.8c-2-0.1-3.9,0.5-5.6,1.6c-1.7,1.1-3,2.6-3.8,4.4c-1.9,4.2-1.9,9.1,0,13.3c1.7,3.7,5.4,6,9.4,6
	c1.1,0,2.2-0.1,3.2-0.4c1-0.3,2-0.6,2.9-1.1c0.9-0.5,1.7-1.1,2.4-1.8v-6.7c0-1.1-0.6-1.7-1.9-1.7h-0.6v-0.4h7.4v0.4h-0.6
	C393.8,349.9,393.2,350.5,393.3,351.6z"/>
<path class="st0" d="M382.3,363.5c-2.6,0-5.2-0.6-7.5-1.8c-2.1-1.2-3.9-3-5.1-5.1c-2.4-4.8-2.4-10.5,0-15.3c1.2-2.2,2.9-3.9,5.1-5.1
	c2.3-1.2,4.9-1.9,7.5-1.8c1.3,0,2.6,0.1,3.9,0.3c1.1,0.3,2.1,0.6,3.1,1c0.9,0.4,1.8,0.9,2.6,1.4l0.3,0.2l0.9,6.6h-1.8l-0.2-0.6
	c-0.3-1.3-0.8-2.4-1.7-3.4c-0.8-0.9-1.9-1.6-3-2.1c-1.3-0.5-2.7-0.7-4.1-0.7c-1.8,0-3.7,0.5-5.2,1.5c-1.6,1-2.8,2.4-3.5,4.1
	c-0.9,2-1.4,4.1-1.3,6.3c-0.1,2.1,0.4,4.3,1.3,6.2c0.7,1.7,1.9,3.1,3.5,4.1c1.5,1,3.4,1.5,5.2,1.5c1,0,2-0.1,3-0.4
	c0.9-0.2,1.8-0.6,2.7-1l2-1.4v-6.4c0-0.5,0-0.9-1.1-0.9h-1.4v-2h9v2h-1.4l-0.9,0.2c-0.1,0.2-0.2,0.5-0.2,0.7l0,0v6.7
	c-0.7,1-1.5,1.8-2.5,2.5c-1.2,0.8-2.5,1.5-3.9,2C385.9,363.3,384.1,363.6,382.3,363.5z M376.2,337.2l-0.6,0.4
	c-1.9,1-3.5,2.6-4.5,4.5c-1.1,2.1-1.7,4.5-1.6,6.9c-0.1,2.4,0.5,4.7,1.6,6.8c1,1.9,2.6,3.5,4.5,4.5l0.5,0.3
	c-1.7-1.2-3.1-2.8-3.9-4.7c-2-4.4-2-9.5,0-13.9C373.1,340.1,374.5,338.4,376.2,337.2z M391.3,350.3c0.2,0.4,0.3,0.8,0.3,1.3v6.9
	l0.9-0.9v-6c-0.1-0.4,0-0.9,0.2-1.3H391.3z M388.3,337c0.9,0.5,1.7,1.1,2.3,1.9l0.3,0.3l-0.2-1l-2-1L388.3,337z"/>
<path class="st0" d="M423.5,338.5L423.5,338.5c-0.1-0.6-0.3-1.3-0.8-1.7c-0.4-0.5-1.1-0.7-1.7-0.7h-0.5v-0.4h3V338.5z M423.5,359.4
	v2.8h-3v-0.4h0.5c0.6,0,1.3-0.2,1.7-0.7C423.2,360.7,423.4,360,423.5,359.4L423.5,359.4z M425.9,335.7v26.5h-2.5v-26.5H425.9z
	 M428,335.7c1.5,0,3.1,0.2,4.5,0.8c2.3,0.8,3.8,3.1,3.7,5.5c0,1-0.2,1.9-0.6,2.8c-0.4,0.7-0.9,1.4-1.5,1.9c-0.6,0.5-1.3,0.9-2,1.1
	c1.2,0.1,2.4,0.6,3.4,1.3c1,0.6,1.8,1.5,2.3,2.6c0.5,1.1,0.8,2.2,0.8,3.4c0,1.3-0.4,2.6-1.1,3.7c-0.7,1.1-1.8,2-3,2.5
	c-1.5,0.6-3.2,1-4.8,0.9h-4.2c0-0.4,0.1-0.9,0.1-1.3h4c1.1,0,2.3-0.2,3.3-0.7c0.9-0.5,1.6-1.2,2.1-2.1c0.5-1,0.8-2.2,0.7-3.3
	c0-1.2-0.2-2.4-0.8-3.4c-0.5-0.9-1.2-1.6-2.1-2c-0.9-0.5-1.8-0.8-2.8-1l-2.8-0.2v-0.3l1.9-0.2c0.7-0.2,1.4-0.4,2-0.8
	c0.7-0.4,1.3-1,1.7-1.7c0.4-0.9,0.6-1.9,0.6-2.9c0-1-0.2-2-0.6-2.9c-0.4-0.8-1.1-1.5-1.9-1.9c-0.9-0.4-2-0.6-3-0.6h-3.5
	c0-0.1,0-0.2-0.1-0.3c-0.1-0.3-0.2-0.6-0.3-0.9L428,335.7z"/>
<path class="st0" d="M429.7,363h-10.1l0.2-2h1.2c0.4,0,0.8-0.1,1.1-0.4c0.4-0.3,0.6-0.7,0.5-1.2v-20.9c0-0.5-0.2-0.9-0.5-1.2
	c-0.3-0.3-0.7-0.4-1.1-0.4h-1.2l-0.2-2h8.4c1.6-0.1,3.3,0.3,4.8,0.9c1.3,0.5,2.4,1.4,3.2,2.5c0.7,1.1,1.1,2.4,1,3.7
	c0,1.1-0.2,2.2-0.7,3.2c-0.4,0.9-1,1.6-1.7,2.2l-0.3,0.2c0.6,0.2,1.2,0.5,1.7,0.9c1.1,0.7,1.9,1.7,2.5,2.8c0.6,1.2,0.9,2.5,0.8,3.8
	c0.1,1.4-0.3,2.9-1.1,4.1c-0.8,1.3-2,2.2-3.4,2.8C433.2,362.7,431.5,363.1,429.7,363z M424.3,361.4h0.5v-1.3h0.3v-22.4h-0.8v1.6
	h-0.1v19.4h0.1V361.4z M433.8,349.1c0.7,0.5,1.4,1.1,1.8,1.9c0.6,1.2,0.9,2.5,0.9,3.8c0,1.3-0.3,2.5-0.8,3.7c-0.6,1-1.4,1.8-2.4,2.4
	l-0.6,0.2c0.5-0.1,1-0.3,1.5-0.5c1.1-0.5,2-1.2,2.7-2.2c0.6-1,0.9-2.1,0.9-3.3c0-1.1-0.3-2.1-0.7-3.1c-0.5-0.9-1.2-1.6-2-2.2
	C434.7,349.5,434.3,349.2,433.8,349.1L433.8,349.1z M426.7,360.1h2.9c1,0,2-0.2,2.9-0.6c0.8-0.4,1.4-1,1.8-1.8
	c0.4-0.9,0.6-1.9,0.6-2.9c0.1-1-0.2-2.1-0.7-3c-0.4-0.8-1-1.4-1.8-1.7c-0.8-0.4-1.6-0.7-2.5-0.9l-2.7-0.2h-0.5V360.1z M426.7,347.1
	h0.5l1.7-0.2c0.7-0.1,1.3-0.3,1.8-0.7c0.6-0.3,1.1-0.8,1.4-1.4c0.4-0.8,0.5-1.6,0.5-2.5c0-0.9-0.2-1.8-0.5-2.6
	c-0.4-0.6-0.9-1.1-1.5-1.5c-0.9-0.3-1.8-0.5-2.7-0.5h-1.2V347.1z M431.5,337c0.9,0.5,1.5,1.1,2,2c0.5,1,0.8,2.2,0.7,3.3
	c0,1.2-0.2,2.3-0.8,3.3c-0.2,0.4-0.5,0.8-0.8,1.1c0.4-0.1,0.7-0.3,1-0.6c0.5-0.4,1-1,1.3-1.6c0.4-0.8,0.6-1.6,0.6-2.5
	c0-1-0.3-2.1-0.9-2.9c-0.6-0.9-1.4-1.5-2.4-1.9L431.5,337z"/>
<path class="st0" d="M451.1,335.7v2.3H451c0-0.5-0.2-1-0.6-1.4c-0.4-0.3-0.9-0.5-1.4-0.5h-0.6v-0.4L451.1,335.7z M453.4,335.7v16.7
	c0,1.7,0.3,3.3,1,4.8c0.7,1.3,1.7,2.4,2.9,3.2c1.2,0.8,2.7,1.2,4.2,1.2c1.5,0,3.1-0.4,4.4-1.1c1.3-0.7,2.3-1.8,3-3.1
	c0.7-1.4,1-2.9,1-4.5v-17.2h1.8v17.2c0,1.8-0.4,3.6-1.3,5.1c-0.8,1.5-2,2.7-3.5,3.5c-1.7,0.8-3.5,1.2-5.4,1.2
	c-1.9,0-3.8-0.4-5.5-1.2c-1.5-0.8-2.8-2-3.7-3.4c-0.9-1.6-1.4-3.4-1.3-5.2v-17.2H453.4z M456.1,335.7v0.4h-0.6
	c-0.5,0-1.1,0.2-1.5,0.5c-0.4,0.4-0.6,0.9-0.6,1.4l0,0v-2.3L456.1,335.7z M470,335.7v2.3h-0.1c0-0.5-0.2-1-0.6-1.4
	c-0.4-0.3-0.9-0.5-1.4-0.5h-0.6v-0.4L470,335.7z M474.3,335.7v0.4h-0.6c-0.5,0-1,0.2-1.4,0.5c-0.4,0.4-0.6,0.9-0.6,1.4h-0.1v-2.3
	L474.3,335.7z"/>
<path class="st0" d="M461.5,363.5c-2,0.1-4.1-0.4-5.9-1.3c-1.6-0.8-3-2.1-4-3.7c-0.9-1.7-1.4-3.6-1.4-5.6V338c0-0.3-0.1-0.6-0.3-0.8
	c-0.3-0.2-0.6-0.3-0.9-0.3h-1.4v-2h9.2v2h-1.3c-0.3,0-0.7,0.1-0.9,0.3c-0.3,0.2-0.4,0.5-0.4,0.8v14.4c-0.1,1.5,0.3,3,1,4.4
	c0.5,1.2,1.4,2.2,2.5,2.9c1.1,0.7,2.5,1.1,3.8,1.1c1.4,0,2.8-0.3,4-1c1.1-0.7,2-1.7,2.7-2.8c0.6-1.3,0.9-2.7,0.9-4.1V338
	c0-0.3-0.1-0.6-0.3-0.8c-0.2-0.2-0.6-0.3-0.9-0.3h-1.4v-2h8.6v2h-1.4c-0.3,0-0.6,0.1-0.9,0.3c-0.2,0.2-0.3,0.5-0.3,0.8v14.9
	c0,1.9-0.5,3.8-1.4,5.5c-0.9,1.6-2.3,2.9-3.9,3.8C465.4,363.1,463.5,363.6,461.5,363.5z M451.8,338.8v14.1c0,1.7,0.4,3.3,1.2,4.8
	c0.8,1.3,1.9,2.4,3.3,3.1l0.4,0.2c-1.3-0.9-2.3-2.1-3-3.5c-0.7-1.6-1-3.3-1-5.1v-13.6h-0.1v-2.3h-0.7v2.3H451.8z M470.7,338.8v14.1
	c0,1.7-0.4,3.4-1.1,4.9c-0.2,0.4-0.5,0.8-0.8,1.1c0.4-0.4,0.7-0.8,0.9-1.3c0.8-1.4,1.2-3.1,1.2-4.7v-14.1h-0.1l0,0H470.7z"/>
<path class="st0" d="M491.8,335.2h1.3l1.4,0.2l1.2,0.3l0.8,0.3v4.2h-0.3c0.1-1.1-0.4-2.2-1.3-2.9c-0.9-0.7-1.9-1-3-1
	c-1.3-0.1-2.5,0.4-3.4,1.3c-0.8,0.8-1.3,1.9-1.3,3.1c0,0.6,0.1,1.1,0.4,1.6c0.2,0.7,0.6,1.3,1.2,1.8l7.4,6.9
	c0.7,0.6,1.2,1.4,1.5,2.3c0.3,0.8,0.4,1.6,0.4,2.4c0.1,1.9-0.6,3.7-1.9,5.1c-1.4,1.3-3.3,2-5.2,1.9h-2.1l-2.4-0.7
	c-0.7-0.3-1.4-0.7-1.9-1.2c-0.1-0.5-0.1-1.1-0.1-1.6c0-0.6,0-1.3,0.1-1.9c0.1-0.6,0.3-1.2,0.4-1.8h0.4c-0.2,1.2,0,2.3,0.5,3.4
	c0.4,0.9,1.1,1.7,2,2.1c0.9,0.5,1.9,0.8,2.9,0.7c1.3-0.1,2.6-0.6,3.6-1.4c1-1,1.6-2.3,1.5-3.7c0-0.7-0.1-1.4-0.4-2
	c-0.2-0.6-0.6-1.1-1.1-1.5l-7.2-6.7c-0.7-0.6-1.3-1.5-1.6-2.4c-0.8-1.7-0.7-3.7,0.3-5.4c0.5-1,1.2-1.8,2.2-2.4
	C489.2,335.5,490.5,335.2,491.8,335.2z M496.5,335.5v0.8h-2.9v-0.8H496.5z"/>
<path class="st0" d="M491,363.5c-0.7,0-1.5,0-2.2-0.2c-0.9-0.1-1.8-0.3-2.6-0.7c-0.8-0.3-1.6-0.8-2.2-1.4v-0.4
	c-0.1-0.6-0.1-1.1-0.1-1.7c0-0.7,0-1.3,0.1-2c0.1-0.6,0.3-1.3,0.5-1.9l0.2-0.6h1.8v0.9c-0.1,1,0,2,0.4,2.9c0.4,0.8,1,1.4,1.7,1.9
	c0.8,0.4,1.6,0.6,2.5,0.5c1.1,0,2.2-0.5,3.1-1.2c1.2-1.3,1.5-3.1,0.9-4.7c-0.2-0.5-0.5-1-0.9-1.3l-7.3-6.8c-0.8-0.7-1.4-1.6-1.8-2.6
	c-0.3-0.8-0.5-1.7-0.5-2.6c0-1.2,0.3-2.4,0.9-3.5c0.6-1.1,1.4-2.1,2.5-2.7c1.7-0.9,3.6-1.3,5.5-0.9l1.4,0.2h2.7v6.2h-1.9v-0.8
	c0.1-0.9-0.3-1.7-1-2.2c-0.7-0.6-1.6-0.9-2.5-0.9c-2.1-0.1-3.8,1.5-3.9,3.6c0,1.1,0.5,2.1,1.3,2.9l7.5,6.9c0.8,0.7,1.4,1.6,1.7,2.6
	c0.3,0.8,0.4,1.7,0.4,2.6c0.1,2.1-0.7,4.1-2.1,5.6C495.5,362.8,493.3,363.7,491,363.5z M487.5,337.6c-0.4,0.4-0.7,0.8-0.9,1.3
	c-0.5,0.8-0.7,1.8-0.7,2.7c0,0.7,0.1,1.4,0.4,2.1c0.3,0.8,0.8,1.5,1.4,2l7.3,6.7c0.5,0.5,1,1.1,1.3,1.8c0.3,0.7,0.4,1.5,0.4,2.3
	c0.1,1.6-0.6,3.2-1.8,4.2c-0.1,0.2-0.3,0.3-0.5,0.5c0.5-0.3,0.9-0.6,1.2-1c1.2-1.2,1.8-2.8,1.7-4.5c0-0.7-0.1-1.5-0.3-2.2
	c-0.3-0.7-0.7-1.4-1.3-1.9l-7.5-6.9c-0.6-0.6-1.1-1.3-1.4-2.1c-0.2-0.6-0.3-1.3-0.4-1.9C486.4,339.6,486.8,338.5,487.5,337.6z
	 M485.3,360.3l1.4,0.8c-0.6-0.5-1.1-1.1-1.4-1.8V360.3z"/>
<path class="st0" d="M511.6,338.5L511.6,338.5c-0.1-0.6-0.3-1.3-0.8-1.7c-0.4-0.5-1.1-0.7-1.7-0.7h-0.5v-0.4h3V338.5z M511.6,359.4
	v2.8h-3v-0.4h0.5c0.6,0,1.3-0.2,1.7-0.7C511.3,360.7,511.5,360,511.6,359.4L511.6,359.4z M514,335.7v26.5h-2.5v-26.5H514z
	 M513.9,338.5v-2.8h3v0.4h-0.5c-0.6,0-1.3,0.2-1.7,0.7C514.3,337.3,514,337.9,513.9,338.5L513.9,338.5z M513.9,359.4L513.9,359.4
	c0.1,0.6,0.4,1.2,0.8,1.7c0.4,0.5,1.1,0.7,1.7,0.7h0.5v0.4h-3V359.4z"/>
<path class="st0" d="M517.7,363h-9.9v-2h1.3c0.4,0,0.8-0.1,1.1-0.4c0.3-0.3,0.5-0.7,0.5-1.2v-20.9c0-0.4-0.2-0.9-0.5-1.2
	c-0.3-0.3-0.7-0.4-1.1-0.4h-1.3v-2h9.9v2h-1.3c-0.4,0-0.8,0.1-1.1,0.4c-0.3,0.3-0.5,0.8-0.5,1.2v20.9c0,0.5,0.2,0.9,0.5,1.2
	c0.3,0.3,0.7,0.4,1.1,0.4h1.3V363z M512.4,361.4h0.7v-2.7h0.1v-19.4h-0.1v-2.8h-0.7v2.8h-0.1v19.4h0.1V361.4z"/>
<path class="st0" d="M530,359.5v2.7h-3.1v-0.4h0.7c0.6,0,1.2-0.2,1.6-0.6C529.7,360.8,529.9,360.1,530,359.5L530,359.5z M530,335.1
	l1.6,2.1v25h-1.8v-22.3c0-1.6-0.1-3.2-0.3-4.8H530z M530,335.1l22,23.5l0.3,4.1l-22-23.4L530,335.1z M531.7,359.5
	c0,0.6,0.2,1.3,0.7,1.7c0.4,0.4,1,0.6,1.6,0.6h0.7v0.4h-3.1L531.7,359.5L531.7,359.5z M547.5,335.7h3.2v2.7h-0.1
	c0-0.6-0.2-1.3-0.7-1.7c-0.4-0.4-1-0.6-1.6-0.6h-0.8L547.5,335.7z M552.3,335.7v22.2c0,0.8,0,1.5,0.1,2.3c0,0.8,0.1,1.7,0.3,2.5
	h-0.4l-1.7-2v-25H552.3z M555.3,335.7v0.4h-0.6c-0.6,0-1.2,0.2-1.7,0.6c-0.4,0.5-0.7,1.1-0.7,1.7h-0.1v-2.7H555.3z"/>
<path class="st0" d="M553.3,364.9l-20.9-22.2v16.8c-0.1,0.8,0.5,1.4,1.3,1.5c0.1,0,0.1,0,0.2,0h1.5v2H526v-2h1.5
	c0.8,0.1,1.4-0.5,1.5-1.3c0-0.1,0-0.1,0-0.2v-19.6c0-1.6-0.1-3.1-0.3-4.7v-0.9h0.4v-1.4l20.8,22.3v-16.8c0-0.4-0.2-0.8-0.4-1.1
	c-0.3-0.3-0.7-0.4-1.1-0.4h-1.5v-2h9.3v2h-1.5c-0.4,0-0.8,0.1-1.1,0.4c-0.3,0.3-0.5,0.7-0.5,1.1v19.5c0,0.8,0,1.5,0.1,2.3
	c0,0.8,0.1,1.6,0.2,2.4l0.2,0.9h-0.4L553.3,364.9z M532.4,340.4l17.4,18.5v-1.4l-17.4-18.6V340.4z M530.8,358.7L530.8,358.7
	l0.1-17.7h-0.2v17.8L530.8,358.7z M551.4,356.8v-17.6h-0.1L551.4,356.8z"/>
<path class="st0" d="M568,338.5L568,338.5c-0.1-0.6-0.3-1.3-0.8-1.7c-0.4-0.5-1.1-0.7-1.7-0.7H565v-0.4h3V338.5z M568,359.4v2.8h-3
	v-0.4h0.5c0.6,0,1.3-0.2,1.7-0.7C567.7,360.7,567.9,360,568,359.4L568,359.4z M570.4,335.7v26.5h-2.5v-26.5H570.4z M580.6,335.7v1.2
	h-10.3v-1.2H580.6z M579,348.6v1.1h-8.7v-1.1H579z M580.6,361v1.2h-10.3V361H580.6z M582.9,356.1l-2.2,6.1h-6.3l1.4-1.2
	c1.1,0,2.3-0.2,3.3-0.6c0.8-0.4,1.5-1,2-1.7c0.6-0.8,1-1.7,1.4-2.6H582.9z M580.6,335v1.1l-4.6-0.4h1.8l1.7-0.3L580.6,335z
	 M579,346.2v2.5h-2.2c0.5,0,1-0.2,1.3-0.6c0.3-0.4,0.5-0.8,0.5-1.3v-0.5L579,346.2z M579,349.6v2.5h-0.4v-0.5c0-0.5-0.2-0.9-0.5-1.3
	c-0.3-0.4-0.8-0.6-1.3-0.6h2.2V349.6z M580.6,336.8v3h-0.4v-0.7c0-0.6-0.2-1.2-0.6-1.6c-0.4-0.4-1-0.6-1.6-0.7H580.6z"/>
<path class="st0" d="M581.4,363h-17.2v-2h1.3c0.4,0,0.8-0.1,1.1-0.4c0.3-0.3,0.5-0.7,0.5-1.2v-20.9c0.1-0.8-0.4-1.5-1.2-1.6
	c-0.1,0-0.3,0-0.4,0h-1.2l-0.2-2h13.6l1.6-0.3l1-0.2l1.1-0.5v6.8h-2v-1.5c0-0.4-0.1-0.7-0.4-1c-0.2-0.2-0.4-0.4-0.7-0.4h-7.1v10h5.6
	c0.3,0,0.6-0.2,0.7-0.4c0.2-0.2,0.3-0.4,0.3-0.7v-1.3h2v7.5h-2v-1.3c0-0.3-0.1-0.6-0.3-0.8c-0.2-0.2-0.4-0.3-0.7-0.3h-5.6v9.8h4.6
	c1,0,2-0.2,2.9-0.6c0.7-0.3,1.3-0.8,1.8-1.5c0.5-0.8,0.9-1.6,1.3-2.4l0.2-0.5h2l-2.6,7.4L581.4,363z M568.8,361.4h0.7v-1.1h0.1v-9.8
	h-0.1v-2.7h0.1v-10.1h-0.1v-1.2h-0.7v2.8h-0.1v19.4h0.1L568.8,361.4z"/>
<path class="st0" d="M600.2,335.2h1.3l1.3,0.2l1.2,0.3l0.9,0.3v4.2h-0.3c0-1.1-0.5-2.2-1.3-2.9c-0.9-0.7-1.9-1-3-1
	c-1.3-0.1-2.5,0.4-3.4,1.3c-0.8,0.8-1.3,1.9-1.3,3.1c0,0.5,0.1,1.1,0.3,1.6c0.3,0.7,0.7,1.3,1.2,1.8l7.5,6.9
	c0.7,0.6,1.2,1.4,1.5,2.3c0.3,0.8,0.4,1.6,0.4,2.4c0,1.9-0.6,3.7-1.9,5.1c-1.4,1.3-3.3,2-5.2,1.9h-2.1l-2.4-0.7
	c-0.7-0.3-1.4-0.7-1.9-1.2c-0.1-0.5-0.1-1.1-0.1-1.6c0-0.6,0-1.3,0.1-1.9c0.1-0.6,0.2-1.2,0.4-1.8h0.4c-0.2,1.2,0,2.3,0.5,3.4
	c0.4,0.9,1,1.6,1.9,2.1c0.9,0.5,2,0.8,3,0.7c1.3-0.1,2.6-0.6,3.6-1.4c1-1,1.6-2.3,1.5-3.7c0-0.7-0.1-1.4-0.4-2
	c-0.2-0.6-0.6-1.1-1.1-1.5l-7.3-6.7c-0.7-0.7-1.2-1.5-1.5-2.4c-0.3-0.7-0.5-1.5-0.5-2.3c0-1.1,0.2-2.2,0.8-3.1
	c0.5-1,1.2-1.8,2.2-2.4C597.6,335.5,598.9,335.2,600.2,335.2z M604.9,335.5v0.8H602v-0.8H604.9z"/>
<path class="st0" d="M599.4,363.5c-0.8,0-1.5,0-2.3-0.2c-0.9-0.1-1.7-0.3-2.5-0.7c-0.8-0.3-1.6-0.8-2.2-1.4l-0.2-0.2v-0.2
	c-0.1-0.6-0.1-1.1-0.1-1.7c0-0.7,0-1.3,0.1-2c0.1-0.6,0.3-1.3,0.5-1.9v-0.6h1.8v0.9c-0.1,1,0.1,2,0.5,2.9c0.4,0.8,0.9,1.4,1.6,1.9
	c0.8,0.4,1.7,0.6,2.6,0.5c1.1,0,2.2-0.5,3.1-1.2c1.2-1.3,1.5-3.1,0.9-4.7c-0.2-0.5-0.5-1-0.9-1.3l-7.3-6.8c-0.8-0.7-1.4-1.6-1.8-2.6
	c-0.8-2-0.6-4.2,0.3-6.1c0.6-1.1,1.5-2,2.6-2.7c1.7-0.9,3.6-1.3,5.5-0.9l1.4,0.2h2.7v6.2h-1.9v-0.8c0-0.8-0.3-1.7-1-2.2
	c-0.7-0.6-1.6-0.9-2.5-0.9c-2.1-0.1-3.8,1.5-3.9,3.6c0,1.1,0.5,2.1,1.3,2.9l7.4,6.9c0.8,0.7,1.5,1.6,1.8,2.6
	c0.2,0.8,0.4,1.7,0.4,2.6c0.1,2.1-0.7,4.1-2.2,5.6C603.6,362.8,601.5,363.6,599.4,363.5z M595.9,337.6c-0.4,0.4-0.7,0.8-0.9,1.3
	c-0.5,0.8-0.7,1.8-0.7,2.7c0,0.7,0.1,1.4,0.4,2.1c0.3,0.8,0.8,1.5,1.4,2l7.3,6.7c0.5,0.5,0.9,1.1,1.2,1.8c0.3,0.7,0.5,1.5,0.5,2.3
	c0.1,1.6-0.6,3.2-1.8,4.2c-0.1,0.2-0.3,0.3-0.5,0.5l1.2-1c1.2-1.2,1.8-2.8,1.7-4.5c0-0.7-0.1-1.5-0.3-2.2c-0.3-0.7-0.8-1.3-1.3-1.9
	l-7.5-6.9c-0.7-0.5-1.2-1.3-1.4-2.1c-0.3-0.6-0.4-1.2-0.4-1.9C594.8,339.6,595.2,338.5,595.9,337.6z M593.7,360.3l1.4,0.8
	c-0.6-0.5-1.1-1.1-1.5-1.8C593.6,359.7,593.7,360,593.7,360.3z"/>
<path class="st0" d="M624.2,335.2h1.3l1.4,0.2l1.2,0.3l0.9,0.3v4.2h-0.4c0.1-1.1-0.4-2.2-1.2-2.9c-0.9-0.6-2-1-3.1-1
	c-2.4-0.1-4.5,1.8-4.6,4.2c0,0.1,0,0.1,0,0.2c0,0.5,0.1,1.1,0.3,1.6c0.2,0.7,0.6,1.3,1.2,1.8l7.5,6.9c0.7,0.7,1.2,1.4,1.5,2.3
	c0.2,0.8,0.3,1.6,0.3,2.4c0.1,1.9-0.6,3.7-1.9,5.1c-1.4,1.3-3.2,2-5.1,1.9h-2.2l-2.4-0.7c-0.7-0.3-1.3-0.7-1.9-1.2
	c-0.1-0.5-0.1-1.1-0.1-1.6c0-0.6,0.1-1.3,0.2-1.9c0.1-0.6,0.2-1.2,0.4-1.8h0.3c-0.1,1.2,0.1,2.3,0.5,3.4c0.4,0.9,1.1,1.6,2,2.1
	c0.9,0.5,2,0.8,3,0.7c1.3-0.1,2.6-0.6,3.6-1.4c0.9-1,1.5-2.3,1.4-3.7c0-0.7-0.1-1.4-0.3-2c-0.3-0.5-0.7-1-1.1-1.5l-7.3-6.7
	c-0.7-0.6-1.3-1.5-1.6-2.4c-0.8-1.7-0.7-3.7,0.3-5.4c0.5-1,1.3-1.8,2.3-2.4C621.7,335.5,622.9,335.2,624.2,335.2z M629,335.5v0.8
	h-2.9v-0.8H629z"/>
<path class="st0" d="M623.5,363.5c-0.8,0-1.5,0-2.3-0.2c-0.9-0.1-1.8-0.3-2.6-0.7c-0.8-0.3-1.5-0.8-2.1-1.4l-0.2-0.2v-0.2
	c0-0.4-0.1-1-0.1-1.7c0-0.7,0.1-1.3,0.2-2c0.1-0.6,0.2-1.3,0.4-1.9l0.2-0.6h1.7v0.9c-0.1,1,0,2,0.4,2.9c0.4,0.8,1,1.4,1.7,1.9
	c0.8,0.4,1.6,0.6,2.5,0.5c1.1,0,2.2-0.4,3.1-1.2c0.9-0.8,1.4-1.9,1.3-3.1c0-0.6-0.1-1.1-0.4-1.6c-0.2-0.5-0.5-1-0.9-1.3l-7.2-6.8
	c-0.8-0.7-1.5-1.6-1.8-2.6c-0.3-0.8-0.5-1.7-0.5-2.6c-0.1-2.5,1.2-4.9,3.3-6.2c1.7-0.9,3.6-1.3,5.5-0.9l1.4,0.2h2.6v6.2h-1.9v-0.8
	c0.1-0.8-0.3-1.6-0.9-2.2c-0.7-0.6-1.7-0.9-2.6-0.9c-1-0.1-2.1,0.3-2.8,1.1c-0.7,0.7-1,1.6-1,2.5c0,0.5,0.1,0.9,0.2,1.4
	c0.2,0.6,0.6,1.1,1,1.5l7.5,6.9c0.8,0.7,1.4,1.6,1.7,2.6c0.3,0.8,0.4,1.7,0.4,2.6c0.1,2.1-0.7,4.1-2.1,5.6
	C627.7,362.7,625.6,363.6,623.5,363.5z M619.9,337.6l-0.9,1.3c-0.4,0.8-0.7,1.8-0.7,2.7c0.1,0.7,0.2,1.4,0.4,2.1
	c0.3,0.7,0.8,1.4,1.4,2l7.3,6.7c0.6,0.5,1,1.1,1.3,1.8c0.3,0.7,0.4,1.5,0.4,2.3c0.1,1.6-0.5,3.1-1.7,4.2l-0.6,0.5l1.3-1
	c1.2-1.2,1.8-2.8,1.7-4.5c0-0.7-0.2-1.5-0.4-2.2c-0.3-0.7-0.7-1.4-1.3-1.9l-7.4-6.9c-0.7-0.6-1.2-1.3-1.5-2.1
	c-0.2-0.6-0.3-1.3-0.3-1.9C618.9,339.6,619.2,338.5,619.9,337.6z M617.8,360.3c0.4,0.4,0.9,0.6,1.4,0.8c-0.6-0.5-1.1-1.1-1.5-1.8
	C617.7,359.6,617.7,360,617.8,360.3L617.8,360.3z"/>
<path class="st0" d="M681.2,351.2l-0.5,5.9c-0.6,1.1-1.4,2.1-2.4,2.9c-1.1,0.9-2.3,1.5-3.6,2c-1.5,0.5-3,0.7-4.6,0.7
	c-2.4,0-4.8-0.6-7-1.7c-2.1-1.1-3.7-2.7-4.8-4.8c-2.3-4.6-2.3-9.9,0-14.5c1.1-2.1,2.7-3.7,4.8-4.8c2.2-1.2,4.7-1.8,7.2-1.7
	c1.7,0,3.4,0.2,5.1,0.7c1.4,0.4,2.7,1,3.9,1.8l0.8,5.4h-0.4c-0.5-2.1-1.7-3.9-3.4-5.1c-1.8-1.1-3.9-1.7-6-1.7
	c-2-0.1-4.1,0.5-5.8,1.6c-1.6,1.1-2.9,2.6-3.7,4.4c-1.9,4.2-1.9,9,0,13.2c0.8,1.8,2.1,3.3,3.7,4.4c1.6,1.1,3.6,1.7,5.6,1.7
	c1.7,0,3.4-0.3,5-1c1.5-0.7,2.9-1.9,3.8-3.3c1.2-1.8,1.9-3.9,2-6.1L681.2,351.2z"/>
<path class="st0" d="M670.1,363.5c-2.6,0.1-5.1-0.6-7.4-1.8c-2.2-1.2-3.9-2.9-5.1-5.1c-1.2-2.4-1.9-5-1.8-7.7
	c-0.1-2.6,0.6-5.3,1.8-7.6c1.2-2.2,2.9-3.9,5.1-5.1c2.3-1.2,5-1.9,7.6-1.8c1.8-0.1,3.6,0.2,5.3,0.8c1.5,0.4,2.8,1.1,4.1,1.9l0.3,0.2
	l1,6.6h-1.9l-0.2-0.6c-0.4-1.9-1.4-3.5-3-4.6c-1.7-1.1-3.6-1.7-5.6-1.6c-1.9,0-3.7,0.5-5.3,1.4c-1.5,1-2.7,2.4-3.5,4.1
	c-1.7,4-1.7,8.6,0,12.6c0.8,1.6,1.9,3,3.4,4.1c1.5,1,3.4,1.5,5.2,1.5c1.6,0,3.2-0.3,4.7-0.9c1.4-0.6,2.6-1.7,3.5-3
	c1-1.8,1.6-3.8,1.8-5.8v-0.7h1.8l-0.5,6.9v0.2c-0.7,1.2-1.6,2.2-2.6,3.1c-1.1,0.9-2.4,1.6-3.8,2.1
	C673.4,363.3,671.8,363.6,670.1,363.5z M664,337.3l-0.6,0.3c-1.9,1-3.4,2.6-4.4,4.5c-2.1,4.3-2.1,9.4,0,13.7c1,1.9,2.6,3.5,4.5,4.5
	l0.7,0.4h-0.1c-1.8-1.2-3.2-2.8-4.1-4.8c-1-2.2-1.4-4.5-1.4-6.9c0-2.4,0.4-4.8,1.4-7C660.9,340.1,662.3,338.5,664,337.3L664,337.3z
	 M676.3,337.1l0.4,0.3c0.8,0.5,1.5,1.1,2,1.8v-1L676.3,337.1z"/>
<path class="st0" d="M694.5,338.5h-0.2c0-0.6-0.2-1.3-0.7-1.7c-0.4-0.5-1.1-0.7-1.7-0.7h-0.4v-0.4h3.1L694.5,338.5z M694.5,359.4
	v2.8h-3.1v-0.4h0.5c0.6,0,1.3-0.2,1.7-0.7c0.5-0.4,0.7-1.1,0.7-1.7L694.5,359.4z M696.8,335.7v26.5h-2.5v-26.5H696.8z M707,335.7
	v1.2h-10.3v-1.2H707z M705.4,348.6v1.1h-8.7v-1.1H705.4z M707,361v1.2h-10.3V361H707z M709.3,356.1l-2.2,6.1h-6.2l1.3-1.2
	c1.1,0,2.3-0.2,3.3-0.6c0.8-0.4,1.5-1,2.1-1.7c0.5-0.8,1-1.7,1.4-2.6H709.3z M707,335v1.1l-4.6-0.4h1.8l1.7-0.3L707,335z
	 M705.4,346.2v2.5h-2.2c0.5,0,1-0.2,1.3-0.6c0.3-0.4,0.5-0.8,0.5-1.3v-0.5L705.4,346.2z M705.4,349.6v2.5H705v-0.5
	c0-0.5-0.2-0.9-0.5-1.3c-0.3-0.4-0.8-0.6-1.3-0.6h2.2V349.6z M707,336.8v3h-0.3v-0.7c0-0.6-0.3-1.2-0.7-1.6c-0.4-0.4-1-0.6-1.6-0.7
	H707z"/>
<path class="st0" d="M707.8,363h-17.2v-2h1.3c0.4,0,0.8-0.1,1.1-0.4c0.4-0.3,0.6-0.7,0.5-1.2v-20.9c0.1-0.8-0.4-1.5-1.2-1.6
	c-0.1,0-0.3,0-0.4,0h-1.2v-2h13.5l1.6-0.3l1-0.2l1.1-0.5v6.8H706v-1.5c0-0.4-0.2-0.8-0.5-1c-0.2-0.2-0.4-0.4-0.7-0.4h-7.1v10h5.6
	c0.3,0,0.6-0.2,0.7-0.4c0.2-0.2,0.3-0.4,0.3-0.7v-1.3h2v7.5h-2v-1.3c0-0.3-0.1-0.6-0.3-0.8c-0.2-0.2-0.4-0.3-0.7-0.3h-5.6v9.8h4.6
	c1,0,2-0.2,2.9-0.6c0.7-0.3,1.4-0.8,1.8-1.5c0.6-0.7,1-1.5,1.3-2.4l0.2-0.5h2.1l-2.7,7.4L707.8,363z M695.2,361.4h0.7v-1.1h0.1v-9.8
	h-0.1v-2.7h0.1v-10.1h-0.1v-1.2h-0.7v2.8h-0.1v19.4h0.1V361.4z"/>
<path class="st0" d="M721.5,359.5v2.7h-3.1v-0.4h0.7c0.6,0,1.2-0.2,1.6-0.6C721.2,360.8,721.4,360.1,721.5,359.5L721.5,359.5z
	 M721.5,335.1l1.6,2.1v25h-1.8v-22.3c0-1.6-0.1-3.2-0.3-4.8H721.5z M721.5,335.1l22,23.5l0.3,4.1l-22-23.4L721.5,335.1z
	 M723.2,359.5c-0.1,1.2,0.7,2.2,1.9,2.3c0.1,0,0.3,0,0.4,0h0.7v0.4H723v-2.7H723.2z M739,335.7h3.2v2.7h-0.1c0-0.6-0.3-1.2-0.7-1.7
	c-0.4-0.4-1-0.6-1.6-0.6H739L739,335.7z M743.8,335.7v22.2c0,0.8,0,1.5,0.1,2.3c0,0.8,0.1,1.7,0.2,2.5h-0.3l-1.7-2v-25H743.8z
	 M746.8,335.7v0.4h-0.6c-0.6,0-1.2,0.2-1.7,0.6c-0.4,0.5-0.7,1.1-0.7,1.7h-0.1v-2.7H746.8z"/>
<path class="st0" d="M744.8,364.9l-20.9-22.2v16.8c-0.1,0.8,0.5,1.4,1.3,1.5c0.1,0,0.1,0,0.2,0h1.5v2h-9.4v-2h1.5
	c0.8,0.1,1.4-0.5,1.5-1.3c0-0.1,0-0.1,0-0.2v-19.6c0-1.6-0.1-3.1-0.3-4.7v-0.9h0.4v-1.4l20.8,22.3v-16.8c0-0.4-0.2-0.8-0.5-1.1
	c-0.3-0.3-0.6-0.4-1-0.4h-1.6v-2h9.4v2h-1.4c-0.4,0-0.8,0.1-1.1,0.4c-0.3,0.3-0.5,0.7-0.5,1.1v19.5c0,0.8,0,1.5,0.1,2.3
	c0,0.8,0.1,1.6,0.2,2.4l0.2,0.9h-0.5L744.8,364.9z M723.9,340.4l17.4,18.5v-1.4l-17.4-18.6V340.4z M722.3,358.7L722.3,358.7
	l0.1-17.7h-0.1v17.8V358.7z M742.9,356.8v-17.6h-0.1L742.9,356.8z"/>
<path class="st0" d="M755.4,335l1.1,0.3l1.7,0.2l1.8,0.2l-4.6,0.4V335z M777.3,335.7v1.1h-21.9v-1.1H777.3z M758,336.7L758,336.7
	c-0.6,0-1.2,0.2-1.6,0.7c-0.4,0.4-0.7,1-0.7,1.6v0.6h-0.3v-3L758,336.7z M765.2,359.4v2.8h-3v-0.4h0.5c0.6,0,1.3-0.2,1.7-0.7
	C764.8,360.6,765.1,360,765.2,359.4L765.2,359.4z M767.6,335.8v26.4h-2.5v-26.4L767.6,335.8z M767.4,359.4h0.2
	c0,0.6,0.2,1.3,0.7,1.7c0.4,0.5,1.1,0.7,1.7,0.7h0.5v0.4h-3.1L767.4,359.4z M777.3,335v1.1l-4.6-0.4l1.7-0.2l1.8-0.2L777.3,335z
	 M777.3,336.7v3h-0.4v-0.6c0.1-1.2-0.9-2.2-2.1-2.3c0,0-0.1,0-0.1,0L777.3,336.7L777.3,336.7z"/>
<path class="st0" d="M771.3,363h-9.9v-2h1.3c0.4,0,0.8-0.1,1.1-0.4c0.3-0.3,0.5-0.7,0.5-1.2v-21.8H758c-0.4,0-0.8,0.2-1.1,0.4
	c-0.3,0.3-0.4,0.7-0.4,1.1v1.3l-1.9,0.2v-6.8l1.1,0.4l1,0.3l1.6,0.3h16l1.7-0.3l1-0.2l1.1-0.5v6.8l-2-0.2v-1.3
	c0-0.4-0.1-0.8-0.4-1.1c-0.3-0.2-0.6-0.4-1-0.4h-6.3v21.8c-0.1,0.5,0.1,0.9,0.5,1.2c0.3,0.3,0.7,0.4,1.1,0.4h1.3L771.3,363z
	 M766,361.4h0.7v-2.7h0.1v-21.1h-0.9v21.1h0.1L766,361.4z"/>
<path class="st0" d="M789.4,338.5L789.4,338.5c-0.1-0.6-0.4-1.3-0.9-1.7c-0.4-0.5-1.1-0.7-1.7-0.7h-0.4v-0.4h3V338.5z M789.4,359.4
	v2.8h-3v-0.4h0.4c0.6,0,1.3-0.2,1.7-0.7C789,360.7,789.3,360,789.4,359.4L789.4,359.4z M791.7,335.7v26.5h-2.4v-26.5H791.7z
	 M796.6,335.7c1.1,0,2.1,0.2,3.1,0.5c0.9,0.3,1.7,0.8,2.3,1.4c0.6,0.7,1.1,1.4,1.5,2.2c0.3,1,0.5,2,0.5,3c0,1.2-0.3,2.4-0.9,3.5
	c-0.5,1.1-1.3,2-2.3,2.7c-1,0.7-2.1,1.1-3.3,1.1c0.6,0.2,1,0.5,1.4,1l1.4,1.6c0.5,0.9,1.1,1.7,1.8,2.5c0.5,0.8,1,1.4,1.5,2.1
	l1.4,1.7l1.5,1.4c0.5,0.5,1.1,0.8,1.7,1.1c0.6,0.2,1.3,0.3,1.9,0.3v0.4h-2c-1.1,0-2.1-0.2-3.1-0.5c-1.4-0.6-2.6-1.6-3.6-2.8
	c0-0.1-0.3-0.4-0.6-0.9l-1.2-1.7l-1.4-2c-0.4-0.6-0.8-1.2-1.2-1.7c-0.2-0.3-0.4-0.5-0.5-0.8c-0.5-0.6-1-1.2-1.6-1.7
	c-0.5-0.5-1.2-0.8-1.9-0.8v-0.4h2c0.7,0,1.4-0.1,2.1-0.3c0.8-0.2,1.6-0.6,2.2-1.1c0.8-0.7,1.3-1.6,1.6-2.6c0.1-0.3,0.2-0.7,0.2-1
	c0.1-0.4,0.1-0.8,0-1.2c0.1-1.5-0.4-2.9-1.3-4.1c-0.8-1.1-2.1-1.7-3.4-1.7c-0.7-0.1-1.4-0.1-2.1,0h-2.7c0-0.1,0-0.3-0.1-0.4
	c-0.1-0.3-0.2-0.6-0.3-0.8H796.6z M791.6,359.4L791.6,359.4c0.1,1.3,1.2,2.4,2.5,2.4c0,0,0.1,0,0.1,0h0.4v0.4h-3V359.4z"/>
<path class="st0" d="M810.9,363h-2.8c-1.2,0-2.3-0.2-3.4-0.6c-0.8-0.4-1.6-0.8-2.3-1.4c-0.6-0.6-1.2-1.1-1.6-1.6l-0.6-0.9l-1.3-1.8
	l-0.3-0.4c-0.3-0.6-0.7-1.1-1-1.6L797,354c-0.2-0.3-0.4-0.6-0.6-0.9v-0.2l-0.5-0.7c-0.4-0.6-0.9-1.1-1.5-1.6
	c-0.3-0.4-0.8-0.6-1.3-0.6h-0.5v9.4c0,0.5,0.2,0.9,0.5,1.2c0.3,0.3,0.8,0.4,1.2,0.4h1.2v2h-9.8v-2h1.2c0.4,0,0.9-0.1,1.2-0.4
	c0.3-0.3,0.5-0.7,0.5-1.2v-20.9c0-0.4-0.2-0.9-0.5-1.2c-0.3-0.3-0.8-0.4-1.2-0.4h-1.2v-2h11c1.1,0,2.2,0.2,3.3,0.5
	c1,0.3,1.9,0.9,2.6,1.6c0.8,0.7,1.4,1.6,1.7,2.6c0.4,1,0.6,2.1,0.6,3.2c0,1.4-0.4,2.7-1,3.9c-0.6,1.2-1.5,2.2-2.5,3
	c-0.6,0.4-1.2,0.7-1.8,0.9l0,0l1.4,1.6l1.7,2.6l1.5,2l1.4,1.6c0.4,0.5,0.9,1,1.4,1.4c0.4,0.4,0.9,0.7,1.5,0.9
	c0.5,0.2,1.1,0.3,1.6,0.3h0.8V363z M790.2,361.4h0.6v-2.7h0.1v-21h-0.1v-1.2h-0.5v2.8h-0.1v19.4h0.1L790.2,361.4z M796.3,350.4
	l0.8,0.9l0.5,0.7v0.2c0.2,0.3,0.4,0.6,0.6,0.9l0.6,0.7c0.3,0.5,0.7,1,1,1.6l0.3,0.4l1.2,1.8l0.7,0.8l1.3,1.4l1.9,1.2l0.9,0.2
	l-0.2-0.2c-0.6-0.4-1.1-0.9-1.6-1.5l-1.4-1.7l-1.6-2.1l-1.8-2.5c-0.4-0.5-0.8-1-1.2-1.5c-0.3-0.4-0.8-0.7-1.2-0.9L796.3,350.4z
	 M798.9,336.8c0.6,0.3,1.1,0.7,1.5,1.3c1.1,1.3,1.6,2.9,1.5,4.6v1.3c-0.1,0.4-0.2,0.8-0.2,1.2c-0.3,1.1-1,2.1-1.9,2.9
	c-0.6,0.5-1.3,0.9-2.1,1.2c0.9-0.1,1.8-0.4,2.6-0.9c0.9-0.6,1.6-1.5,2.1-2.5c0.5-1,0.8-2,0.8-3.1c0-0.9-0.2-1.8-0.5-2.7
	c-0.3-0.7-0.7-1.4-1.3-1.9c-0.5-0.6-1.2-1.1-2-1.3L798.9,336.8z M792.5,348.1h2.4c0.7,0,1.4-0.1,2.1-0.3c0.7-0.2,1.3-0.5,1.8-0.9
	c0.6-0.6,1.1-1.4,1.3-2.2c0.1-0.3,0.2-0.6,0.2-0.9c0-0.4,0-0.7,0-1.1c0.1-1.3-0.3-2.6-1.1-3.6c-0.7-0.9-1.7-1.4-2.8-1.4h-3.9V348.1z
	"/>
<path class="st0" d="M820,338.5h-0.2c0-0.6-0.2-1.3-0.7-1.7c-0.4-0.5-1.1-0.7-1.7-0.7H817v-0.4h3.1L820,338.5z M820,359.4v2.8h-3.1
	v-0.4h0.5c0.6,0,1.3-0.2,1.7-0.7c0.5-0.4,0.7-1.1,0.7-1.7L820,359.4z M822.3,335.7v26.5h-2.5v-26.5H822.3z M832.5,335.7v1.2h-10.3
	v-1.2H832.5z M830.9,348.6v1.1h-8.7v-1.1H830.9z M832.5,361v1.2h-10.3V361H832.5z M834.8,356.1l-2.2,6.1h-6.2l1.3-1.2
	c1.1,0.1,2.3-0.2,3.3-0.6c0.8-0.4,1.5-1,2.1-1.7c0.5-0.8,1-1.7,1.4-2.6H834.8z M832.5,335v1.1l-4.6-0.4h1.8l1.7-0.3L832.5,335z
	 M830.9,346.2v2.5h-2.2c0.5,0,1-0.2,1.3-0.6c0.3-0.4,0.5-0.8,0.5-1.3v-0.5L830.9,346.2z M830.9,349.6v2.5h-0.4v-0.5
	c0-0.5-0.2-0.9-0.5-1.3c-0.3-0.4-0.8-0.6-1.3-0.6h2.2V349.6z M832.5,336.8v3h-0.3v-0.7c0-0.6-0.3-1.2-0.7-1.6
	c-0.4-0.4-1-0.6-1.6-0.7H832.5z"/>
<path class="st0" d="M833.3,363h-17.2v-2h1.3c0.4,0,0.8-0.1,1.1-0.4c0.4-0.3,0.6-0.7,0.5-1.2v-20.9c0.1-0.8-0.4-1.5-1.2-1.6
	c-0.1,0-0.3,0-0.4,0h-1.2v-2h13.5l1.6-0.3l1-0.2l1.1-0.5v6.8h-1.9v-1.5c0-0.4-0.2-0.8-0.5-1c-0.2-0.2-0.4-0.4-0.7-0.4h-7.1v10h5.5
	c0.3,0,0.6-0.2,0.7-0.4c0.2-0.2,0.3-0.4,0.3-0.7v-1.3h2v7.5h-2v-1.3c0-0.3-0.1-0.6-0.3-0.8c-0.2-0.2-0.4-0.3-0.7-0.3h-5.6v9.8h4.6
	c1,0,2-0.2,2.9-0.6c0.7-0.3,1.4-0.8,1.8-1.5c0.6-0.7,1-1.5,1.3-2.4l0.2-0.5h2.1l-2.7,7.4V363z M820.7,361.4h0.7v-1.1h0.1v-9.8h-0.1
	v-2.7h0.1v-10.1h-0.1v-1.2h-0.7v2.8h-0.1v19.4h0.1V361.4z"/>
<path class="st0" d="M0,299.7l54-0.4l53.9-0.4l108-0.4c35.9-0.2,71.9-0.2,107.9-0.3h269.8l53.9,0.2l108,0.4l53.9,0.4l27,0.2l27,0.2
	l-27,0.2l-27,0.2l-53.9,0.4l-108,0.4l-53.9,0.2H323.8c-36-0.1-72-0.1-107.9-0.3l-108-0.4L54,299.9L0,299.7z"/>
<path class="st0" d="M0,398l54-0.4l53.9-0.4l108-0.4c35.9-0.2,71.9-0.2,107.9-0.3h269.8l53.9,0.2l108,0.4l53.9,0.4l27,0.2l27,0.2
	l-27,0.3h-27l-53.9,0.4l-108,0.4l-53.9,0.2H323.8c-36-0.1-72-0.1-107.9-0.3l-108-0.4L54,398.1L0,398z"/>
<path class="st0" d="M419,62.8h-3.2c-2.5,0-4.9,0.9-6.8,2.6c-1.9,1.5-2.9,3.8-2.9,6.2v72.9c0,15.3-4.8,27.4-14.4,36.4
	c-9.6,9-22.7,13.4-39.4,13.4c-19.7,0-34.7-4.4-45.2-13.1s-15.7-21-15.7-36.5V72.2c0.1-2.6-1-5-2.9-6.7c-1.9-1.8-4.4-2.8-7-2.7h-3V61
	h53.8v1.8h-3c-2.5,0-5,0.9-6.9,2.6c-1.9,1.6-3,3.9-3,6.4v71.4c0,13.2,3.3,23.6,9.7,31.3s15.4,11.6,26.7,11.6
	c11.3,0,20.3-3.6,26.9-10.9c6.6-7.3,10-17.2,10.1-29.6V71.8c0.1-2.5-1-4.8-2.9-6.4c-1.9-1.7-4.4-2.7-7-2.6h-3V61H419V62.8z"/>
<path class="st0" d="M501.2,69.2h-8.6v108.9c-0.1,4.3,2.2,8.3,6,10.3c1.8,1,3.8,1.5,5.9,1.5h2.5v1.8h-56.8v-1.8h2.4
	c4.2,0.1,8.2-2.1,10.3-5.8c1-1.8,1.6-3.8,1.7-5.8V74.6c-0.1-3.1-1.5-6.1-3.7-8.3c-2.2-2.3-5.2-3.5-8.3-3.5h-2.4V61h64.1
	c12,0,22.2,2.6,30.6,7.8c4.3,2.7,7.7,6.4,10.1,10.9c2.5,4.9,3.8,10.4,3.7,15.9c0.1,5.6-1,11.2-3.1,16.4c-2.2,5.1-5.7,9.6-10.2,13
	c-5,3.8-11,6.2-17.3,6.8c7.2,2.3,13.5,7.8,19,16.4c13.5,21.5,23.4,34.4,29.9,38.5c3.2,2,7.3,3,12.2,3.2v1.8h-18.4
	c-10.5,0-19.4-1.4-26.5-4.4c-7.2-3-13.3-8.3-17.3-15c-3.2-5.3-6.1-10.7-8.6-16.3c-3.5-7.3-5.8-12.5-7-15.6
	c-3.3-7.5-7.5-11.7-12.7-12.6V126h5.8c5.4,0.1,10.7-1.7,14.9-5.1c4.3-3.3,7.2-8.8,8.7-16.4c0.4-2,0.7-4.1,0.7-6.2
	c0-10.2-2-17.6-6.1-22.1c-4-4.5-9.8-7.1-15.9-7L501.2,69.2z"/>
<path class="st0" d="M727.9,62.8h-2.6c-3.8,0-7.4,1.1-10.6,3.2c-3.2,1.9-6,4.6-8.1,7.7l-36.8,58.6v45.8c0,3.2,1.3,6.2,3.6,8.3
	c2.2,2.2,5.2,3.5,8.4,3.5h2.2l0.2,1.8h-56.8v-1.8h2.5c3.1,0,6.1-1.2,8.3-3.4c2.3-2.1,3.6-5.1,3.6-8.2v-46.2l-35.7-58.6
	c-2-3.1-4.7-5.7-7.9-7.6c-3.2-2-6.8-3-10.5-3.1H585V61h61.9v1.8h-2.5c-2.7,0-5.1,1.4-6.3,3.8c-0.7,1.2-1.1,2.6-1.1,4
	c0,1.3,0.3,2.6,0.9,3.8l26.7,48.6l27.7-48.6c0.7-1.1,1.1-2.5,1.1-3.8c-0.4-4.1-3.6-7.3-7.7-7.8h-2.2V61h44.4V62.8z"/>
<path class="st0" d="M858.5,189.9h1.7v1.8h-59.6v-1.8h1.7c2.3,0.2,4.5-0.8,6-2.6c1.2-1.3,1.9-2.9,2-4.7c0-1.5-0.3-3.1-0.9-4.5
	l-9.2-23h-43.7l-9.7,23c-0.6,1.5-0.9,3-0.9,4.6c0.1,1.7,0.8,3.3,1.9,4.6c1.3,1.7,3.4,2.6,6.3,2.6h1.5v1.8h-40v-1.8h1.7
	c3.1-0.1,6-1,8.6-2.7c3-1.9,5.5-4.6,7.1-7.8l43.1-97.7c5.9-12.3,9-20.5,9.4-24.5h1.6L842.6,179c1.6,3.3,4.1,6.1,7.1,8.1
	C852.3,188.9,855.4,189.9,858.5,189.9z M759.7,147.3H797l-18.1-46L759.7,147.3z"/>
<path class="st0" d="M129.6,241.1C68.1,241.1,18,191,18,129.4C18.1,67.8,68.1,17.8,129.7,17.9S241.3,68,241.2,129.6
	C241.1,191.2,191.2,241.1,129.6,241.1z M129.6,25.1C72,25.1,25.3,71.8,25.3,129.4S72,233.7,129.6,233.7S233.9,187,233.9,129.4
	C233.8,71.8,187.2,25.2,129.6,25.1z"/>
<path class="st0" d="M185,149.4c-0.1,5.5-1.2,11-3.4,16.1c-2.4,5.9-6,11.3-10.6,15.7c-5.5,5.1-12,9.1-19,11.7
	c-8,3.1-16.6,4.6-25.2,4.5c-8.4,0.2-16.7-1.3-24.5-4.3c-13.6-5.4-22.4-14.8-26.5-28.2c-1-3.3-1.5-6.7-1.6-10.2
	c0-10.3,3.3-20.3,9.3-28.6l1.6,1.3c-3.8,6.9-5.8,13.5-5.8,19.9c-0.1,7.5,1.9,14.8,6,21.1c4,6,9.5,10.9,15.9,14.2
	c6.3,3.2,13.3,4.9,20.4,5c7,0,12.9-1.1,17.7-3.3c4.3-1.9,7.9-5,10.5-8.9c2.1-3.6,3.3-7.6,3.3-11.8c0-4.1-1.5-8.2-4.4-12.5
	s-7.2-8-13-11.1l-28.5-16.8c-14.5-8.6-21.7-19.5-21.7-33c0-12,4.2-21.3,12.6-27.8s16.5-8.3,28.5-8.3c7.7,0,17.6,0.6,29.5,1.8h13.6
	l-3.6,28.5h-1.8c0.2-6.1-2.6-11.9-7.5-15.6c-5.1-3.9-11.5-5.9-19.3-5.9s-13.8,1.3-18,4s-6.5,6.3-6.9,10.7c-0.4,2.8,0.5,5.6,2.5,7.7
	c1.5,1.7,3.3,3.1,5.2,4.3l4.8,2.7l2.9,1.6l32.8,18.7c6.9,3.6,12.8,8.9,17.2,15.3C182.6,134.8,185,142,185,149.4z"/>
<path class="st0" d="M123.1,258.9c-1.8-0.1-3.1-1.6-3-3.4c0,0,0,0,0,0l0,0c0.1-1.7,1.6-3.1,3.3-3l0,0c1.7,0.1,3.1,1.6,3.1,3.3l0,0
	c-0.1,1.7-1.5,3.1-3.2,3.1L123.1,258.9L123.1,258.9z M132.9,255.8c-0.1-1.7,1.3-3.2,3-3.3l0,0c1.8-0.1,3.3,1.2,3.4,3c0,0,0,0,0,0
	l0,0c0.1,1.7-1.2,3.2-2.9,3.3c-0.1,0-0.1,0-0.2,0h-0.1C134.4,258.8,133,257.5,132.9,255.8z M110.1,257.5c-1.7-0.2-2.9-1.7-2.7-3.4
	c0-0.1,0-0.1,0-0.2l0,0c0.3-1.7,1.9-2.8,3.6-2.6l0,0c1.7,0.2,2.9,1.7,2.7,3.4c0,0.1,0,0.1,0,0.2l0,0c-0.3,1.5-1.6,2.6-3.1,2.7h-0.5
	V257.5z M145.7,254.9c-0.3-1.7,0.9-3.4,2.6-3.7l0,0c1.8-0.2,3.4,1,3.7,2.7l0,0c0.2,1.7-1,3.3-2.7,3.6h-0.5
	C147.3,257.5,145.9,256.4,145.7,254.9L145.7,254.9z M97.2,254.9L97.2,254.9c-1.7-0.4-2.7-2.2-2.3-3.9c0,0,0,0,0,0l0,0
	c0.4-1.7,2.1-2.7,3.8-2.2c0,0,0.1,0,0.1,0l0,0c1.7,0.4,2.7,2.1,2.3,3.7c0,0,0,0.1,0,0.1l0,0c-0.4,1.4-1.6,2.4-3.1,2.4L97.2,254.9
	L97.2,254.9z M158.3,252.6c-0.4-1.7,0.6-3.5,2.3-3.9c0,0,0,0,0,0l0,0c1.7-0.4,3.3,0.6,3.8,2.2c0,0,0,0.1,0,0.1l0,0
	c0.5,1.6-0.4,3.4-2.1,3.9c0,0-0.1,0-0.1,0h-0.8C160,254.9,158.7,254,158.3,252.6L158.3,252.6z M84.7,251c-1.6-0.5-2.5-2.3-2-3.9
	c0-0.1,0-0.1,0.1-0.2l0,0c0.6-1.7,2.4-2.5,4.1-1.9l0,0c1.6,0.7,2.4,2.4,1.9,4.1l0,0c-0.5,1.3-1.7,2.1-3,2.1l0,0L84.7,251z
	 M170.6,249.1c-0.6-1.6,0.1-3.4,1.7-4c0.1,0,0.1,0,0.2-0.1l0,0c1.7-0.6,3.5,0.2,4.1,1.9l0,0c0.5,1.7-0.3,3.4-1.9,4.1l0,0l-1.1,0.2
	l0,0C172.3,251.2,171.1,250.4,170.6,249.1z M72.6,245.8c-1.5-0.7-2.2-2.4-1.5-4c0-0.1,0.1-0.2,0.1-0.2l0,0c0.7-1.6,2.5-2.3,4.1-1.5
	c0,0,0.1,0,0.1,0l0,0c1.6,0.8,2.2,2.7,1.5,4.3l0,0c-0.6,1.1-1.7,1.8-2.9,1.8l0,0C73.5,246.2,73,246.1,72.6,245.8z M182.5,244.3
	c-0.8-1.5-0.2-3.4,1.3-4.2c0,0,0,0,0.1,0l0,0c1.6-0.8,3.5-0.2,4.3,1.4l0,0c0.8,1.6,0.1,3.5-1.5,4.3c0,0,0,0,0,0l0,0
	c-0.4,0.2-0.9,0.3-1.4,0.3l0,0C184.1,246.1,183,245.4,182.5,244.3z M61.1,239.5L61.1,239.5c-1.4-1-1.9-2.9-1-4.4l0,0
	c0.9-1.5,2.8-2,4.2-1.1c0.1,0,0.1,0.1,0.2,0.1l0,0c1.4,0.8,1.9,2.6,1.1,4.1c0,0.1-0.1,0.1-0.1,0.2l0,0c-0.6,0.9-1.6,1.5-2.7,1.5l0,0
	C62.2,239.9,61.6,239.8,61.1,239.5z M193.8,238.4c-0.9-1.5-0.5-3.5,1-4.4l0,0c1.5-0.9,3.5-0.5,4.4,1l0,0c0.9,1.5,0.5,3.5-1,4.4l0,0
	c-0.5,0.3-1.1,0.5-1.7,0.5l0,0C195.4,239.9,194.4,239.3,193.8,238.4L193.8,238.4z M50.4,232c-1.4-1.1-1.7-3.1-0.6-4.5c0,0,0,0,0,0
	l0,0c1.1-1.4,3.1-1.6,4.5-0.6l0,0c1.3,1.1,1.6,3.1,0.5,4.5l0,0c-0.6,0.8-1.5,1.2-2.5,1.2l0,0C51.6,232.6,51,232.4,50.4,232L50.4,232
	z M204.5,231.3c-1.1-1.3-0.8-3.3,0.5-4.4c0,0,0,0,0.1,0l0,0c1.3-1.1,3.3-0.9,4.4,0.5c0,0,0,0,0,0l0,0c1.1,1.4,0.8,3.4-0.5,4.5l0,0
	c-0.6,0.4-1.3,0.6-2,0.6l0,0C206,232.5,205.1,232.1,204.5,231.3z M40.4,223.4c-1.3-1.2-1.3-3.2-0.1-4.5l0,0c1.2-1.2,3.2-1.3,4.5-0.1
	l0,0c1.3,1.2,1.3,3.2,0.1,4.5l0,0c-0.6,0.7-1.4,1-2.3,1l0,0C41.8,224.3,41,224,40.4,223.4L40.4,223.4z M214.4,223.2
	c-1.2-1.3-1.1-3.3,0.1-4.5l0,0c1.3-1.2,3.3-1.1,4.5,0.1l0,0c1.2,1.3,1.2,3.3-0.1,4.5l0,0c-0.6,0.6-1.4,0.9-2.2,0.9l0,0
	C215.8,224.2,215,223.9,214.4,223.2L214.4,223.2z M31.4,213.9c-1.2-1.3-1-3.3,0.3-4.5l0,0c1.4-1.1,3.4-1,4.5,0.4l0,0
	c1.1,1.3,0.9,3.3-0.4,4.4c0,0,0,0,0,0l0,0c-0.5,0.5-1.3,0.8-2,0.8l0,0C32.9,215,32,214.6,31.4,213.9L31.4,213.9z M223.5,214.1
	c-1.3-1.1-1.5-3-0.4-4.4c0,0,0,0,0,0l0,0c1.1-1.4,3.1-1.5,4.5-0.4l0,0c1.3,1.2,1.5,3.1,0.4,4.5l0,0c-0.7,0.7-1.6,1.1-2.5,1.1l0,0
	C224.8,214.9,224,214.6,223.5,214.1z M23.3,203.5c-1-1.4-0.6-3.4,0.8-4.4l0,0c1.4-1,3.4-0.6,4.4,0.8l0,0c1,1.4,0.7,3.3-0.7,4.3
	c0,0-0.1,0-0.1,0.1l0,0c-0.5,0.4-1.1,0.6-1.8,0.6l0,0C24.9,204.9,23.9,204.4,23.3,203.5z M231.6,204.2c-1.4-0.9-1.8-2.9-0.9-4.3
	c0,0,0-0.1,0.1-0.1l0,0c1-1.4,3-1.8,4.4-0.8l0,0c1.4,1,1.8,3,0.8,4.4l0,0c-0.6,0.9-1.6,1.4-2.6,1.4l0,0
	C232.7,204.8,232.1,204.6,231.6,204.2L231.6,204.2z M16.3,192.4L16.3,192.4c-0.8-1.5-0.3-3.4,1.2-4.2c0,0,0.1,0,0.1-0.1l0,0
	c1.5-0.9,3.4-0.4,4.2,1.1c0,0,0,0.1,0.1,0.1l0,0c0.9,1.5,0.4,3.5-1.2,4.4c0,0,0,0,0,0l0,0c-0.5,0.2-1,0.4-1.6,0.4l0,0
	C17.9,194.1,16.9,193.4,16.3,192.4z M238.6,193.5c-1.5-0.8-2.1-2.7-1.3-4.2c0,0,0-0.1,0.1-0.1l0,0c0.8-1.5,2.7-2.1,4.2-1.3
	c0,0,0.1,0,0.1,0.1l0,0c1.5,0.8,2.1,2.7,1.3,4.2c0,0,0,0.1-0.1,0.1l0,0c-0.5,1-1.6,1.6-2.7,1.6l0,0
	C239.6,193.9,239.1,193.8,238.6,193.5L238.6,193.5z M10.6,180.7c-0.7-1.6,0-3.5,1.6-4.2l0,0c1.6-0.7,3.5,0,4.2,1.6l0,0
	c0.7,1.6-0.1,3.5-1.7,4.2c0,0,0,0,0,0l0,0c-0.4,0.2-0.8,0.3-1.2,0.3l0,0C12.2,182.6,11.1,181.9,10.6,180.7L10.6,180.7z M244.5,182.2
	c-1.6-0.7-2.3-2.6-1.6-4.2l0,0c0.7-1.6,2.6-2.3,4.2-1.6l0,0c1.5,0.6,2.3,2.3,1.7,3.9c0,0.1-0.1,0.1-0.1,0.2l0,0
	c-0.5,1.2-1.6,1.9-2.9,1.9l0,0C245.4,182.4,244.9,182.4,244.5,182.2L244.5,182.2z M6,168.3c-0.5-1.6,0.4-3.4,2-3.9c0,0,0,0,0.1,0
	l0,0c1.6-0.5,3.4,0.4,3.9,2l0,0c0.6,1.6-0.3,3.4-1.9,4c0,0-0.1,0-0.1,0l0,0l-1,0.2l0,0C7.6,170.6,6.4,169.6,6,168.3z M249.3,170.3
	c-1.7-0.5-2.6-2.3-2.1-4l0,0c0.5-1.7,2.3-2.6,4-2.1l0,0c1.7,0.5,2.6,2.3,2.1,4l0,0c-0.4,1.3-1.6,2.2-3,2.2h-1V170.3z M2.7,155.6
	c-0.4-1.6,0.6-3.2,2.2-3.6c0.1,0,0.2,0,0.3-0.1l0,0c1.6-0.4,3.2,0.6,3.6,2.2c0,0.1,0,0.2,0.1,0.3l0,0c0.4,1.6-0.6,3.2-2.2,3.6
	c-0.1,0-0.2,0-0.3,0.1H5.8C4.3,158.1,3,157.1,2.7,155.6z M252.8,158c-1.7-0.4-2.8-2.1-2.5-3.8l0,0c0.4-1.7,2.1-2.8,3.8-2.5l0,0
	c1.7,0.4,2.8,2.1,2.5,3.8l0,0c-0.3,1.5-1.6,2.5-3.1,2.5H252.8L252.8,158z M0.7,142.7c-0.2-1.8,1.1-3.3,2.9-3.5c0,0,0,0,0,0l0,0
	c1.7-0.2,3.2,1.1,3.4,2.8c0,0,0,0,0,0l0,0c0.2,1.7-1.1,3.3-2.8,3.5H3.9C2.3,145.5,0.9,144.3,0.7,142.7z M255.1,145.4
	c-1.8-0.2-3.1-1.7-2.9-3.5c0,0,0,0,0,0l0,0c0.2-1.8,1.7-3.1,3.5-2.9c0,0,0,0,0,0l0,0c1.7,0.2,3,1.8,2.8,3.5l0,0
	c-0.1,1.6-1.5,2.9-3.1,2.9H255.1z M0,129.6c0-1.8,1.4-3.2,3.2-3.2h0l0,0c1.8,0,3.2,1.4,3.2,3.2l0,0l0,0c0,1.8-1.4,3.2-3.2,3.2h0l0,0
	C1.5,132.7,0.1,131.3,0,129.6z M252.8,129.4L252.8,129.4v-0.2l0,0c0.1-1.7,1.5-3.1,3.2-3.1l0,0c1.7-0.1,3.1,1.3,3.2,3
	c0,0,0,0.1,0,0.1l0,0v0.2l0,0c0,1.8-1.4,3.2-3.2,3.2h0l0,0C254.2,132.6,252.8,131.2,252.8,129.4L252.8,129.4z M3.5,120
	c-1.7-0.2-3-1.8-2.8-3.5l0,0c0.1-1.7,1.6-3,3.3-2.9c0.1,0,0.2,0,0.2,0l0,0c1.7,0.2,3,1.8,2.8,3.5l0,0c-0.2,1.6-1.5,2.9-3.2,2.9H3.5z
	 M252.2,116.7c-0.2-1.7,1.1-3.3,2.8-3.5l0,0c1.7-0.2,3.3,1.1,3.5,2.8l0,0c0.2,1.7-1,3.3-2.7,3.5c0,0-0.1,0-0.1,0h-0.4
	C253.7,119.5,252.4,118.3,252.2,116.7z M5.1,107.2c-1.7-0.4-2.8-2-2.5-3.7l0,0c0.4-1.7,2.1-2.8,3.8-2.5l0,0c1.7,0.4,2.8,2.1,2.5,3.8
	l0,0c-0.3,1.5-1.6,2.5-3.1,2.5L5.1,107.2L5.1,107.2z M250.3,104.4c-0.4-1.7,0.6-3.3,2.3-3.8c0.1,0,0.2,0,0.2,0l0,0
	c1.7-0.4,3.3,0.7,3.7,2.4c0,0,0,0.1,0,0.1l0,0c0.4,1.6-0.6,3.2-2.2,3.6c-0.1,0-0.2,0-0.3,0.1h-0.6
	C251.9,106.8,250.6,105.8,250.3,104.4L250.3,104.4z M8,94.8c-1.7-0.5-2.6-2.3-2.1-4l0,0c0.5-1.7,2.3-2.6,4-2.1l0,0
	c1.7,0.5,2.6,2.3,2.1,4l0,0c-0.5,1.3-1.7,2.2-3.1,2.2H8V94.8z M247.1,92.3c-0.5-1.7,0.4-3.5,2.1-4l0,0c1.7-0.5,3.5,0.4,4,2.1l0,0
	c0.5,1.7-0.5,3.4-2.1,4h-0.9C248.8,94.4,247.6,93.6,247.1,92.3L247.1,92.3z M12.1,82.6c-1.6-0.6-2.4-2.4-1.7-4c0,0,0,0,0-0.1l0,0
	c0.7-1.6,2.6-2.4,4.2-1.7c0,0,0,0,0,0l0,0c1.6,0.7,2.4,2.6,1.7,4.2c0,0,0,0,0,0l0,0c-0.5,1.2-1.6,1.9-2.9,1.9l0,0
	C12.9,82.9,12.5,82.8,12.1,82.6L12.1,82.6z M242.8,80.6c-0.7-1.6,0-3.5,1.6-4.2l0,0c1.6-0.7,3.5,0.1,4.2,1.7c0,0,0,0,0,0l0,0
	c0.7,1.6,0,3.5-1.6,4.2l0,0l-1.3,0.2l0,0C244.4,82.5,243.3,81.8,242.8,80.6L242.8,80.6z M17.5,71c-1.5-0.8-2.1-2.8-1.3-4.3l0,0
	c0.8-1.5,2.8-2.1,4.3-1.3l0,0c1.5,0.9,2.1,2.8,1.3,4.4l0,0c-0.6,1-1.7,1.6-2.8,1.6l0,0C18.5,71.4,17.9,71.3,17.5,71L17.5,71z
	 M237.3,69.4c-0.9-1.5-0.4-3.4,1.1-4.2c0,0,0.1,0,0.1-0.1l0,0c1.5-0.9,3.4-0.4,4.2,1.1c0,0,0,0.1,0.1,0.1l0,0
	c0.9,1.5,0.4,3.4-1.1,4.2c0,0-0.1,0-0.1,0.1l0,0c-0.5,0.3-1,0.4-1.6,0.4l0,0C238.9,71,237.8,70.4,237.3,69.4L237.3,69.4z M23.9,60
	c-1.4-1.1-1.7-3-0.8-4.5l0,0c1-1.4,3-1.8,4.5-0.8l0,0c1.4,1,1.8,3,0.8,4.5l0,0c-0.6,0.9-1.6,1.3-2.6,1.3l0,0
	C25.1,60.5,24.5,60.3,23.9,60L23.9,60z M230.6,58.8c-1-1.4-0.6-3.4,0.8-4.4l0,0c1.4-1,3.4-0.6,4.4,0.8l0,0c1,1.4,0.7,3.3-0.7,4.3
	c0,0-0.1,0-0.1,0.1l0,0c-0.5,0.4-1.1,0.6-1.8,0.6l0,0C232.2,60.2,231.2,59.7,230.6,58.8z M31.5,49.6c-1.3-1.2-1.5-3.2-0.3-4.5l0,0
	c1.2-1.3,3.2-1.4,4.5-0.3l0,0C37,46,37.2,48,36,49.3l0,0c-0.6,0.7-1.5,1.1-2.4,1.1l0,0C32.8,50.4,32.1,50.1,31.5,49.6L31.5,49.6z
	 M223,49c-1.2-1.3-1-3.3,0.3-4.5l0,0c1.3-1.1,3.3-1,4.5,0.3l0,0c1.1,1.4,1,3.4-0.4,4.5l0,0c-0.6,0.5-1.3,0.8-2,0.8l0,0
	C224.5,50.1,223.6,49.7,223,49L223,49z M40.1,40.1c-1.2-1.3-1.2-3.3,0.1-4.5l0,0c1.3-1.2,3.3-1.1,4.5,0.1l0,0
	c1.2,1.3,1.2,3.3-0.1,4.5l0,0c-0.6,0.6-1.4,0.9-2.2,0.9l0,0C41.5,41.1,40.7,40.8,40.1,40.1z M214.3,40c-1.2-1.2-1.3-3.2-0.1-4.5l0,0
	c1.2-1.3,3.2-1.4,4.5-0.2l0,0c1.3,1.2,1.3,3.2,0.1,4.5l0,0c-0.6,0.7-1.4,1-2.3,1l0,0C215.7,40.8,214.9,40.5,214.3,40L214.3,40z
	 M49.6,31.5c-1.1-1.3-0.9-3.3,0.5-4.4c0,0,0,0,0,0l0,0c1.4-1.1,3.4-0.9,4.5,0.5c0,0,0,0,0,0l0,0c1.1,1.4,0.8,3.4-0.5,4.5H54
	c-0.5,0.4-1.2,0.7-1.9,0.7l0,0C51.1,32.8,50.2,32.3,49.6,31.5L49.6,31.5z M204.9,31.8c-1.4-1-1.7-3-0.6-4.3c0,0,0,0,0-0.1l0,0
	c1-1.4,3-1.7,4.3-0.6c0,0,0,0,0.1,0l0,0c1.4,1.1,1.7,3.1,0.6,4.5c0,0,0,0,0,0l0,0c-0.6,0.8-1.5,1.2-2.5,1.2l0,0
	C206.1,32.5,205.4,32.3,204.9,31.8L204.9,31.8z M59.9,23.9c-0.9-1.4-0.5-3.4,1-4.3c0,0,0,0,0,0l0,0c1.4-1,3.3-0.6,4.3,0.8
	c0,0.1,0.1,0.1,0.1,0.2l0,0c0.9,1.4,0.5,3.4-1,4.3c0,0,0,0,0,0l0,0c-0.5,0.4-1.1,0.5-1.7,0.5l0,0C61.5,25.4,60.5,24.8,59.9,23.9
	L59.9,23.9z M194.6,24.7L194.6,24.7c-1.5-0.9-1.9-2.9-1-4.4l0,0c0.9-1.5,2.9-1.9,4.4-1l0,0c1.5,0.9,1.9,2.9,1,4.4l0,0
	c-0.6,0.9-1.6,1.5-2.7,1.5l0,0C195.7,25.2,195.1,25,194.6,24.7L194.6,24.7z M70.9,17.4c-0.8-1.5-0.1-3.4,1.4-4.2c0,0,0.1,0,0.1,0
	l0,0c1.5-0.8,3.4-0.2,4.2,1.3c0,0,0,0,0,0.1l0,0c0.8,1.4,0.3,3.3-1.2,4.1c-0.1,0-0.2,0.1-0.2,0.1l0,0c-0.4,0.3-0.9,0.4-1.4,0.4l0,0
	C72.6,19.2,71.5,18.5,70.9,17.4L70.9,17.4z M183.7,18.7c-1.6-0.8-2.2-2.7-1.5-4.3l0,0c0.8-1.6,2.7-2.2,4.3-1.4l0,0
	c1.5,0.7,2.2,2.4,1.5,4c0,0.1-0.1,0.2-0.1,0.2l0,0c-0.5,1.1-1.6,1.8-2.8,1.8l0,0C184.6,19,184.1,18.9,183.7,18.7z M82.5,12
	c-0.5-1.6,0.3-3.4,1.9-4l0,0c1.6-0.7,3.4,0.1,4.1,1.7c0,0,0,0.1,0,0.1l0,0c0.6,1.6-0.1,3.4-1.7,4c-0.1,0-0.1,0-0.2,0.1l0,0l-1.1,0.2
	l0,0C84.2,14.1,83,13.3,82.5,12L82.5,12z M172.2,13.8L172.2,13.8c-1.6-0.7-2.4-2.4-1.9-4.1l0,0c0.6-1.7,2.4-2.5,4.1-1.9l0,0
	c1.6,0.5,2.5,2.3,2,3.9c0,0.1,0,0.1-0.1,0.2l0,0c-0.5,1.3-1.7,2.1-3,2.1l0,0L172.2,13.8z M94.7,7.9c-0.5-1.6,0.4-3.4,2.1-3.9
	c0,0,0.1,0,0.1,0l0,0c1.7-0.4,3.5,0.6,3.9,2.3c0,0,0,0,0,0l0,0c0.4,1.7-0.6,3.4-2.3,3.9h-0.8C96.3,10.2,95.1,9.3,94.7,7.9z
	 M160.3,10.1c-1.7-0.5-2.7-2.2-2.3-3.9l0,0c0.4-1.7,2.2-2.7,3.9-2.3c0,0,0,0,0,0l0,0c1.7,0.4,2.7,2.2,2.3,3.9c0,0,0,0,0,0l0,0
	c-0.4,1.4-1.7,2.4-3.1,2.4h-0.8V10.1z M107.1,5c-0.3-1.7,0.8-3.3,2.5-3.6c0.1,0,0.1,0,0.2,0l0,0c1.7-0.2,3.3,0.9,3.6,2.6l0,0
	c0.3,1.6-0.7,3.2-2.3,3.6c-0.1,0-0.2,0-0.3,0h-0.5C108.7,7.6,107.4,6.5,107.1,5L107.1,5z M148.1,7.6c-1.7-0.3-2.9-1.9-2.7-3.6l0,0
	c0.3-1.7,1.9-2.9,3.6-2.7l0,0c1.7,0.3,2.9,1.9,2.7,3.6l0,0c-0.2,1.6-1.6,2.7-3.2,2.7H148.1z M119.8,3.4c-0.1-1.8,1.2-3.3,3-3.4
	c0,0,0,0,0,0l0,0c1.8-0.1,3.3,1.2,3.4,3c0,0,0,0,0,0l0,0c0.1,1.8-1.2,3.3-3,3.4c0,0,0,0,0,0H123C121.3,6.4,119.9,5.1,119.8,3.4
	L119.8,3.4z M135.7,6.4c-1.8-0.1-3.2-1.6-3.1-3.4l0,0c0.1-1.8,1.6-3.1,3.4-3c0,0,0,0,0,0l0,0c1.7,0.1,3.1,1.6,3,3.3l0,0
	C138.9,5,137.5,6.4,135.7,6.4L135.7,6.4L135.7,6.4z"/>
</svg>
