<svg id="Layer_1" data-name="Layer 1" xmlns="http://www.w3.org/2000/svg" width="863.3" height="399.6" viewBox="0 0 863.3 399.6"><defs><style>.cls-1{fill:#f59c1d;}.cls-2{fill:#f59c1f;}</style></defs><path class="cls-1" d="M142.7,699.6a1.8,1.8,0,0,0,.5,2.2l.9.2h.4v.4h-7.6V702h.3a3.1,3.1,0,0,0,1.8-.5,4.2,4.2,0,0,0,1.5-1.9Zm8.1-24.2.4,2.6-9.5,24.3h-2.3l9.7-23,.7-1.7c.2-.4.3-.9.5-1.3a5.1,5.1,0,0,0,.2-.9Zm5.4,16.7v1.1H144.3v-1.1Zm-5.4-16.7,11.3,26.8h-3.3L150.1,679Zm7.1,24.2H161a4.2,4.2,0,0,0,1.5,1.9,3.1,3.1,0,0,0,1.8.5h.3v.4h-8.5V702h.3a1.6,1.6,0,0,0,1.3-.6A1.6,1.6,0,0,0,157.9,699.6Z" transform="translate(-108.3 -340.2)"/><path class="cls-2" d="M165.4,703.2H155.3v-2h1.1a1,1,0,0,0,.8-.3,1,1,0,0,0,0-.8l-2.3-6.1h-9.1l-2.4,6.1a.6.6,0,0,0,0,.6c0,.2.1.3.3.4h1.6v2h-9.2v-2h1.1a2.7,2.7,0,0,0,1.4-.4,3.2,3.2,0,0,0,1.1-1.2l8.7-20.6a14.7,14.7,0,0,1,.7-1.7,5.6,5.6,0,0,0,.4-1.2,2.3,2.3,0,0,0,.2-.7v-.8h.5l.4-1.9.8,1.9h.1v.6l10.1,24.1a3.1,3.1,0,0,0,1.2,1.5,2.7,2.7,0,0,0,1.4.4h1.1Zm-24.8-1.7h.5l.5-1.1H141Zm18.8-.1h1.5l-.4-1H159Zm-1-2.5h1.4l-2.8-6.8V694h-.4Zm-16.7,0h.5l1.9-4.9h-.3Zm13.9-7.6h1l-5-12.1-.3.7Zm-8.8,0h7.1l-3.5-9.2Zm-1.9,0h.2l3.3-8.3Z" transform="translate(-108.3 -340.2)"/><path class="cls-1" d="M212.7,691.4l-.5,5.9a9.6,9.6,0,0,1-2.4,2.9,12.5,12.5,0,0,1-3.6,2,13.1,13.1,0,0,1-4.6.7,14.5,14.5,0,0,1-7-1.7,11.1,11.1,0,0,1-4.8-4.8,16.3,16.3,0,0,1,0-14.5,11.1,11.1,0,0,1,4.8-4.8,13.7,13.7,0,0,1,7.2-1.7,16.1,16.1,0,0,1,5.1.7,17.6,17.6,0,0,1,3.9,1.8l.8,5.4h-.4a8.4,8.4,0,0,0-3.4-5.1,10.8,10.8,0,0,0-6-1.7,9.8,9.8,0,0,0-5.7,1.6,9.7,9.7,0,0,0-3.8,4.4,16.3,16.3,0,0,0,0,13.2,10.1,10.1,0,0,0,3.7,4.4,9.8,9.8,0,0,0,5.6,1.7,11.8,11.8,0,0,0,5-1,9.2,9.2,0,0,0,3.8-3.3,12.9,12.9,0,0,0,2-6.1Z" transform="translate(-108.3 -340.2)"/><path class="cls-2" d="M201.6,703.7a15,15,0,0,1-7.4-1.8,12.5,12.5,0,0,1-5.1-5.1,15.9,15.9,0,0,1-1.8-7.7,15.5,15.5,0,0,1,1.8-7.6,12.5,12.5,0,0,1,5.1-5.1,15.5,15.5,0,0,1,7.6-1.8,14.4,14.4,0,0,1,5.3.8,14.2,14.2,0,0,1,4.1,1.9l.3.2,1,6.6h-1.9v-.6a7.8,7.8,0,0,0-3.1-4.6,9.7,9.7,0,0,0-5.6-1.6,10.2,10.2,0,0,0-5.3,1.4,10,10,0,0,0-3.5,4.1,15.9,15.9,0,0,0,0,12.6,10.6,10.6,0,0,0,3.4,4.1,9.3,9.3,0,0,0,5.2,1.5,12.3,12.3,0,0,0,4.7-.9,8.3,8.3,0,0,0,3.5-3,14.2,14.2,0,0,0,1.8-5.8v-.7h1.9l-.6,6.9v.2a13,13,0,0,1-2.6,3.1,12.8,12.8,0,0,1-3.8,2.1A12.6,12.6,0,0,1,201.6,703.7Zm-6.1-26.2-.5.3a10.3,10.3,0,0,0-4.5,4.5,15.5,15.5,0,0,0,0,13.7,11.5,11.5,0,0,0,4.5,4.5l.7.4h-.1a11.4,11.4,0,0,1-4.1-4.8,16.3,16.3,0,0,1-1.4-6.9,16.8,16.8,0,0,1,1.4-7A12,12,0,0,1,195.5,677.5Zm12.3-.2.5.3a8.1,8.1,0,0,1,1.9,1.8v-1Z" transform="translate(-108.3 -340.2)"/><path class="cls-1" d="M236.9,675.4a13.6,13.6,0,0,1,7.1,1.7,11.1,11.1,0,0,1,4.8,4.8,16.3,16.3,0,0,1,0,14.5,11.1,11.1,0,0,1-4.8,4.8,13.6,13.6,0,0,1-7.1,1.7,13.8,13.8,0,0,1-7.1-1.7,12.3,12.3,0,0,1-4.8-4.8,16.3,16.3,0,0,1,0-14.5,12.3,12.3,0,0,1,4.8-4.8A13.8,13.8,0,0,1,236.9,675.4Zm0,26.4a9.5,9.5,0,0,0,5.6-1.6,10.3,10.3,0,0,0,3.8-4.4,15.3,15.3,0,0,0,1.3-6.6,15.4,15.4,0,0,0-1.3-6.7,10.9,10.9,0,0,0-3.8-4.4,9.5,9.5,0,0,0-5.6-1.6,9.7,9.7,0,0,0-5.6,1.6,10.7,10.7,0,0,0-3.7,4.4,16.5,16.5,0,0,0,0,13.3,10.1,10.1,0,0,0,3.7,4.4A9.7,9.7,0,0,0,236.9,701.8Z" transform="translate(-108.3 -340.2)"/><path class="cls-2" d="M236.9,703.7a15.4,15.4,0,0,1-7.5-1.8,13.9,13.9,0,0,1-5.1-5.1,17.2,17.2,0,0,1,0-15.3,13.9,13.9,0,0,1,5.1-5.1,15.4,15.4,0,0,1,7.5-1.8,15.1,15.1,0,0,1,7.5,1.8,12.5,12.5,0,0,1,5.1,5.1,17.2,17.2,0,0,1,0,15.3,12.5,12.5,0,0,1-5.1,5.1A15.1,15.1,0,0,1,236.9,703.7Zm0-26.4a8.5,8.5,0,0,0-5.1,1.5,8.9,8.9,0,0,0-3.5,4.1,13.6,13.6,0,0,0-1.3,6.3,13.2,13.2,0,0,0,1.3,6.2,9.7,9.7,0,0,0,3.5,4.2,9.5,9.5,0,0,0,5.1,1.4,9.9,9.9,0,0,0,5.2-1.4,10.4,10.4,0,0,0,3.5-4.2,14.6,14.6,0,0,0,1.2-6.2,15.1,15.1,0,0,0-1.2-6.3,9.5,9.5,0,0,0-3.5-4.1A9.1,9.1,0,0,0,236.9,677.3Zm-6,.1-.7.4a11.5,11.5,0,0,0-4.5,4.5,13.8,13.8,0,0,0-1.6,6.9,13.4,13.4,0,0,0,1.6,6.8,11.5,11.5,0,0,0,4.5,4.5l.7.4h0a11.8,11.8,0,0,1-4-4.8,16.9,16.9,0,0,1,0-13.9,11.8,11.8,0,0,1,4-4.8Zm12,0h.1a12.6,12.6,0,0,1,4,4.8,18,18,0,0,1,0,13.9,12.6,12.6,0,0,1-4,4.8h-.1l.7-.4a10.8,10.8,0,0,0,4.5-4.5,13.4,13.4,0,0,0,1.7-6.8,13.8,13.8,0,0,0-1.7-6.9,10.8,10.8,0,0,0-4.5-4.5Z" transform="translate(-108.3 -340.2)"/><path class="cls-1" d="M260,690.5h11.3l.3.9-.3.8H260l-.2-.8Z" transform="translate(-108.3 -340.2)"/><path class="cls-2" d="M272,693H259.4l-.5-1.7.5-1.6h12.5l.5,1.6Zm-11.4-1.6h0Z" transform="translate(-108.3 -340.2)"/><path class="cls-1" d="M284,678.6h-3a3.7,3.7,0,0,0-1.4-1.8,4.9,4.9,0,0,0-1.9-.5h-.3v-.4h8.4v.4h-.3a1.8,1.8,0,0,0-1.3.6A1.7,1.7,0,0,0,284,678.6Zm-3.8-2.5h3l7.1,22.6-.7,4.2Zm16.9-.8.3,3.1-6.6,20.3a11.2,11.2,0,0,0-.6,2.3,11.1,11.1,0,0,0-.2,1.9h-.4l-.6-3.4,7.8-24.2Zm0,0,8,22.3-.8,5.3-8.5-23.5Zm15.4.8-7.1,22.6c-.2.9-.4,1.7-.6,2.3a12.3,12.3,0,0,0-.2,1.9h-.3l-.5-3.8,6.6-23Zm-2.8,2.5a1.9,1.9,0,0,0-.2-1.7,1.6,1.6,0,0,0-1.3-.6h-.3v-.4h7.5v.4h-.3a4.5,4.5,0,0,0-1.9.5,3.4,3.4,0,0,0-1.5,1.8Z" transform="translate(-108.3 -340.2)"/><path class="cls-2" d="M289.9,706.1l-.8-2.4H289v-.6l-8.6-24.2a2.3,2.3,0,0,0-1.1-1.4,2.8,2.8,0,0,0-1.5-.4h-1.1v-2h10v2h-1.1a.8.8,0,0,0-.7.3c-.2.2-.2.5,0,1l.3,1h0l4.7,15,6.4-19.9h.4l.5-1.7.6,1.7h.2v.7l6.6,18.5,4.4-15.3c.1-.3.2-.8,0-1a.9.9,0,0,0-.7-.3h-1.1v-2h9v2h-1a3.4,3.4,0,0,0-1.6.4,3.1,3.1,0,0,0-1,1.2l-6.3,20.2c-.3.9-.4,1.6-.6,2.3a9.9,9.9,0,0,0-.2,1.7v.8h-.5l-.3,2.3-.9-2.3h-.1v-.6l-7-19.4-5,15.2c-.2.8-.4,1.6-.5,2.2a11,11,0,0,0-.2,1.8v.8h-.4Zm7.4-24.9,6,16.7.5-1.6-6-16.6Zm-15.1-1.8,6.5,18.4.2-.8-5.5-17.6Zm28.1,0-4,13.8,4.4-13.8Zm.4-1.6h.5l.2-.9H311Zm-29.1,0h1.3l-.2-.9h-1.4Z" transform="translate(-108.3 -340.2)"/><path class="cls-1" d="M336.3,675.4a14.2,14.2,0,0,1,7.2,1.7,12.3,12.3,0,0,1,4.8,4.8,16.3,16.3,0,0,1,0,14.5,12.3,12.3,0,0,1-4.8,4.8,14.2,14.2,0,0,1-7.2,1.7,13.5,13.5,0,0,1-7-1.7,11.1,11.1,0,0,1-4.8-4.8,15.5,15.5,0,0,1,0-14.5,11.1,11.1,0,0,1,4.8-4.8A13.5,13.5,0,0,1,336.3,675.4Zm0,26.4a9.8,9.8,0,0,0,5.7-1.6,10.1,10.1,0,0,0,3.7-4.4,16.5,16.5,0,0,0,0-13.3,10.7,10.7,0,0,0-3.7-4.4,9.8,9.8,0,0,0-5.7-1.6,9.4,9.4,0,0,0-5.5,1.6,10.9,10.9,0,0,0-3.8,4.4,15.4,15.4,0,0,0-1.3,6.7,15.3,15.3,0,0,0,1.3,6.6,10.3,10.3,0,0,0,3.8,4.4A9.4,9.4,0,0,0,336.3,701.8Z" transform="translate(-108.3 -340.2)"/><path class="cls-2" d="M336.3,703.7a14.7,14.7,0,0,1-7.4-1.8,12.5,12.5,0,0,1-5.1-5.1,17.2,17.2,0,0,1,0-15.3,12.5,12.5,0,0,1,5.1-5.1,14.7,14.7,0,0,1,7.4-1.8,15.5,15.5,0,0,1,7.6,1.8,13.9,13.9,0,0,1,5.1,5.1,17.2,17.2,0,0,1,0,15.3,13.9,13.9,0,0,1-5.1,5.1A15.5,15.5,0,0,1,336.3,703.7Zm0-26.4a9,9,0,0,0-5.1,1.5,9.5,9.5,0,0,0-3.5,4.1,15.1,15.1,0,0,0-1.2,6.3,14.6,14.6,0,0,0,1.2,6.2,10.4,10.4,0,0,0,3.5,4.2,9.8,9.8,0,0,0,5.1,1.4,9,9,0,0,0,8.7-5.6,13.2,13.2,0,0,0,1.3-6.2,13.6,13.6,0,0,0-1.3-6.3,9.4,9.4,0,0,0-8.7-5.6Zm-5.9.1-.8.4a10.6,10.6,0,0,0-4.4,4.5,13.8,13.8,0,0,0-1.7,6.9,13.4,13.4,0,0,0,1.7,6.8,10.6,10.6,0,0,0,4.4,4.5l.8.4h-.1a11.8,11.8,0,0,1-4-4.8,18,18,0,0,1,0-13.9,12.6,12.6,0,0,1,4-4.8Zm12,0h0a11.8,11.8,0,0,1,4,4.8,16.9,16.9,0,0,1,0,13.9,11.8,11.8,0,0,1-4,4.8h0l.7-.4a11.5,11.5,0,0,0,4.5-4.5,14.5,14.5,0,0,0,1.6-6.8,14.9,14.9,0,0,0-1.6-6.9,11.5,11.5,0,0,0-4.5-4.5Z" transform="translate(-108.3 -340.2)"/><path class="cls-1" d="M362.4,678.7h-.1a2.1,2.1,0,0,0-.7-1.7,2.2,2.2,0,0,0-1.7-.7h-.5v-.4h3Zm0,20.9v2.8h-3V702h.5a2.2,2.2,0,0,0,1.7-.7,2.1,2.1,0,0,0,.7-1.7Zm2.4-23.7v26.5h-2.5V675.9Zm4.8,0a9.6,9.6,0,0,1,3.1.5,5.7,5.7,0,0,1,3.8,3.6,7.3,7.3,0,0,1,.5,3,8.5,8.5,0,0,1-.8,3.5,8.7,8.7,0,0,1-2.3,2.7,5.7,5.7,0,0,1-3.3,1.1,3.7,3.7,0,0,1,1.4,1l1.3,1.6,1.8,2.5c.5.8,1.1,1.4,1.6,2.1l1.4,1.7,1.5,1.4a5.7,5.7,0,0,0,1.6,1.1,6.4,6.4,0,0,0,2,.3v.4h-2.1a9.4,9.4,0,0,1-3-.5,10,10,0,0,1-3.6-2.8l-.6-.9a12.5,12.5,0,0,1-1.2-1.7,24.3,24.3,0,0,1-1.4-2l-1.2-1.7a3.7,3.7,0,0,0-.6-.8,8.5,8.5,0,0,0-1.6-1.7,2.4,2.4,0,0,0-1.9-.8v-.4h2.1l2.1-.3a6.5,6.5,0,0,0,2.2-1.1,5.5,5.5,0,0,0,1.6-2.6,5.8,5.8,0,0,1,.2-1v-1.2a6.5,6.5,0,0,0-1.3-4.1,4.5,4.5,0,0,0-3.4-1.7,16.1,16.1,0,0,0-2.2,0h-2.6a.8.8,0,0,0-.1-.4,2.2,2.2,0,0,1-.3-.8Zm-4.9,23.7h.1a2.1,2.1,0,0,0,.7,1.7,2.3,2.3,0,0,0,1.7.7h.5v.4h-3Z" transform="translate(-108.3 -340.2)"/><path class="cls-2" d="M384,703.2h-2.9a8.4,8.4,0,0,1-3.3-.6,13.8,13.8,0,0,1-2.4-1.4l-1.5-1.6-.7-.9-1.2-1.8-1.4-2-1.1-1.6-.2-.2c-.2-.4-.3-.6-.4-.6l-1.5-1.7a2,2,0,0,0-1.4-.6h-.4v9.4a1.3,1.3,0,0,0,.5,1.2,1.5,1.5,0,0,0,1.1.4h1.3v2h-9.9v-2h1.3a1.4,1.4,0,0,0,1.1-.4,1.3,1.3,0,0,0,.5-1.2V678.7a1.5,1.5,0,0,0-.5-1.2,1.4,1.4,0,0,0-1.1-.4h-1.3v-2h11a11.6,11.6,0,0,1,3.4.5,7.6,7.6,0,0,1,2.6,1.6,7.8,7.8,0,0,1,1.7,2.6,10.2,10.2,0,0,1,.5,3.2,8.9,8.9,0,0,1-.9,3.9,8.3,8.3,0,0,1-2.6,3,5.1,5.1,0,0,1-1.8.9h.1l1.4,1.6a19.5,19.5,0,0,0,1.8,2.6l1.5,2,1.3,1.6,1.5,1.4a4.2,4.2,0,0,0,1.4.9,4.7,4.7,0,0,0,1.7.3h.8Zm-20.8-1.6h.7v-2.7h.1v-21h-.1v-.7c0-.1,0-.1-.1-.2v-.3h-.5v2.8h-.1v19.4h.1Zm6.2-11,.8.9h0l.4.5v.3a11.1,11.1,0,0,1,1.2,1.6l1.4,2,1.2,1.8a2.1,2.1,0,0,1,.6.8,18.4,18.4,0,0,0,1.4,1.4l1.9,1.2.9.2a.2.2,0,0,1-.2-.2,11.4,11.4,0,0,1-1.6-1.5l-1.4-1.7-1.6-2.1-1.8-2.5-1.3-1.5a3.2,3.2,0,0,0-1.1-.9ZM372,677a5.8,5.8,0,0,1,1.5,1.3,6.7,6.7,0,0,1,1.5,4.6,6.2,6.2,0,0,1-.1,1.3,3.1,3.1,0,0,1-.2,1.1,5.9,5.9,0,0,1-1.8,3,9.4,9.4,0,0,1-2.2,1.2,6.2,6.2,0,0,0,2.7-.9,6.8,6.8,0,0,0,2.8-5.6,7.7,7.7,0,0,0-.4-2.7,5,5,0,0,0-1.3-1.9,4.6,4.6,0,0,0-2-1.3Zm-6.4,11.3H368l2-.3a4.8,4.8,0,0,0,1.9-.9,4.3,4.3,0,0,0,1.3-2.2,6.4,6.4,0,0,0,.2-.9v-1.1a5.5,5.5,0,0,0-1.1-3.6,3.8,3.8,0,0,0-2.8-1.4h-3.9Z" transform="translate(-108.3 -340.2)"/><path class="cls-1" d="M393,678.7h-.1a2.4,2.4,0,0,0-.7-1.7,2.3,2.3,0,0,0-1.7-.7H390v-.4h3Zm0,20.9v2.8h-3V702h.5a2.3,2.3,0,0,0,1.7-.7,2.4,2.4,0,0,0,.7-1.7Zm2.4-23.7v26.5h-2.5V675.9Zm-.1,2.8v-2.8h3v.4h-.5a2.2,2.2,0,0,0-1.7.7,2.1,2.1,0,0,0-.7,1.7Zm0,20.9h.1a2.1,2.1,0,0,0,.7,1.7,2.2,2.2,0,0,0,1.7.7h.5v.4h-3Zm14.3-23.4-11.3,13h-1.7l10.4-13Zm-10.9,11.6,10.7,12.7a6.6,6.6,0,0,0,1.6,1.1,4.2,4.2,0,0,0,2,.4v.4h-2.7l-1.5-.3a5.6,5.6,0,0,1-1.6-.7,3.3,3.3,0,0,1-1.5-1.1l-2.4-2.9-2.2-2.7-2.2-2.6c-.6-.9-1.4-1.8-2.3-2.9Zm13.5-11.9v.3h-.1a6.4,6.4,0,0,0-2.4.5,6.2,6.2,0,0,0-1.8,1.4h-2.4a1.1,1.1,0,0,0,.2-1.2,1.1,1.1,0,0,0-1.1-.6h-.4v-.3h8Z" transform="translate(-108.3 -340.2)"/><path class="cls-2" d="M413.8,703.2h-3.5l-1.7-.2a7.1,7.1,0,0,1-1.8-.8,7,7,0,0,1-1.7-1.3l-2.4-2.9-2.2-2.7-2.2-2.6-2.1-2.6h0v9.6a1.3,1.3,0,0,0,.5,1.2,1.4,1.4,0,0,0,1.1.4h1.3v2h-9.9v-2h1.3a1.5,1.5,0,0,0,1.1-.4,1.7,1.7,0,0,0,.5-1.2V678.7a1.8,1.8,0,0,0-.5-1.2,1.5,1.5,0,0,0-1.1-.4h-1.3v-2h9.9v2h-1.3a1.4,1.4,0,0,0-1.1.4,1.5,1.5,0,0,0-.5,1.2v9.8l8.7-11c.2-.2.1-.3.1-.3s-.1-.2-.4-.2h-1.2v-1.9H413V677h-.9a6.5,6.5,0,0,0-2,.4,6,6,0,0,0-1.3.9l-8.7,10,9.9,11.6a3.3,3.3,0,0,0,1.4,1,3.8,3.8,0,0,0,1.6.3h.8Zm-20-1.6h.7v-2.7h.1V679.5h-.1v-2.8h-.7v2.8h-.1v19.4h.1Zm4.5-11.6,1.3,1.6,2.2,2.6c.7,1,1.5,1.9,2.1,2.7l2.4,2.8a6,6,0,0,0,1.2,1.1l1.5.5h.2l-.3-.3h-.1l-9.7-11.5-.5.5Zm7.6-11.2-4.3,5.4,4.7-5.4Zm1.2-1.5h.6l.2-.2h-.5Z" transform="translate(-108.3 -340.2)"/><path class="cls-1" d="M424,678.7h-.1a2.5,2.5,0,0,0-.8-1.7,2.2,2.2,0,0,0-1.7-.7h-.5v-.4H424Zm0,20.9v2.8h-3.1V702h.5a2.2,2.2,0,0,0,1.7-.7,2.5,2.5,0,0,0,.8-1.7Zm2.3-23.7v26.5h-2.4V675.9Zm-.1,2.8v-2.8h3v.4h-.5a2,2,0,0,0-1.6.7,2.1,2.1,0,0,0-.8,1.7Zm0,20.9h.1a2.1,2.1,0,0,0,.8,1.7,2,2,0,0,0,1.6.7h.5v.4h-3Z" transform="translate(-108.3 -340.2)"/><path class="cls-2" d="M430,703.2h-9.9v-2h1.3a1.7,1.7,0,0,0,1.2-.4,2.2,2.2,0,0,0,.5-1.2V678.7a2.6,2.6,0,0,0-.5-1.2,1.7,1.7,0,0,0-1.2-.4h-1.3v-2H430v2h-1.3a1.5,1.5,0,0,0-1.1.4,1.8,1.8,0,0,0-.5,1.2v20.9a1.7,1.7,0,0,0,.5,1.2,1.5,1.5,0,0,0,1.1.4H430Zm-5.2-1.6h.6v-2.7h.1V679.5h-.1v-2.8h-.6v2.8h-.2v19.4h.2Z" transform="translate(-108.3 -340.2)"/><path class="cls-1" d="M442.4,699.7v2.7h-3.2V702h.8a2.5,2.5,0,0,0,1.6-.6,2.6,2.6,0,0,0,.7-1.7Zm-.1-24.4,1.7,2.1v25h-1.7V680.1a30.8,30.8,0,0,0-.4-4.8Zm0,0,22,23.5.4,4.1-22.1-23.4Zm1.7,24.4a2.2,2.2,0,0,0,.7,1.7,2.3,2.3,0,0,0,1.6.6h.7v.4h-3.1v-2.7Zm15.9-23.8H463v2.7h-.1a2.2,2.2,0,0,0-.7-1.7,2.1,2.1,0,0,0-1.6-.6h-.7Zm4.8,0v24.5l.3,2.5h-.3l-1.8-2v-25Zm3,0v.4H467a2.3,2.3,0,0,0-1.6.6,2.2,2.2,0,0,0-.7,1.7h-.2v-2.7Z" transform="translate(-108.3 -340.2)"/><path class="cls-2" d="M465.6,705.1l-20.8-22.2v16.8a1.5,1.5,0,0,0,.4,1.1,1.7,1.7,0,0,0,1.1.4h1.5v2h-9.4v-2H440a1.3,1.3,0,0,0,1-.4,1.6,1.6,0,0,0,.5-1.1V680.1a29.7,29.7,0,0,0-.4-4.7v-.9h.4v-1.4l20.9,22.3V678.6a2.2,2.2,0,0,0-.5-1.1,1.4,1.4,0,0,0-1.1-.4h-1.5v-2h9.4v2H467a1.5,1.5,0,0,0-1.1.4,2.2,2.2,0,0,0-.5,1.1v19.5c0,.8.1,1.5.1,2.3s.2,1.5.3,2.4v.9h-.4Zm-20.8-24.5,17.4,18.5v-1.4l-17.4-18.6Zm-1.7,18.3h.1V681.2h-.1v17.8Zm20.6-1.9.2.2V679.4h-.2Z" transform="translate(-108.3 -340.2)"/><path class="cls-1" d="M501.6,691.8v6.3a13.1,13.1,0,0,1-2.4,2.2,12.3,12.3,0,0,1-3.6,1.9,15.1,15.1,0,0,1-5,.7,14.6,14.6,0,0,1-7.1-1.7,12.3,12.3,0,0,1-4.8-4.8,16.3,16.3,0,0,1,0-14.5,11.1,11.1,0,0,1,4.8-4.8,13.6,13.6,0,0,1,7.1-1.7,20.5,20.5,0,0,1,3.7.3,13.2,13.2,0,0,1,3,.9l2.5,1.3.7,5.4h-.3a8.7,8.7,0,0,0-1.9-3.7,7.9,7.9,0,0,0-3.3-2.3,12.3,12.3,0,0,0-4.4-.8,9.5,9.5,0,0,0-5.6,1.6,10.2,10.2,0,0,0-3.8,4.4,16.5,16.5,0,0,0,0,13.3,10.2,10.2,0,0,0,9.4,6,11.7,11.7,0,0,0,3.2-.4,14.5,14.5,0,0,0,2.9-1.1,10.8,10.8,0,0,0,2.4-1.8v-6.7c0-1.1-.6-1.7-1.9-1.7h-.6v-.4H504v.4h-.6C502.1,690.1,501.5,690.7,501.6,691.8Z" transform="translate(-108.3 -340.2)"/><path class="cls-2" d="M490.6,703.7a15.4,15.4,0,0,1-7.5-1.8,13.2,13.2,0,0,1-5.1-5.1,17.2,17.2,0,0,1,0-15.3,12.5,12.5,0,0,1,5.1-5.1,15.1,15.1,0,0,1,7.5-1.8,23.8,23.8,0,0,1,3.9.3,22.6,22.6,0,0,1,3.1,1,15.9,15.9,0,0,1,2.6,1.4l.3.2.9,6.6h-1.8l-.2-.6a7.3,7.3,0,0,0-1.7-3.4,8.1,8.1,0,0,0-3-2.1,10.7,10.7,0,0,0-4.1-.7,9.1,9.1,0,0,0-5.2,1.5,8.9,8.9,0,0,0-3.5,4.1,13.6,13.6,0,0,0-1.3,6.3,13.2,13.2,0,0,0,1.3,6.2,8.9,8.9,0,0,0,3.5,4.1,9.1,9.1,0,0,0,5.2,1.5,10.3,10.3,0,0,0,3-.4,14.8,14.8,0,0,0,2.7-1l2-1.4v-6.4c0-.5,0-.9-1.1-.9h-1.4v-2h9v2h-1.4l-.9.2a1.4,1.4,0,0,0-.2.7h0v6.7a11.8,11.8,0,0,1-2.5,2.5,17.8,17.8,0,0,1-3.9,2A16.4,16.4,0,0,1,490.6,703.7Zm-6.1-26.3-.6.4a11.5,11.5,0,0,0-4.5,4.5,13.8,13.8,0,0,0-1.6,6.9,13.4,13.4,0,0,0,1.6,6.8,11.5,11.5,0,0,0,4.5,4.5l.5.3a10.7,10.7,0,0,1-3.9-4.7,16.9,16.9,0,0,1,0-13.9A11.8,11.8,0,0,1,484.5,677.4Zm15.1,13.1a2.8,2.8,0,0,1,.3,1.3v6.9l.9-.9v-6a1.9,1.9,0,0,1,.2-1.3Zm-3-13.3a7.1,7.1,0,0,1,2.3,1.9l.3.3-.2-1-2-1Z" transform="translate(-108.3 -340.2)"/><path class="cls-1" d="M531.8,678.7h-.1a2.1,2.1,0,0,0-.7-1.7,2.3,2.3,0,0,0-1.7-.7h-.5v-.4h3Zm0,20.9v2.8h-3V702h.5a2.3,2.3,0,0,0,1.7-.7,2.1,2.1,0,0,0,.7-1.7Zm2.4-23.7v26.5h-2.5V675.9Zm2.1,0a11.7,11.7,0,0,1,4.5.8,5.6,5.6,0,0,1,3.7,5.5,6.1,6.1,0,0,1-.6,2.8,5.8,5.8,0,0,1-1.5,1.9,5.6,5.6,0,0,1-2,1.1,7.3,7.3,0,0,1,3.4,1.3,6.4,6.4,0,0,1,2.3,2.6,7.4,7.4,0,0,1,.8,3.4,6.5,6.5,0,0,1-1.1,3.7,6.3,6.3,0,0,1-3,2.5,11.4,11.4,0,0,1-4.8.9h-4.2c0-.4.1-.9.1-1.3h4a8.1,8.1,0,0,0,3.3-.7,5.3,5.3,0,0,0,2.1-2.1,6.7,6.7,0,0,0,.7-3.3,6.8,6.8,0,0,0-.8-3.4,4.5,4.5,0,0,0-2.1-2,9.4,9.4,0,0,0-2.8-1l-2.8-.2v-.3l1.9-.2a7,7,0,0,0,2-.8,4.6,4.6,0,0,0,1.7-1.7,6,6,0,0,0,.6-2.9,6.5,6.5,0,0,0-.6-2.9,5,5,0,0,0-1.9-1.9,6.7,6.7,0,0,0-3-.6h-3.5a.8.8,0,0,0-.1-.3,4.6,4.6,0,0,1-.3-.9Z" transform="translate(-108.3 -340.2)"/><path class="cls-2" d="M538,703.2H527.9l.2-2h1.2a1.5,1.5,0,0,0,1.1-.4,1.3,1.3,0,0,0,.5-1.2V678.7a1.5,1.5,0,0,0-.5-1.2,1.5,1.5,0,0,0-1.1-.4h-1.2l-.2-2h8.4a11.4,11.4,0,0,1,4.8.9,7.3,7.3,0,0,1,3.2,2.5,6.4,6.4,0,0,1,1,3.7,6.6,6.6,0,0,1-.7,3.2,6.2,6.2,0,0,1-1.7,2.2l-.3.2a5.6,5.6,0,0,1,1.7.9,7.5,7.5,0,0,1,2.5,2.8,7.9,7.9,0,0,1,.8,3.8,7,7,0,0,1-1.1,4.1,7.3,7.3,0,0,1-3.4,2.8A11.3,11.3,0,0,1,538,703.2Zm-5.4-1.6h.5v-1.3h.3V677.9h-.8v1.6h-.1v19.4h.1Zm9.5-12.3a5.5,5.5,0,0,1,1.8,1.9,7.4,7.4,0,0,1,.9,3.8,8.7,8.7,0,0,1-.8,3.7,6.9,6.9,0,0,1-2.4,2.4l-.6.2a5.3,5.3,0,0,0,1.5-.5,6,6,0,0,0,2.7-2.2,6,6,0,0,0,.9-3.3,7.8,7.8,0,0,0-.7-3.1,6,6,0,0,0-2-2.2A3.3,3.3,0,0,0,542.1,689.3Zm-7.1,11h2.9a6,6,0,0,0,2.9-.6,3.9,3.9,0,0,0,1.8-1.8,6.2,6.2,0,0,0,.6-2.9,5.3,5.3,0,0,0-.7-3,3.7,3.7,0,0,0-1.8-1.7,10.6,10.6,0,0,0-2.5-.9l-2.7-.2H535Zm0-13h.5l1.7-.2a3.6,3.6,0,0,0,1.8-.7,3.2,3.2,0,0,0,1.4-1.4,5.5,5.5,0,0,0,.5-2.5,6.7,6.7,0,0,0-.5-2.6,5.4,5.4,0,0,0-1.5-1.5,6.8,6.8,0,0,0-2.7-.5H535Zm4.8-10.1a4.8,4.8,0,0,1,2,2,6.7,6.7,0,0,1,.7,3.3,6.4,6.4,0,0,1-.8,3.3,4.4,4.4,0,0,1-.8,1.1,2.1,2.1,0,0,0,1-.6,5.1,5.1,0,0,0,1.3-1.6,4.9,4.9,0,0,0,.6-2.5,5,5,0,0,0-.9-2.9,5.2,5.2,0,0,0-2.4-1.9Z" transform="translate(-108.3 -340.2)"/><path class="cls-1" d="M559.4,675.9v2.3h-.1a1.8,1.8,0,0,0-.6-1.4,2.4,2.4,0,0,0-1.4-.5h-.6v-.4Zm2.3,0v16.7a12.1,12.1,0,0,0,1,4.8,8.2,8.2,0,0,0,2.9,3.2,7.4,7.4,0,0,0,4.2,1.2,9,9,0,0,0,4.4-1.1,8.1,8.1,0,0,0,3-3.1,9.3,9.3,0,0,0,1-4.5V675.9H580v17.2a9.7,9.7,0,0,1-1.3,5.1,8.4,8.4,0,0,1-3.5,3.5,11.9,11.9,0,0,1-5.4,1.2,11.8,11.8,0,0,1-5.5-1.2,9.4,9.4,0,0,1-3.7-3.4,9.8,9.8,0,0,1-1.3-5.2V675.9Zm2.7,0v.4h-.6a2.5,2.5,0,0,0-1.5.5,1.8,1.8,0,0,0-.6,1.4h0v-2.3Zm13.9,0v2.3h-.1a1.8,1.8,0,0,0-.6-1.4,2.2,2.2,0,0,0-1.4-.5h-.6v-.4Zm4.3,0v.4H582a2.4,2.4,0,0,0-1.4.5,1.8,1.8,0,0,0-.6,1.4h-.1v-2.3Z" transform="translate(-108.3 -340.2)"/><path class="cls-2" d="M569.8,703.7a12.5,12.5,0,0,1-5.9-1.3,10.2,10.2,0,0,1-4-3.7,11.3,11.3,0,0,1-1.4-5.6V678.2a1,1,0,0,0-.3-.8,1.6,1.6,0,0,0-.9-.3h-1.4v-2h9.2v2h-1.3a1.2,1.2,0,0,0-.9.3.8.8,0,0,0-.4.8v14.4a8.9,8.9,0,0,0,1,4.4,6,6,0,0,0,2.5,2.9,6.8,6.8,0,0,0,3.8,1.1,8.5,8.5,0,0,0,4-1,8.1,8.1,0,0,0,2.7-2.8,8.6,8.6,0,0,0,.9-4.1V678.2a1,1,0,0,0-.3-.8,1.2,1.2,0,0,0-.9-.3h-1.4v-2h8.6v2H582a1.6,1.6,0,0,0-.9.3,1,1,0,0,0-.3.8v14.9a11,11,0,0,1-1.4,5.5,9.5,9.5,0,0,1-3.9,3.8A11.7,11.7,0,0,1,569.8,703.7ZM560.1,679v14.1a9.5,9.5,0,0,0,1.2,4.8,8.2,8.2,0,0,0,3.3,3.1l.4.2a8.6,8.6,0,0,1-3-3.5,11.9,11.9,0,0,1-1-5.1V679h-.1v-2.3h-.7V679Zm18.9,0v14.1a11,11,0,0,1-1.1,4.9,10.5,10.5,0,0,1-.8,1.1,3.8,3.8,0,0,0,.9-1.3,8.9,8.9,0,0,0,1.2-4.7V679h-.1v0Z" transform="translate(-108.3 -340.2)"/><path class="cls-1" d="M600.1,675.4h1.3l1.4.2,1.2.3.8.3v4.2h-.3a3.5,3.5,0,0,0-1.3-2.9,4.9,4.9,0,0,0-3-1,4.5,4.5,0,0,0-3.4,1.3,4.6,4.6,0,0,0-1.3,3.1,3.7,3.7,0,0,0,.4,1.6,3.6,3.6,0,0,0,1.2,1.8l7.4,6.9a4.6,4.6,0,0,1,1.5,2.3,6.7,6.7,0,0,1,.4,2.4,6.9,6.9,0,0,1-1.9,5.1,6.9,6.9,0,0,1-5.2,1.9h-2.1l-2.4-.7a5.2,5.2,0,0,1-1.9-1.2,7.1,7.1,0,0,1-.1-1.6,12.8,12.8,0,0,1,.1-1.9c.1-.6.3-1.2.4-1.8h.4a6.3,6.3,0,0,0,.5,3.4,4.1,4.1,0,0,0,2,2.1,4.7,4.7,0,0,0,2.9.7,6.4,6.4,0,0,0,3.6-1.4,4.8,4.8,0,0,0,1.5-3.7,4.5,4.5,0,0,0-.4-2,3.9,3.9,0,0,0-1.1-1.5l-7.2-6.7a5.4,5.4,0,0,1-1.6-2.4,6,6,0,0,1,.3-5.4,5.6,5.6,0,0,1,2.2-2.4A7,7,0,0,1,600.1,675.4Zm4.7.3v.8h-2.9v-.8Z" transform="translate(-108.3 -340.2)"/><path class="cls-2" d="M599.3,703.7a9,9,0,0,1-2.2-.2,7.7,7.7,0,0,1-2.6-.7,5.5,5.5,0,0,1-2.2-1.4V701a8.1,8.1,0,0,1-.1-1.7,14.1,14.1,0,0,1,.1-2,10.5,10.5,0,0,1,.5-1.9l.2-.6h1.8v.9a5.4,5.4,0,0,0,.4,2.9,4.4,4.4,0,0,0,1.7,1.9,4,4,0,0,0,2.5.5,5,5,0,0,0,3.1-1.2,4.5,4.5,0,0,0,.9-4.7,3,3,0,0,0-.9-1.3l-7.3-6.8a7.6,7.6,0,0,1-1.8-2.6,8.5,8.5,0,0,1-.5-2.6,7.3,7.3,0,0,1,.9-3.5,6.5,6.5,0,0,1,2.5-2.7,8.1,8.1,0,0,1,5.5-.9l1.4.2h2.7v6.2h-1.9v-.8a2.5,2.5,0,0,0-1-2.2,3.7,3.7,0,0,0-2.5-.9,3.8,3.8,0,0,0-3.9,3.6,4.3,4.3,0,0,0,1.3,2.9l7.5,6.9a6.2,6.2,0,0,1,1.7,2.6,7.8,7.8,0,0,1,.4,2.6,7.6,7.6,0,0,1-2.1,5.6A7.8,7.8,0,0,1,599.3,703.7Zm-3.5-25.9a3.8,3.8,0,0,0-.9,1.3,5,5,0,0,0-.7,2.7,5.9,5.9,0,0,0,.4,2.1,5.2,5.2,0,0,0,1.4,2l7.3,6.7a5.9,5.9,0,0,1,1.3,1.8,5.9,5.9,0,0,1,.4,2.3,5.2,5.2,0,0,1-1.8,4.2c-.1.2-.3.3-.5.5a4,4,0,0,0,1.2-1,5.7,5.7,0,0,0,1.7-4.5,8.9,8.9,0,0,0-.3-2.2,5.4,5.4,0,0,0-1.3-1.9l-7.5-6.9a4.9,4.9,0,0,1-1.4-2.1,8.1,8.1,0,0,1-.4-1.9A4.9,4.9,0,0,1,595.8,677.8Zm-2.2,22.7,1.4.8a4.2,4.2,0,0,1-1.4-1.8Z" transform="translate(-108.3 -340.2)"/><path class="cls-1" d="M619.9,678.7h-.1a2.1,2.1,0,0,0-.7-1.7,2.2,2.2,0,0,0-1.7-.7h-.5v-.4h3Zm0,20.9v2.8h-3V702h.5a2.2,2.2,0,0,0,1.7-.7,2.1,2.1,0,0,0,.7-1.7Zm2.4-23.7v26.5h-2.5V675.9Zm-.1,2.8v-2.8h3v.4h-.5a2.3,2.3,0,0,0-1.7.7,2.4,2.4,0,0,0-.7,1.7Zm0,20.9h.1a2.4,2.4,0,0,0,.7,1.7,2.3,2.3,0,0,0,1.7.7h.5v.4h-3Z" transform="translate(-108.3 -340.2)"/><path class="cls-2" d="M626,703.2h-9.9v-2h1.3a1.5,1.5,0,0,0,1.1-.4,1.7,1.7,0,0,0,.5-1.2V678.7a1.8,1.8,0,0,0-.5-1.2,1.5,1.5,0,0,0-1.1-.4h-1.3v-2H626v2h-1.3a1.5,1.5,0,0,0-1.1.4,1.8,1.8,0,0,0-.5,1.2v20.9a1.7,1.7,0,0,0,.5,1.2,1.5,1.5,0,0,0,1.1.4H626Zm-5.3-1.6h.7v-2.7h.1V679.5h-.1v-2.8h-.7v2.8h-.1v19.4h.1Z" transform="translate(-108.3 -340.2)"/><path class="cls-1" d="M638.3,699.7v2.7h-3.1V702h.7a2.3,2.3,0,0,0,1.6-.6,2.2,2.2,0,0,0,.7-1.7Zm0-24.4,1.6,2.1v25h-1.8V680.1a47.1,47.1,0,0,0-.3-4.8Zm0,0,22,23.5.3,4.1-22-23.4Zm1.7,24.4a2.2,2.2,0,0,0,.7,1.7,2.3,2.3,0,0,0,1.6.6h.7v.4h-3.1v-2.7Zm15.8-23.8H659v2.7h-.1a2.2,2.2,0,0,0-.7-1.7,2.3,2.3,0,0,0-1.6-.6h-.8Zm4.8,0v22.2a16.9,16.9,0,0,0,.1,2.3,11.3,11.3,0,0,0,.3,2.5h-.4l-1.7-2v-25Zm3,0v.4H663a2.5,2.5,0,0,0-1.7.6,2.6,2.6,0,0,0-.7,1.7h-.1v-2.7Z" transform="translate(-108.3 -340.2)"/><path class="cls-2" d="M661.6,705.1l-20.9-22.2v16.8a1.4,1.4,0,0,0,1.5,1.5h1.5v2h-9.4v-2h1.5a1.4,1.4,0,0,0,1.5-1.5V680.1a45.4,45.4,0,0,0-.3-4.7v-.9h.4v-1.4l20.8,22.3V678.6a2.1,2.1,0,0,0-.4-1.1,1.5,1.5,0,0,0-1.1-.4h-1.5v-2h9.3v2H663a1.4,1.4,0,0,0-1.1.4,1.6,1.6,0,0,0-.5,1.1v19.5a17.7,17.7,0,0,0,.1,2.3,23.2,23.2,0,0,0,.2,2.4l.2.9h-.4Zm-20.9-24.5,17.4,18.5v-1.4l-17.4-18.6Zm-1.6,18.3h.1V681.2H639v17.8Zm20.6-1.9V679.4h-.1Z" transform="translate(-108.3 -340.2)"/><path class="cls-1" d="M676.3,678.7h-.1a2.1,2.1,0,0,0-.7-1.7,2.2,2.2,0,0,0-1.7-.7h-.5v-.4h3Zm0,20.9v2.8h-3V702h.5a2.2,2.2,0,0,0,1.7-.7,2.1,2.1,0,0,0,.7-1.7Zm2.4-23.7v26.5h-2.5V675.9Zm10.2,0v1.2H678.6v-1.2Zm-1.6,12.9v1.1h-8.7v-1.1Zm1.6,12.4v1.2H678.6v-1.2Zm2.3-4.9-2.2,6.1h-6.3l1.4-1.2a8.1,8.1,0,0,0,3.3-.6,5.5,5.5,0,0,0,2-1.7,13,13,0,0,0,1.4-2.6Zm-2.3-21.1v1.1l-4.6-.4h1.8l1.7-.3Zm-1.6,11.2v2.5h-2.2a1.8,1.8,0,0,0,1.3-.6,2.1,2.1,0,0,0,.5-1.3v-.5Zm0,3.4v2.5h-.4v-.5a1.9,1.9,0,0,0-.5-1.3,1.8,1.8,0,0,0-1.3-.6h2.2Zm1.6-12.8v3h-.4v-.7a2.5,2.5,0,0,0-.6-1.6,2.9,2.9,0,0,0-1.6-.7h2.6Z" transform="translate(-108.3 -340.2)"/><path class="cls-2" d="M689.7,703.2H672.5v-2h1.3a1.5,1.5,0,0,0,1.1-.4,1.7,1.7,0,0,0,.5-1.2V678.7a1.4,1.4,0,0,0-1.6-1.6h-1.2l-.2-2H686l1.6-.3,1-.2,1.1-.5v6.8h-2v-1.5a1.3,1.3,0,0,0-.4-1,1,1,0,0,0-.7-.4h-7.1V688h5.6a.8.8,0,0,0,.7-.4.9.9,0,0,0,.3-.7v-1.3h2v7.5h-2v-1.3a1.1,1.1,0,0,0-.3-.8.9.9,0,0,0-.7-.3h-5.6v9.8h4.6a6,6,0,0,0,2.9-.6,4.4,4.4,0,0,0,1.8-1.5,13.6,13.6,0,0,0,1.3-2.4l.2-.5h2l-2.6,7.4Zm-12.6-1.6h.7v-1.1h.1v-9.8h-.1V688h.1V677.9h-.1v-1.2h-.7v2.8H677v19.4h.1Z" transform="translate(-108.3 -340.2)"/><path class="cls-1" d="M708.5,675.4h1.3l1.3.2,1.2.3.9.3v4.2h-.3a3.8,3.8,0,0,0-1.3-2.9,4.9,4.9,0,0,0-3-1,4.5,4.5,0,0,0-3.4,1.3,4.2,4.2,0,0,0-1.3,3.1,5.5,5.5,0,0,0,.3,1.6,5.7,5.7,0,0,0,1.2,1.8l7.5,6.9a4.6,4.6,0,0,1,1.5,2.3,6.7,6.7,0,0,1,.4,2.4,7.3,7.3,0,0,1-1.9,5.1,6.9,6.9,0,0,1-5.2,1.9h-2.1l-2.4-.7a5.2,5.2,0,0,1-1.9-1.2,7.1,7.1,0,0,1-.1-1.6,12.8,12.8,0,0,1,.1-1.9,11.6,11.6,0,0,1,.4-1.8h.4a5.5,5.5,0,0,0,.5,3.4,4.3,4.3,0,0,0,1.9,2.1,5.1,5.1,0,0,0,3,.7,6.4,6.4,0,0,0,3.6-1.4,4.8,4.8,0,0,0,1.5-3.7,4.5,4.5,0,0,0-.4-2,3.9,3.9,0,0,0-1.1-1.5l-7.3-6.7a6.1,6.1,0,0,1-1.5-2.4,5,5,0,0,1-.5-2.3,5.8,5.8,0,0,1,.8-3.1,5.6,5.6,0,0,1,2.2-2.4A7,7,0,0,1,708.5,675.4Zm4.7.3v.8h-2.9v-.8Z" transform="translate(-108.3 -340.2)"/><path class="cls-2" d="M707.7,703.7a10.2,10.2,0,0,1-2.3-.2,7.2,7.2,0,0,1-2.5-.7,5.5,5.5,0,0,1-2.2-1.4l-.2-.2V701a8.1,8.1,0,0,1-.1-1.7,14.1,14.1,0,0,1,.1-2,10.5,10.5,0,0,1,.5-1.9v-.6h1.8v.9a5.4,5.4,0,0,0,.5,2.9,4.9,4.9,0,0,0,1.6,1.9,4.5,4.5,0,0,0,2.6.5,5,5,0,0,0,3.1-1.2,4.5,4.5,0,0,0,.9-4.7,3,3,0,0,0-.9-1.3l-7.3-6.8a6.4,6.4,0,0,1-1.8-2.6,7.6,7.6,0,0,1,.3-6.1,7.5,7.5,0,0,1,2.6-2.7,8.1,8.1,0,0,1,5.5-.9l1.4.2H714v6.2h-1.9v-.8a2.7,2.7,0,0,0-1-2.2,3.7,3.7,0,0,0-2.5-.9,3.8,3.8,0,0,0-3.9,3.6,4.3,4.3,0,0,0,1.3,2.9l7.4,6.9a5.6,5.6,0,0,1,1.8,2.6,11.7,11.7,0,0,1,.4,2.6,7.3,7.3,0,0,1-2.2,5.6A7.4,7.4,0,0,1,707.7,703.7Zm-3.5-25.9a3.8,3.8,0,0,0-.9,1.3,5,5,0,0,0-.7,2.7,5.9,5.9,0,0,0,.4,2.1,5.2,5.2,0,0,0,1.4,2l7.3,6.7a5.7,5.7,0,0,1,1.2,1.8,5.9,5.9,0,0,1,.5,2.3,5.2,5.2,0,0,1-1.8,4.2c-.1.2-.3.3-.5.5l1.2-1a6.1,6.1,0,0,0,1.7-4.5,8.9,8.9,0,0,0-.3-2.2,7.2,7.2,0,0,0-1.3-1.9l-7.5-6.9a4.1,4.1,0,0,1-1.4-2.1,5,5,0,0,1-.4-1.9A4.9,4.9,0,0,1,704.2,677.8ZM702,700.5l1.4.8a5.4,5.4,0,0,1-1.5-1.8C701.9,699.9,702,700.2,702,700.5Z" transform="translate(-108.3 -340.2)"/><path class="cls-1" d="M732.5,675.4h1.3l1.4.2,1.2.3.9.3v4.2h-.4a3.7,3.7,0,0,0-1.2-2.9,5.5,5.5,0,0,0-3.1-1,4.4,4.4,0,0,0-4.6,4.4,5.5,5.5,0,0,0,.3,1.6,3.6,3.6,0,0,0,1.2,1.8l7.5,6.9a6.5,6.5,0,0,1,1.5,2.3,9.9,9.9,0,0,1,.3,2.4,6.9,6.9,0,0,1-1.9,5.1,6.7,6.7,0,0,1-5.1,1.9h-2.2l-2.4-.7a6.2,6.2,0,0,1-1.9-1.2,7.1,7.1,0,0,1-.1-1.6,13.7,13.7,0,0,1,.2-1.9,11.6,11.6,0,0,1,.4-1.8h.3a7.4,7.4,0,0,0,.5,3.4,4.5,4.5,0,0,0,2,2.1,5.1,5.1,0,0,0,3,.7,6.4,6.4,0,0,0,3.6-1.4,5.1,5.1,0,0,0,1.4-3.7,6.4,6.4,0,0,0-.3-2,8.3,8.3,0,0,0-1.1-1.5l-7.3-6.7a5.4,5.4,0,0,1-1.6-2.4,6,6,0,0,1,.3-5.4,5.9,5.9,0,0,1,2.3-2.4A6.9,6.9,0,0,1,732.5,675.4Zm4.8.3v.8h-2.9v-.8Z" transform="translate(-108.3 -340.2)"/><path class="cls-2" d="M731.8,703.7a9.8,9.8,0,0,1-2.3-.2,7.7,7.7,0,0,1-2.6-.7,5.2,5.2,0,0,1-2.1-1.4l-.2-.2V701c0-.4-.1-1-.1-1.7a15,15,0,0,1,.2-2,10.6,10.6,0,0,1,.4-1.9l.2-.6H727v.9a5.4,5.4,0,0,0,.4,2.9,5.2,5.2,0,0,0,1.7,1.9,4.2,4.2,0,0,0,2.5.5,4.8,4.8,0,0,0,3.1-1.2,3.9,3.9,0,0,0,1.3-3.1,2.9,2.9,0,0,0-.4-1.6,3,3,0,0,0-.9-1.3l-7.2-6.8a5.6,5.6,0,0,1-1.8-2.6,6.3,6.3,0,0,1-.5-2.6,7,7,0,0,1,3.3-6.2,8.2,8.2,0,0,1,5.5-.9l1.4.2H738v6.2h-1.9v-.8a2.7,2.7,0,0,0-.9-2.2,3.9,3.9,0,0,0-2.6-.9,3.6,3.6,0,0,0-2.8,1.1,3.3,3.3,0,0,0-1,2.5,9.3,9.3,0,0,0,.2,1.4,4.4,4.4,0,0,0,1,1.5l7.5,6.9a5.4,5.4,0,0,1,1.7,2.6,7.8,7.8,0,0,1,.4,2.6,7.6,7.6,0,0,1-2.1,5.6A7.5,7.5,0,0,1,731.8,703.7Zm-3.6-25.9-.9,1.3a6,6,0,0,0-.7,2.7,9.5,9.5,0,0,0,.4,2.1,6.6,6.6,0,0,0,1.4,2l7.3,6.7a4.6,4.6,0,0,1,1.3,1.8,5.9,5.9,0,0,1,.4,2.3,5.4,5.4,0,0,1-1.7,4.2l-.6.5,1.3-1a6.1,6.1,0,0,0,1.7-4.5,9.3,9.3,0,0,0-.4-2.2,4.3,4.3,0,0,0-1.3-1.9l-7.4-6.9a5.1,5.1,0,0,1-1.5-2.1,7.4,7.4,0,0,1-.3-1.9A4.8,4.8,0,0,1,728.2,677.8Zm-2.1,22.7a3.7,3.7,0,0,0,1.4.8,5.4,5.4,0,0,1-1.5-1.8A3.1,3.1,0,0,0,726.1,700.5Z" transform="translate(-108.3 -340.2)"/><path class="cls-1" d="M789.5,691.4l-.5,5.9a9.6,9.6,0,0,1-2.4,2.9,12.5,12.5,0,0,1-3.6,2,13.1,13.1,0,0,1-4.6.7,14.5,14.5,0,0,1-7-1.7,11.1,11.1,0,0,1-4.8-4.8,16.3,16.3,0,0,1,0-14.5,11.1,11.1,0,0,1,4.8-4.8,13.7,13.7,0,0,1,7.2-1.7,16.1,16.1,0,0,1,5.1.7,17.6,17.6,0,0,1,3.9,1.8l.8,5.4H788a8.4,8.4,0,0,0-3.4-5.1,10.8,10.8,0,0,0-6-1.7,10.3,10.3,0,0,0-5.8,1.6,10.1,10.1,0,0,0-3.7,4.4,16.3,16.3,0,0,0,0,13.2,10.1,10.1,0,0,0,3.7,4.4,9.8,9.8,0,0,0,5.6,1.7,12.1,12.1,0,0,0,5-1,9.2,9.2,0,0,0,3.8-3.3,12.9,12.9,0,0,0,2-6.1Z" transform="translate(-108.3 -340.2)"/><path class="cls-2" d="M778.4,703.7a14.7,14.7,0,0,1-7.4-1.8,12.5,12.5,0,0,1-5.1-5.1,15.9,15.9,0,0,1-1.8-7.7,15.5,15.5,0,0,1,1.8-7.6,12.5,12.5,0,0,1,5.1-5.1,15.3,15.3,0,0,1,7.6-1.8,14.4,14.4,0,0,1,5.3.8,14.2,14.2,0,0,1,4.1,1.9l.3.2,1,6.6h-1.9l-.2-.6a7.2,7.2,0,0,0-3-4.6,9.7,9.7,0,0,0-5.6-1.6,10.2,10.2,0,0,0-5.3,1.4,10,10,0,0,0-3.5,4.1,15.9,15.9,0,0,0,0,12.6,10.6,10.6,0,0,0,3.4,4.1,9.1,9.1,0,0,0,5.2,1.5,12.3,12.3,0,0,0,4.7-.9,8.3,8.3,0,0,0,3.5-3,14.2,14.2,0,0,0,1.8-5.8v-.7h1.8l-.5,6.9v.2a13,13,0,0,1-2.6,3.1,12.8,12.8,0,0,1-3.8,2.1A12.6,12.6,0,0,1,778.4,703.7Zm-6.1-26.2-.6.3a10.6,10.6,0,0,0-4.4,4.5,15.5,15.5,0,0,0,0,13.7,11.5,11.5,0,0,0,4.5,4.5l.7.4h-.1a11.4,11.4,0,0,1-4.1-4.8,16.3,16.3,0,0,1-1.4-6.9,16.8,16.8,0,0,1,1.4-7A12,12,0,0,1,772.3,677.5Zm12.3-.2.4.3a7,7,0,0,1,2,1.8v-1Z" transform="translate(-108.3 -340.2)"/><path class="cls-1" d="M802.8,678.7h-.2a2.1,2.1,0,0,0-.7-1.7,2.2,2.2,0,0,0-1.7-.7h-.4v-.4h3.1Zm0,20.9v2.8h-3.1V702h.5a2.2,2.2,0,0,0,1.7-.7,2.1,2.1,0,0,0,.7-1.7Zm2.3-23.7v26.5h-2.5V675.9Zm10.2,0v1.2H805v-1.2Zm-1.6,12.9v1.1H805v-1.1Zm1.6,12.4v1.2H805v-1.2Zm2.3-4.9-2.2,6.1h-6.2l1.3-1.2a7.8,7.8,0,0,0,3.3-.6,6.8,6.8,0,0,0,2.1-1.7,21.5,21.5,0,0,0,1.4-2.6Zm-2.3-21.1v1.1l-4.6-.4h1.8l1.7-.3Zm-1.6,11.2v2.5h-2.2a1.8,1.8,0,0,0,1.3-.6,2.1,2.1,0,0,0,.5-1.3v-.5Zm0,3.4v2.5h-.4v-.5a1.9,1.9,0,0,0-.5-1.3,1.8,1.8,0,0,0-1.3-.6h2.2Zm1.6-12.8v3H815v-.7a2.6,2.6,0,0,0-.7-1.6,2.9,2.9,0,0,0-1.6-.7h2.6Z" transform="translate(-108.3 -340.2)"/><path class="cls-2" d="M816.1,703.2H798.9v-2h1.3a1.4,1.4,0,0,0,1.1-.4,1.3,1.3,0,0,0,.5-1.2V678.7a1.4,1.4,0,0,0-1.6-1.6H799v-2h13.5l1.6-.3,1-.2,1.1-.5v6.8h-1.9v-1.5a1.4,1.4,0,0,0-.5-1,1,1,0,0,0-.7-.4h-7.1V688h5.6a.8.8,0,0,0,.7-.4.9.9,0,0,0,.3-.7v-1.3h2v7.5h-2v-1.3a1.1,1.1,0,0,0-.3-.8.9.9,0,0,0-.7-.3h-5.6v9.8h4.6a6,6,0,0,0,2.9-.6,3.8,3.8,0,0,0,1.8-1.5,9.2,9.2,0,0,0,1.3-2.4l.2-.5h2.1l-2.7,7.4Zm-12.6-1.6h.7v-1.1h.1v-9.8h-.1V688h.1V677.9h-.1v-1.2h-.7v2.8h-.1v19.4h.1Z" transform="translate(-108.3 -340.2)"/><path class="cls-1" d="M829.8,699.7v2.7h-3.1V702h.7a2.3,2.3,0,0,0,1.6-.6,2.2,2.2,0,0,0,.7-1.7Zm0-24.4,1.6,2.1v25h-1.8V680.1a47.1,47.1,0,0,0-.3-4.8Zm0,0,22,23.5.3,4.1-22-23.4Zm1.7,24.4a2.1,2.1,0,0,0,2.3,2.3h.7v.4h-3.2v-2.7Zm15.8-23.8h3.2v2.7h-.1a2.6,2.6,0,0,0-.7-1.7,2.3,2.3,0,0,0-1.6-.6h-.8Zm4.8,0v22.2a16.9,16.9,0,0,0,.1,2.3,22.9,22.9,0,0,0,.2,2.5h-.3l-1.7-2v-25Zm3,0v.4h-.6a2.5,2.5,0,0,0-1.7.6,2.6,2.6,0,0,0-.7,1.7H852v-2.7Z" transform="translate(-108.3 -340.2)"/><path class="cls-2" d="M853.1,705.1l-20.9-22.2v16.8a1.4,1.4,0,0,0,1.5,1.5h1.5v2h-9.4v-2h1.5a1.4,1.4,0,0,0,1.5-1.5V680.1a45.4,45.4,0,0,0-.3-4.7v-.9h.4v-1.4l20.8,22.3V678.6a1.6,1.6,0,0,0-.5-1.1,1.2,1.2,0,0,0-1-.4h-1.6v-2h9.4v2h-1.4a1.4,1.4,0,0,0-1.1.4,1.6,1.6,0,0,0-.5,1.1v19.5a17.7,17.7,0,0,0,.1,2.3,23.2,23.2,0,0,0,.2,2.4l.2.9H853Zm-20.9-24.5,17.4,18.5v-1.4l-17.4-18.6Zm-1.6,18.3h.1V681.2h-.1v17.8Zm20.6-1.9V679.4h-.1Z" transform="translate(-108.3 -340.2)"/><path class="cls-1" d="M863.7,675.2l1.1.3,1.7.2,1.8.2-4.6.4Zm21.9.7V677H863.7v-1.1Zm-19.3,1h0a1.9,1.9,0,0,0-1.6.7,2.2,2.2,0,0,0-.7,1.6v.6h-.3v-3Zm7.2,22.7v2.8h-3V702h.5a2.3,2.3,0,0,0,1.7-.7,2.4,2.4,0,0,0,.7-1.7Zm2.4-23.6v26.4h-2.5V676Zm-.2,23.6h.2a2.1,2.1,0,0,0,.7,1.7,2.2,2.2,0,0,0,1.7.7h.5v.4h-3.1Zm9.9-24.4v1.1l-4.6-.4,1.7-.2,1.8-.2Zm0,1.7v3h-.4v-.6A2.2,2.2,0,0,0,883,677h2.6Z" transform="translate(-108.3 -340.2)"/><path class="cls-2" d="M879.6,703.2h-9.9v-2H871a1.5,1.5,0,0,0,1.1-.4,1.7,1.7,0,0,0,.5-1.2V677.8h-6.3a2.1,2.1,0,0,0-1.1.4,1.8,1.8,0,0,0-.4,1.1v1.3l-1.9.2V674l1.1.4,1,.3,1.6.3h16l1.7-.3,1-.2,1.1-.5v6.8l-2-.2v-1.3a1.5,1.5,0,0,0-.4-1.1,1.8,1.8,0,0,0-1-.4h-6.3v21.8a1.3,1.3,0,0,0,.5,1.2,1.4,1.4,0,0,0,1.1.4h1.3Zm-5.3-1.6h.7v-2.7h.1V677.8h-.9v21.1h.1Z" transform="translate(-108.3 -340.2)"/><path class="cls-1" d="M897.7,678.7h-.1a2.5,2.5,0,0,0-.8-1.7,2.1,2.1,0,0,0-1.7-.7h-.4v-.4h3Zm0,20.9v2.8h-3V702h.4a2.1,2.1,0,0,0,1.7-.7,2.5,2.5,0,0,0,.8-1.7Zm2.3-23.7v26.5h-2.4V675.9Zm4.9,0a10.6,10.6,0,0,1,3.1.5,5.9,5.9,0,0,1,2.3,1.4,8.6,8.6,0,0,1,1.5,2.2,9.4,9.4,0,0,1,.5,3,7.3,7.3,0,0,1-.9,3.5,7.5,7.5,0,0,1-2.3,2.7,5.7,5.7,0,0,1-3.3,1.1,3.1,3.1,0,0,1,1.4,1l1.4,1.6a18,18,0,0,0,1.8,2.5c.5.8,1,1.4,1.5,2.1l1.4,1.7,1.5,1.4a6.2,6.2,0,0,0,1.7,1.1,5.4,5.4,0,0,0,1.9.3v.4h-2a9.6,9.6,0,0,1-3.1-.5,10,10,0,0,1-3.6-2.8c0-.1-.3-.4-.6-.9l-1.2-1.7-1.4-2a12.5,12.5,0,0,0-1.2-1.7,5.9,5.9,0,0,1-.5-.8,12.9,12.9,0,0,0-1.6-1.7,2.5,2.5,0,0,0-1.9-.8v-.4h2a8.2,8.2,0,0,0,2.1-.3,5.7,5.7,0,0,0,2.2-1.1,5.5,5.5,0,0,0,1.6-2.6,8.7,8.7,0,0,0,.2-1,4.8,4.8,0,0,0,0-1.2,5.9,5.9,0,0,0-1.3-4.1,4.4,4.4,0,0,0-3.4-1.7,14.7,14.7,0,0,0-2.1,0h-2.7a.8.8,0,0,0-.1-.4,2.7,2.7,0,0,0-.3-.8Zm-5,23.7h.1a2.4,2.4,0,0,0,2.5,2.4h.4v.4h-3Z" transform="translate(-108.3 -340.2)"/><path class="cls-2" d="M919.2,703.2h-2.8a9,9,0,0,1-3.4-.6,10,10,0,0,1-2.3-1.4c-.6-.6-1.2-1.1-1.6-1.6l-.6-.9-1.3-1.8-.3-.4c-.3-.6-.7-1.1-1-1.6l-.6-.7a3.5,3.5,0,0,0-.6-.9v-.2l-.5-.7a11,11,0,0,0-1.5-1.6,1.8,1.8,0,0,0-1.3-.6h-.5v9.4a1.7,1.7,0,0,0,.5,1.2,1.6,1.6,0,0,0,1.2.4h1.2v2h-9.8v-2h1.2a1.6,1.6,0,0,0,1.2-.4,1.7,1.7,0,0,0,.5-1.2V678.7a1.8,1.8,0,0,0-.5-1.2,1.6,1.6,0,0,0-1.2-.4h-1.2v-2h11a11.4,11.4,0,0,1,3.3.5,6.8,6.8,0,0,1,2.6,1.6,6.5,6.5,0,0,1,1.7,2.6,7.9,7.9,0,0,1,.6,3.2,9.4,9.4,0,0,1-1,3.9,9.1,9.1,0,0,1-2.5,3,7.6,7.6,0,0,1-1.8.9h0l1.4,1.6L911,695l1.5,2,1.4,1.6a9.3,9.3,0,0,0,1.4,1.4,4.6,4.6,0,0,0,1.5.9,4.1,4.1,0,0,0,1.6.3h.8Zm-20.7-1.6h.6v-2.7h.1v-21h-.1v-1.2h-.5v2.8h-.1v19.4h.1Zm6.1-11,.8.9.5.7v.2a3.5,3.5,0,0,1,.6.9l.6.7c.3.5.7,1,1,1.6l.3.4,1.2,1.8.7.8,1.3,1.4,1.9,1.2.9.2-.2-.2a11,11,0,0,1-1.6-1.5l-1.4-1.7-1.6-2.1-1.8-2.5a15.8,15.8,0,0,0-1.2-1.5,4.3,4.3,0,0,0-1.2-.9Zm2.6-13.6a3.7,3.7,0,0,1,1.5,1.3,6.7,6.7,0,0,1,1.5,4.6v1.3a7.4,7.4,0,0,0-.2,1.2,6.1,6.1,0,0,1-1.9,2.9,8.8,8.8,0,0,1-2.1,1.2,5.8,5.8,0,0,0,2.6-.9,6.4,6.4,0,0,0,2.1-2.5,6.8,6.8,0,0,0,.8-3.1,7.6,7.6,0,0,0-.5-2.7,5,5,0,0,0-1.3-1.9,4.6,4.6,0,0,0-2-1.3Zm-6.4,11.3h2.4a8.2,8.2,0,0,0,2.1-.3,4.4,4.4,0,0,0,1.8-.9,4.3,4.3,0,0,0,1.3-2.2,2,2,0,0,0,.2-.9,4.1,4.1,0,0,0,0-1.1,5.5,5.5,0,0,0-1.1-3.6,3.7,3.7,0,0,0-2.8-1.4h-3.9Z" transform="translate(-108.3 -340.2)"/><path class="cls-1" d="M928.3,678.7h-.2a2.1,2.1,0,0,0-.7-1.7,2.2,2.2,0,0,0-1.7-.7h-.4v-.4h3.1Zm0,20.9v2.8h-3.1V702h.5a2.2,2.2,0,0,0,1.7-.7,2.1,2.1,0,0,0,.7-1.7Zm2.3-23.7v26.5h-2.5V675.9Zm10.2,0v1.2H930.5v-1.2Zm-1.6,12.9v1.1h-8.7v-1.1Zm1.6,12.4v1.2H930.5v-1.2Zm2.3-4.9-2.2,6.1h-6.2l1.3-1.2a7.5,7.5,0,0,0,3.3-.6,6.8,6.8,0,0,0,2.1-1.7,21.5,21.5,0,0,0,1.4-2.6Zm-2.3-21.1v1.1l-4.6-.4H938l1.7-.3Zm-1.6,11.2v2.5H937a1.8,1.8,0,0,0,1.3-.6,2.1,2.1,0,0,0,.5-1.3v-.5Zm0,3.4v2.5h-.4v-.5a1.9,1.9,0,0,0-.5-1.3,1.8,1.8,0,0,0-1.3-.6h2.2Zm1.6-12.8v3h-.3v-.7a2.6,2.6,0,0,0-.7-1.6,2.9,2.9,0,0,0-1.6-.7h2.6Z" transform="translate(-108.3 -340.2)"/><path class="cls-2" d="M941.6,703.2H924.4v-2h1.3a1.4,1.4,0,0,0,1.1-.4,1.3,1.3,0,0,0,.5-1.2V678.7a1.4,1.4,0,0,0-1.6-1.6h-1.2v-2h13.5l1.6-.3,1-.2,1.1-.5v6.8h-1.9v-1.5a1.4,1.4,0,0,0-.5-1,1,1,0,0,0-.7-.4h-7.1V688H937a.8.8,0,0,0,.7-.4.9.9,0,0,0,.3-.7v-1.3h2v7.5h-2v-1.3a1.1,1.1,0,0,0-.3-.8.9.9,0,0,0-.7-.3h-5.6v9.8H936a6,6,0,0,0,2.9-.6,3.8,3.8,0,0,0,1.8-1.5A9.2,9.2,0,0,0,942,696l.2-.5h2.1l-2.7,7.4ZM929,701.6h.7v-1.1h.1v-9.8h-.1V688h.1V677.9h-.1v-1.2H929v2.8h-.1v19.4h.1Z" transform="translate(-108.3 -340.2)"/><path class="cls-1" d="M108.3,639.9l54-.4,53.9-.4,108-.4c35.9-.2,71.9-.2,107.9-.3H701.9l53.9.2,108,.4,53.9.4,27,.2,27,.2-27,.2-27,.2-53.9.4-108,.4-53.9.2H432.1c-36-.1-72-.1-107.9-.3l-108-.4-53.9-.4Z" transform="translate(-108.3 -340.2)"/><path class="cls-1" d="M108.3,738.2l54-.4,53.9-.4,108-.4c35.9-.2,71.9-.2,107.9-.3H701.9l53.9.2,108,.4,53.9.4,27,.2,27,.2-27,.3h-27l-53.9.4-108,.4-53.9.2H432.1c-36-.1-72-.1-107.9-.3l-108-.4-53.9-.4Z" transform="translate(-108.3 -340.2)"/><path class="cls-1" d="M527.3,403h-3.2a10,10,0,0,0-6.8,2.6,7.8,7.8,0,0,0-2.9,6.2v72.9c0,15.3-4.8,27.4-14.4,36.4s-22.7,13.4-39.4,13.4c-19.7,0-34.7-4.4-45.2-13.1s-15.7-21-15.7-36.5V412.4a8.6,8.6,0,0,0-2.9-6.7,9.9,9.9,0,0,0-7-2.7h-3v-1.8h53.8V403h-3a10,10,0,0,0-6.9,2.6,8.5,8.5,0,0,0-3,6.4v71.4c0,13.2,3.3,23.6,9.7,31.3s15.4,11.6,26.7,11.6,20.3-3.6,26.9-10.9,10-17.2,10.1-29.6V412a7.8,7.8,0,0,0-2.9-6.4,10.1,10.1,0,0,0-7-2.6h-3v-1.8h39.1Z" transform="translate(-108.3 -340.2)"/><path class="cls-1" d="M609.5,409.4h-8.6V518.3a11.5,11.5,0,0,0,6,10.3,12,12,0,0,0,5.9,1.5h2.5v1.8H558.5v-1.8h2.4a11.5,11.5,0,0,0,10.3-5.8,14.4,14.4,0,0,0,1.7-5.8V414.8a12.5,12.5,0,0,0-3.7-8.3,11.4,11.4,0,0,0-8.3-3.5h-2.4v-1.8h64.1q18,0,30.6,7.8a28.7,28.7,0,0,1,10.1,10.9,33.3,33.3,0,0,1,3.7,15.9,42,42,0,0,1-3.1,16.4,32.3,32.3,0,0,1-10.2,13,33.7,33.7,0,0,1-17.3,6.8c7.2,2.3,13.5,7.8,19,16.4,13.5,21.5,23.4,34.4,29.9,38.5,3.2,2,7.3,3,12.2,3.2v1.8H679.1c-10.5,0-19.4-1.4-26.5-4.4a36.3,36.3,0,0,1-17.3-15,156.6,156.6,0,0,1-8.6-16.3c-3.5-7.3-5.8-12.5-7-15.6-3.3-7.5-7.5-11.7-12.7-12.6v-1.8h5.8a23.4,23.4,0,0,0,14.9-5.1c4.3-3.3,7.2-8.8,8.7-16.4a34.2,34.2,0,0,0,.7-6.2c0-10.2-2-17.6-6.1-22.1a21,21,0,0,0-15.9-7Z" transform="translate(-108.3 -340.2)"/><path class="cls-1" d="M836.2,403h-2.6a19.6,19.6,0,0,0-10.6,3.2,26,26,0,0,0-8.1,7.7l-36.8,58.6v45.8a11.1,11.1,0,0,0,3.6,8.3,11.8,11.8,0,0,0,8.4,3.5h2.2l.2,1.8H735.7v-1.8h2.5a11.7,11.7,0,0,0,8.3-3.4,11.5,11.5,0,0,0,3.6-8.2V472.3l-35.7-58.6a23.1,23.1,0,0,0-7.9-7.6A20.6,20.6,0,0,0,696,403h-2.7v-1.8h61.9V403h-2.5a7,7,0,0,0-6.3,3.8,7.6,7.6,0,0,0-1.1,4,8.5,8.5,0,0,0,.9,3.8l26.7,48.6,27.7-48.6a7.6,7.6,0,0,0,1.1-3.8A8.7,8.7,0,0,0,794,403h-2.2v-1.8h44.4Z" transform="translate(-108.3 -340.2)"/><path class="cls-1" d="M966.8,530.1h1.7v1.8H908.9v-1.8h1.7a7.1,7.1,0,0,0,6-2.6,7.3,7.3,0,0,0,2-4.7,12,12,0,0,0-.9-4.5l-9.2-23H864.8l-9.7,23a12.9,12.9,0,0,0-.9,4.6,7.7,7.7,0,0,0,1.9,4.6c1.3,1.7,3.4,2.6,6.3,2.6h1.5v1.8h-40v-1.8h1.7a16.1,16.1,0,0,0,8.6-2.7,20.1,20.1,0,0,0,7.1-7.8l43.1-97.7c5.9-12.3,9-20.5,9.4-24.5h1.6l55.5,121.8a21,21,0,0,0,7.1,8.1A15.8,15.8,0,0,0,966.8,530.1ZM868,487.5h37.3l-18.1-46Z" transform="translate(-108.3 -340.2)"/><path class="cls-1" d="M237.9,581.3c-61.5,0-111.6-50.1-111.6-111.7A111.6,111.6,0,1,1,237.9,581.3Zm0-216A104.3,104.3,0,1,0,342.2,469.6,104.4,104.4,0,0,0,237.9,365.3Z" transform="translate(-108.3 -340.2)"/><path class="cls-1" d="M293.3,489.6a42.7,42.7,0,0,1-3.4,16.1,45,45,0,0,1-10.6,15.7,57.3,57.3,0,0,1-19,11.7,68.8,68.8,0,0,1-25.2,4.5,65.2,65.2,0,0,1-24.5-4.3c-13.6-5.4-22.4-14.8-26.5-28.2a39.8,39.8,0,0,1-1.6-10.2,49,49,0,0,1,9.3-28.6l1.6,1.3c-3.8,6.9-5.8,13.5-5.8,19.9a37.5,37.5,0,0,0,6,21.1,41.9,41.9,0,0,0,15.9,14.2,45.8,45.8,0,0,0,20.4,5q10.5,0,17.7-3.3a23.9,23.9,0,0,0,10.5-8.9,23.2,23.2,0,0,0,3.3-11.8c0-4.1-1.5-8.2-4.4-12.5s-7.2-8-13-11.1l-28.5-16.8c-14.5-8.6-21.7-19.5-21.7-33,0-12,4.2-21.3,12.6-27.8s16.5-8.3,28.5-8.3c7.7,0,17.6.6,29.5,1.8H278l-3.6,28.5h-1.8a19,19,0,0,0-7.5-15.6c-5.1-3.9-11.5-5.9-19.3-5.9s-13.8,1.3-18,4-6.5,6.3-6.9,10.7a9.3,9.3,0,0,0,2.5,7.7,21.9,21.9,0,0,0,5.2,4.3l4.8,2.7,2.9,1.6,32.8,18.7a48.5,48.5,0,0,1,17.2,15.3C290.9,475,293.3,482.2,293.3,489.6Z" transform="translate(-108.3 -340.2)"/><path class="cls-1" d="M231.4,599.1a3.2,3.2,0,0,1-3-3.4h0a3.2,3.2,0,0,1,3.3-3h0a3.3,3.3,0,0,1,3.1,3.3h0a3.3,3.3,0,0,1-3.2,3.1h-.2Zm9.8-3.1a3.2,3.2,0,0,1,3-3.3h0a3.2,3.2,0,0,1,3.4,3h0a3.1,3.1,0,0,1-3.1,3.3h-.1A3.2,3.2,0,0,1,241.2,596Zm-22.8,1.7a3.1,3.1,0,0,1-2.7-3.6h0a3.2,3.2,0,0,1,3.6-2.6h0a3.1,3.1,0,0,1,2.7,3.6h0a3.3,3.3,0,0,1-3.1,2.7h-.5Zm35.6-2.6a3.2,3.2,0,0,1,2.6-3.7h0a3.3,3.3,0,0,1,3.7,2.7h0a3.2,3.2,0,0,1-2.7,3.6h-.5A3.1,3.1,0,0,1,254,595.1Zm-48.5,0h0a3.2,3.2,0,0,1-2.3-3.9h0a3.1,3.1,0,0,1,3.9-2.2h0a3.1,3.1,0,0,1,2.3,3.8h0a3.2,3.2,0,0,1-3.1,2.4h-.8Zm61.1-2.3a3.2,3.2,0,0,1,2.3-3.9h0a3.1,3.1,0,0,1,3.8,2.3h0a3.1,3.1,0,0,1-2.2,3.9h-.8A3.2,3.2,0,0,1,266.6,592.8ZM193,591.2a3.1,3.1,0,0,1-1.9-4.1h0a3.2,3.2,0,0,1,4.1-1.9h0a3.3,3.3,0,0,1,1.9,4.1h0a3.2,3.2,0,0,1-3,2.1h0Zm85.9-1.9a3.1,3.1,0,0,1,1.9-4.1h0a3.2,3.2,0,0,1,4.1,1.9h0a3.3,3.3,0,0,1-1.9,4.1h0l-1.1.2h0A3.2,3.2,0,0,1,278.9,589.3Zm-98-3.3a3,3,0,0,1-1.4-4.2h0a3.1,3.1,0,0,1,4.2-1.5h0a3.3,3.3,0,0,1,1.5,4.3h0a3.3,3.3,0,0,1-2.9,1.8h0A2.5,2.5,0,0,1,180.9,586Zm109.9-1.5a3.1,3.1,0,0,1,1.4-4.2h0a3.2,3.2,0,0,1,4.3,1.4h0A3.2,3.2,0,0,1,295,586h0a3.2,3.2,0,0,1-1.4.3h0A3.2,3.2,0,0,1,290.8,584.5Zm-121.4-4.8h0a3.3,3.3,0,0,1-1-4.4h0a3.1,3.1,0,0,1,4.4-1h0a3,3,0,0,1,1,4.3h0a3.1,3.1,0,0,1-2.7,1.5h0A3.5,3.5,0,0,1,169.4,579.7Zm132.7-1.1a3.2,3.2,0,0,1,1-4.4h0a3.2,3.2,0,0,1,4.4,1h0a3.2,3.2,0,0,1-1,4.4h0a3.4,3.4,0,0,1-1.7.5h0A3.4,3.4,0,0,1,302.1,578.6Zm-143.4-6.4a3.2,3.2,0,0,1-.6-4.5h0a3.3,3.3,0,0,1,4.5-.6h0a3.3,3.3,0,0,1,.5,4.5h0a3,3,0,0,1-2.5,1.2h0A3.1,3.1,0,0,1,158.7,572.2Zm154.1-.7a3.1,3.1,0,0,1,.6-4.4h0a3.1,3.1,0,0,1,4.4.5h0a3.3,3.3,0,0,1-.5,4.5h0a3.6,3.6,0,0,1-2,.6h0A3.2,3.2,0,0,1,312.8,571.5Zm-164.1-7.9a3.2,3.2,0,0,1-.1-4.5h0a3.3,3.3,0,0,1,4.5-.1h0a3.2,3.2,0,0,1,.1,4.5h0a3,3,0,0,1-2.3,1h0A3.1,3.1,0,0,1,148.7,563.6Zm174-.2a3.3,3.3,0,0,1,.1-4.5h0a3.3,3.3,0,0,1,4.5.1h0a3.2,3.2,0,0,1-.1,4.5h0a3.1,3.1,0,0,1-2.2.9h0A3,3,0,0,1,322.7,563.4Zm-183-9.3a3.2,3.2,0,0,1,.3-4.5h0a3.2,3.2,0,0,1,4.5.4h0a3.1,3.1,0,0,1-.4,4.4h0a2.7,2.7,0,0,1-2,.8h0A3.2,3.2,0,0,1,139.7,554.1Zm192.1.2a3.1,3.1,0,0,1-.4-4.4h0a3.2,3.2,0,0,1,4.5-.4h0a3.3,3.3,0,0,1,.4,4.5h0a3.6,3.6,0,0,1-2.5,1.1h0A2.7,2.7,0,0,1,331.8,554.3ZM131.6,543.7a3.2,3.2,0,0,1,.8-4.4h0a3.2,3.2,0,0,1,4.4.8h0a3.1,3.1,0,0,1-.8,4.4h0a2.8,2.8,0,0,1-1.8.6h0A3.1,3.1,0,0,1,131.6,543.7Zm208.3.7a3.1,3.1,0,0,1-.8-4.4h0a3.2,3.2,0,0,1,4.4-.8h0a3.2,3.2,0,0,1,.8,4.4h0a3.1,3.1,0,0,1-2.6,1.4h0A2.8,2.8,0,0,1,339.9,544.4ZM124.6,532.6h.1a3.1,3.1,0,0,1,1.2-4.3h0a3.1,3.1,0,0,1,4.3,1.2h0a3.2,3.2,0,0,1-1.2,4.4h0a4.2,4.2,0,0,1-1.6.4h0A3.2,3.2,0,0,1,124.6,532.6Zm222.3,1.1a3.1,3.1,0,0,1-1.2-4.3h0a3.1,3.1,0,0,1,4.3-1.2h0a3.1,3.1,0,0,1,1.2,4.3h0a3,3,0,0,1-2.7,1.6h0A2.9,2.9,0,0,1,346.9,533.7Zm-228-12.8a3.2,3.2,0,0,1,1.6-4.2h0a3.2,3.2,0,0,1,4.2,1.6h0a3.2,3.2,0,0,1-1.7,4.2h0a2.7,2.7,0,0,1-1.2.3h0A3,3,0,0,1,118.9,520.9Zm233.9,1.5a3.2,3.2,0,0,1-1.6-4.2h0a3.2,3.2,0,0,1,4.2-1.6h0a3,3,0,0,1,1.6,4.1h0a3.1,3.1,0,0,1-2.9,1.9h0A3.2,3.2,0,0,1,352.8,522.4ZM114.3,508.5a3.1,3.1,0,0,1,2.1-3.9h0a3.1,3.1,0,0,1,3.9,2h0a3.1,3.1,0,0,1-2,4h0l-1,.2h0A3.2,3.2,0,0,1,114.3,508.5Zm243.3,2a3.2,3.2,0,0,1-2.1-4h0a3.2,3.2,0,0,1,4-2.1h0a3.2,3.2,0,0,1,2.1,4h0a3.1,3.1,0,0,1-3,2.2h-1ZM111,495.8a3,3,0,0,1,2.5-3.7h0a3,3,0,0,1,3.7,2.5h0a3,3,0,0,1-2.5,3.7h-.6A3.2,3.2,0,0,1,111,495.8Zm250.1,2.4a3.3,3.3,0,0,1-2.5-3.8h0a3.3,3.3,0,0,1,3.8-2.5h0a3.3,3.3,0,0,1,2.5,3.8h0a3.2,3.2,0,0,1-3.1,2.5h-.7ZM109,482.9a3.2,3.2,0,0,1,2.9-3.5h0a3.1,3.1,0,0,1,3.4,2.8h0a3.2,3.2,0,0,1-2.8,3.5h-.3A3.2,3.2,0,0,1,109,482.9Zm254.4,2.7a3.2,3.2,0,0,1-2.9-3.5h0a3.2,3.2,0,0,1,3.5-2.9h0a3.2,3.2,0,0,1,2.8,3.5h0a3.1,3.1,0,0,1-3.1,2.9h-.3ZM108.3,469.8a3.2,3.2,0,0,1,3.2-3.2h0a3.2,3.2,0,0,1,3.2,3.2h0a3.2,3.2,0,0,1-3.2,3.2h0A3.3,3.3,0,0,1,108.3,469.8Zm252.8-.2h0v-.2h0a3.2,3.2,0,0,1,3.2-3.1h0a3.1,3.1,0,0,1,3.2,3.1h0v.2h0a3.2,3.2,0,0,1-3.2,3.2h0A3.2,3.2,0,0,1,361.1,469.6Zm-249.3-9.4a3.2,3.2,0,0,1-2.8-3.5h0a3.1,3.1,0,0,1,3.5-2.9h0a3.2,3.2,0,0,1,2.8,3.5h0a3.2,3.2,0,0,1-3.2,2.9h-.3Zm248.7-3.3a3.2,3.2,0,0,1,2.8-3.5h0a3.2,3.2,0,0,1,3.5,2.8h0a3.1,3.1,0,0,1-2.8,3.5h-.4A3.1,3.1,0,0,1,360.5,456.9Zm-247.1-9.5a3.2,3.2,0,0,1-2.5-3.7h0a3.3,3.3,0,0,1,3.8-2.5h0a3.3,3.3,0,0,1,2.5,3.8h0a3.2,3.2,0,0,1-3.1,2.5h-.7Zm245.2-2.8a3.1,3.1,0,0,1,2.5-3.8h0a3.1,3.1,0,0,1,3.7,2.5h0a3,3,0,0,1-2.5,3.7h-.6A3.1,3.1,0,0,1,358.6,444.6ZM116.3,435a3.2,3.2,0,0,1-2.1-4h0a3.2,3.2,0,0,1,4-2.1h0a3.2,3.2,0,0,1,2.1,4h0a3.3,3.3,0,0,1-3.1,2.2h-.9Zm239.1-2.5a3.2,3.2,0,0,1,2.1-4h0a3.2,3.2,0,0,1,4,2.1h0a3.3,3.3,0,0,1-2.1,4h-.9A3.3,3.3,0,0,1,355.4,432.5Zm-235-9.7a3.1,3.1,0,0,1-1.7-4.1h0a3.2,3.2,0,0,1,4.2-1.7h0a3.2,3.2,0,0,1,1.7,4.2h0a3.1,3.1,0,0,1-2.9,1.9h0A2.8,2.8,0,0,1,120.4,422.8Zm230.7-2a3.2,3.2,0,0,1,1.6-4.2h0a3.2,3.2,0,0,1,4.2,1.7h0a3.2,3.2,0,0,1-1.6,4.2h0l-1.3.2h0A3.1,3.1,0,0,1,351.1,420.8Zm-225.3-9.6a3.2,3.2,0,0,1-1.3-4.3h0a3.2,3.2,0,0,1,4.3-1.3h0a3.3,3.3,0,0,1,1.3,4.4h0a3.3,3.3,0,0,1-2.8,1.6h0A2.6,2.6,0,0,1,125.8,411.2Zm219.8-1.6a3.1,3.1,0,0,1,1.2-4.3h0a3.1,3.1,0,0,1,4.3,1.2h0a3.1,3.1,0,0,1-1.2,4.3h0a2.9,2.9,0,0,1-1.6.4h0A2.9,2.9,0,0,1,345.6,409.6Zm-213.4-9.4a3.4,3.4,0,0,1-.8-4.5h0a3.3,3.3,0,0,1,4.5-.8h0a3.3,3.3,0,0,1,.8,4.5h0a3,3,0,0,1-2.6,1.3h0A4.1,4.1,0,0,1,132.2,400.2ZM338.9,399a3.2,3.2,0,0,1,.8-4.4h0a3.2,3.2,0,0,1,4.4.8h0a3.1,3.1,0,0,1-.8,4.4h0a2.8,2.8,0,0,1-1.8.6h0A3.1,3.1,0,0,1,338.9,399Zm-199.1-9.2a3.2,3.2,0,0,1-.3-4.5h0a3.3,3.3,0,0,1,4.5-.3h0a3.2,3.2,0,0,1,.3,4.5h0a3.2,3.2,0,0,1-2.4,1.1h0A2.9,2.9,0,0,1,139.8,389.8Zm191.5-.6a3.2,3.2,0,0,1,.3-4.5h0a3.3,3.3,0,0,1,4.5.3h0a3.2,3.2,0,0,1-.4,4.5h0a3.2,3.2,0,0,1-2,.8h0A3.2,3.2,0,0,1,331.3,389.2Zm-182.9-8.9a3.2,3.2,0,0,1,.1-4.5h0a3.3,3.3,0,0,1,4.5.1h0a3.2,3.2,0,0,1-.1,4.5h0a3.1,3.1,0,0,1-2.2.9h0A3,3,0,0,1,148.4,380.3Zm174.2-.1a3.3,3.3,0,0,1-.1-4.5h0a3.2,3.2,0,0,1,4.5-.2h0a3.2,3.2,0,0,1,.1,4.5h0a2.9,2.9,0,0,1-2.3,1h0A3.7,3.7,0,0,1,322.6,380.2Zm-164.7-8.5a3.1,3.1,0,0,1,.5-4.4h0a3.2,3.2,0,0,1,4.5.5h0a3.3,3.3,0,0,1-.5,4.5h-.1a3.2,3.2,0,0,1-1.9.7h0A3.3,3.3,0,0,1,157.9,371.7Zm155.3.3a3.1,3.1,0,0,1-.6-4.4h0a3.1,3.1,0,0,1,4.4-.6h0a3.2,3.2,0,0,1,.6,4.5h0a3.2,3.2,0,0,1-2.5,1.2h0A2.6,2.6,0,0,1,313.2,372Zm-145-7.9a3.1,3.1,0,0,1,1-4.3h0a3.1,3.1,0,0,1,4.4,1h0a3.1,3.1,0,0,1-1,4.3h0a2.6,2.6,0,0,1-1.7.5h0A3.1,3.1,0,0,1,168.2,364.1Zm134.7.8h0a3.2,3.2,0,0,1-1-4.4h0a3.2,3.2,0,0,1,4.4-1h0a3.2,3.2,0,0,1,1,4.4h0a3.2,3.2,0,0,1-2.7,1.5h0A3.4,3.4,0,0,1,302.9,364.9Zm-123.7-7.3a3.1,3.1,0,0,1,1.5-4.2h0a3.1,3.1,0,0,1,4.2,1.4h0a3,3,0,0,1-1.4,4.2h0a2.7,2.7,0,0,1-1.4.4h0A3.3,3.3,0,0,1,179.2,357.6ZM292,358.9a3.3,3.3,0,0,1-1.5-4.3h0a3.2,3.2,0,0,1,4.3-1.4h0a3,3,0,0,1,1.4,4.2h0a3.1,3.1,0,0,1-2.8,1.8h0A3.2,3.2,0,0,1,292,358.9Zm-101.2-6.7a3.2,3.2,0,0,1,1.9-4h0a3.1,3.1,0,0,1,4.1,1.8h0a3.1,3.1,0,0,1-1.9,4.1h0l-1.1.2h0A3.2,3.2,0,0,1,190.8,352.2Zm89.7,1.8h0a3.3,3.3,0,0,1-1.9-4.1h0a3.2,3.2,0,0,1,4.1-1.9h0a3.1,3.1,0,0,1,1.9,4.1h0a3.2,3.2,0,0,1-3,2.1h0ZM203,348.1a3.1,3.1,0,0,1,2.2-3.9h0a3.2,3.2,0,0,1,3.9,2.3h0a3.3,3.3,0,0,1-2.3,3.9H206A3.1,3.1,0,0,1,203,348.1Zm65.6,2.2a3.3,3.3,0,0,1-2.3-3.9h0a3.2,3.2,0,0,1,3.9-2.3h0a3.2,3.2,0,0,1,2.3,3.9h0a3.3,3.3,0,0,1-3.1,2.4h-.8Zm-53.2-5.1a3.1,3.1,0,0,1,2.7-3.6h0a3.2,3.2,0,0,1,3.6,2.6h0a3,3,0,0,1-2.6,3.6h-.5A3.2,3.2,0,0,1,215.4,345.2Zm41,2.6a3.2,3.2,0,0,1-2.7-3.6h0a3.2,3.2,0,0,1,3.6-2.7h0a3.2,3.2,0,0,1,2.7,3.6h0a3.2,3.2,0,0,1-3.2,2.7h-.4Zm-28.3-4.2a3.2,3.2,0,0,1,3-3.4h0a3.2,3.2,0,0,1,3.4,3h0a3.2,3.2,0,0,1-3,3.4h-.2A3.2,3.2,0,0,1,228.1,343.6Zm15.9,3a3.3,3.3,0,0,1-3.1-3.4h0a3.2,3.2,0,0,1,3.4-3h0a3.2,3.2,0,0,1,3,3.3h0a3.3,3.3,0,0,1-3.2,3.1H244Z" transform="translate(-108.3 -340.2)"/></svg>